<?xml version="1.0" encoding="utf-8"?>
<!-- Generator: Adobe Illustrator 27.9.0, SVG Export Plug-In . SVG Version: 6.00 Build 0)  -->
<svg version="1.1" id="Capa_1" xmlns="http://www.w3.org/2000/svg" xmlns:xlink="http://www.w3.org/1999/xlink" x="0px" y="0px"
	 viewBox="0 0 1000 1000" style="enable-background:new 0 0 1000 1000;" xml:space="preserve">
<style type="text/css">
	.st0{opacity:4.000000e-02;fill:#606060;}
	.st1{fill:#606060;}
	.st2{fill:#243746;stroke:#1C2247;stroke-width:5.1698;stroke-miterlimit:10;}
	.st3{fill:#18224C;}
	.st4{fill:#FFCD00;}
	.st5{fill:#243746;}
	.st6{fill:#182B38;stroke:#1C2247;stroke-width:5.1698;stroke-miterlimit:10;}
	.st7{fill:#4B858E;}
</style>
<rect x="1634.5" y="736.5" class="st0" width="1373" height="360"/>
<rect x="2492.5" y="1404.5" class="st1" width="9" height="9"/>
<g>
	<text transform="matrix(1 0 0 1 2504.9502 1404.208)"><tspan x="0" y="0" class="st1" style="font-family:'Montserrat-BoldItalic'; font-size:12px;">TEXTO OPCIONAL PARA SER SUSTITUIDO</tspan><tspan x="0" y="14.4" class="st1" style="font-family:'Montserrat-BoldItalic'; font-size:12px;"> POR EL NOMBRE REAL DEL PROYECTO,</tspan></text>
</g>
<g>
	<g>
		<path class="st2" d="M319.6,348.7l-0.9-1.2c1.5-1.6,2.3-3.1,2.5-4.7c0.2-1.5-0.1-3.9-0.9-7l-13.8-50.3l1.2-1l45.4,25.3
			c3.1,1.7,5.3,2.6,6.7,2.8s3.1-0.6,5.1-2.1l0.9,1.2L348,325.9l-0.9-1.2c1.9-1.8,3-3.2,3.1-4.2c0.2-1,0-1.9-0.7-2.8
			c-0.8-1-2.6-2.3-5.3-3.9l-31.1-17.4l9.4,34.2c0.9,3.2,1.7,5.3,2.6,6.4c0.7,0.9,1.6,1.4,2.6,1.5c1,0.1,2.5-0.6,4.4-1.9l0.9,1.2
			L319.6,348.7z"/>
		<path class="st2" d="M403.2,231.4l5.6,12l-1.4,0.6c-1.2-2-2.2-3.4-3-4.1c-1.4-1.2-2.9-1.8-4.5-1.9c-1.6-0.1-3.4,0.2-5.5,1.2
			l-7.2,3.1l16.5,40c1.3,3.2,2.5,5.1,3.5,5.6c1.4,0.7,3.1,0.6,5.1-0.3l1.8-0.8l0.6,1.4l-21.6,9.4l-0.6-1.4l1.8-0.8
			c2.2-0.9,3.4-2.3,3.8-4c0.2-1.1-0.3-3.1-1.5-6l-16.5-40l-6.1,2.7c-2.4,1-4,2-4.9,2.7c-1.1,1.1-1.8,2.5-2.2,4.3
			c-0.4,1.8-0.1,3.9,0.7,6.4l-1.4,0.6l-4.5-12.5L403.2,231.4z"/>
		<path class="st2" d="M453.6,223.1l2.5,22.3l12.1-1.4c3.1-0.4,5.2-1.1,6.1-2.2c1.3-1.4,1.8-3.8,1.6-7l1.5-0.2l2.2,19.7l-1.5,0.2
			c-0.7-2.7-1.3-4.4-1.7-5.2c-0.6-0.9-1.5-1.6-2.7-2c-1.2-0.4-2.9-0.5-5.2-0.2l-12.1,1.4l2.1,18.6c0.3,2.5,0.6,4,0.8,4.5
			c0.3,0.5,0.7,0.9,1.3,1.2c0.6,0.3,1.6,0.3,3.1,0.1l9.3-1.1c3.1-0.4,5.3-0.9,6.7-1.5c1.4-0.6,2.6-1.6,3.8-3.1
			c1.5-1.9,2.9-4.7,4.3-8.4l1.6-0.2l-3.2,14.7l-42.4,5l-0.2-1.5l1.9-0.2c1.3-0.2,2.5-0.6,3.6-1.4c0.8-0.5,1.3-1.3,1.5-2.2
			c0.2-0.9,0.2-2.8-0.1-5.5l-4.1-36.7c-0.4-3.6-1-5.7-1.8-6.5c-1.1-1-2.8-1.4-5.1-1.1l-1.9,0.2l-0.2-1.5l42.4-5l2,12.3l-1.6,0.2
			c-0.9-2.9-1.8-4.9-2.6-5.9c-0.8-1-1.9-1.8-3.3-2.2c-1.1-0.3-3.1-0.3-5.8,0L453.6,223.1z"/>
		<path class="st2" d="M517.7,216.6l14.8,2.9l25.4,48.4l6.1-32.2c0.6-3.4,0.7-5.6,0.1-6.6c-0.8-1.4-2.2-2.2-4.4-2.7l-1.9-0.4
			l0.3-1.5l18.9,3.8l-0.3,1.5l-1.9-0.4c-2.3-0.5-4.1-0.1-5.3,1.2c-0.8,0.8-1.4,2.7-2,5.8l-8.9,47l-1.4-0.3l-27.4-52l-6.5,34.4
			c-0.6,3.4-0.7,5.6-0.1,6.6c0.8,1.4,2.3,2.2,4.4,2.7l1.9,0.4l-0.3,1.5l-18.9-3.8l0.3-1.5l1.9,0.4c2.3,0.5,4.1,0.1,5.3-1.2
			c0.8-0.8,1.4-2.7,2-5.8L527,226c-1.2-2.2-2.2-3.7-2.9-4.5c-0.7-0.8-1.8-1.6-3.3-2.4c-0.7-0.4-1.9-0.8-3.5-1.1L517.7,216.6z"/>
		<path class="st2" d="M620.6,249.5l-9.3,20.3l11,5.3c2.9,1.4,5,1.9,6.3,1.4c1.8-0.5,3.5-2.2,5-5.1l1.4,0.7l-8.2,17.9l-1.4-0.7
			c0.8-2.7,1.2-4.4,1.2-5.3c0-1.1-0.4-2.1-1.2-3.1c-0.8-1-2.2-2-4.3-3l-11-5.3l-7.8,16.9c-1,2.3-1.6,3.7-1.6,4.3
			c0,0.6,0.1,1.1,0.5,1.7c0.4,0.5,1.2,1.1,2.6,1.8l8.5,4.1c2.8,1.4,5,2.2,6.4,2.4c1.5,0.2,3.1,0,4.8-0.6c2.2-0.8,4.9-2.4,7.9-4.8
			l1.5,0.7l-10.2,10.8L584,291.2l0.6-1.4l1.8,0.9c1.2,0.6,2.4,0.8,3.8,0.8c1,0,1.8-0.4,2.4-1c0.7-0.7,1.6-2.3,2.7-4.8l15.3-33.4
			c1.5-3.3,2.1-5.4,1.8-6.5c-0.4-1.4-1.7-2.7-3.7-3.7l-1.8-0.9l0.6-1.4l38.6,18.7l-4.6,11.5l-1.4-0.7c0.7-3,1-5.1,0.8-6.4
			c-0.2-1.3-0.7-2.5-1.7-3.7c-0.8-0.9-2.5-1.9-4.9-3.1L620.6,249.5z"/>
		<path class="st2" d="M685,329l-17.4-12.8l-8.1,5c-2,1.2-3.3,2.3-3.9,3.2c-0.5,0.7-0.6,1.6-0.3,2.6c0.3,1,1.4,2.4,3.5,4.2l-0.9,1.3
			l-14.2-10.4l0.9-1.3c2.1,1,3.6,1.5,4.6,1.4c1.9-0.3,4.7-1.6,8.4-3.9l42.4-26.3l1.2,0.9l-11.2,49.9c-0.9,4-1.2,6.9-0.8,8.5
			c0.4,1.7,1.5,3.2,3.2,4.7l-0.9,1.3L673.7,344l0.9-1.3c1.9,1.2,3.3,1.8,4.3,1.8c1-0.1,1.8-0.5,2.3-1.2c0.7-1,1.4-2.9,2-5.7L685,329
			z M685.9,325.8l5.4-24.3l-20.9,12.9L685.9,325.8z"/>
	</g>
	<g id="IdvKTg.tif_00000097472927475495215290000012697608745300182664_">
		<g>
			<path class="st3" d="M866.6,417.2c-8-58.6-27.8-112.8-60.6-161.4c-54.6-81-128.7-133.5-222.2-156.1c-18.2-4.4-37.1-5.6-55.7-8.3
				c-1.8-0.3-3.7-0.6-5.5-1h-44.1c-1.5,0.3-3,0.8-4.5,0.9c-47.9,2.6-93.2,15.4-136.3,37.1c-145,73.1-221.9,230.3-204.7,384.9
				c8.6,77.2,37.4,145.9,87.9,203.6c2.9,3.3,5.7,6.5,8.7,9.6c8.8-7,19.5-11.3,30.6-11.7c4.8-5.1,9.6-10.3,14.5-15.5
				c1.3-1.4,2.6-2.8,4-4.3c-10.7-12.8-21.2-25.4-31.9-38.3c-4.2,3.2-8.6,6.3-12.8,9.6c-5.4,4.3-5.4,5.2,0,11.1c4.2-3,8.4-6,13.2-9.5
				c6.2,7.7,12.2,15.3,18.3,22.8c2,2.4,1.6,4.4-0.6,6.3c-8.9,7.7-17.7,15.4-26.6,23c-2.3,2-4.3,1.5-6.2-0.8
				c-3.9-4.7-8.1-9.1-11.6-14c-10.7-15-21-30.3-31.6-45.4c-2.6-3.7-2.1-5.9,1.9-8.3c10.4-6,20.7-12.3,30.8-18.8
				c8.5-5.5,7.5-3.8,3.7-12.4c-4.8-10.9-9.6-21.7-14.8-32.4c-0.8-1.6-3.8-3.3-5.4-3c-4.8,1-9.6,2.6-14,4.8c-1.5,0.7-1.8,3.8-2.6,5.8
				c2,0.7,3.9,1.5,5.9,2.2c0.3,0.1,0.6-0.2,1-0.3c10.6-3.6,10.6-3.6,15.3,7c2,4.6,3.7,9.4,5.8,14c1.8,4,1.3,6.6-2.8,8.7
				c-8.8,4.6-17.4,9.7-26.1,14.5c-6.5,3.5-6.8,3.6-9.7-3.2c-6.7-15.8-13.1-31.6-19.4-47.5c-2.4-6.2-4.4-12.5-6.4-18.9
				c-2-6.4-1.8-7,4.5-9c11.7-3.7,23.6-7,35.4-10.5c1.9-0.6,3.8-1.3,6.2-2.2c-2.8-15.5-5.4-30.3-8.1-45.1c-0.5-2.6-1.4-4.3-4.9-3.6
				c-4.3,0.9-8.8,0.9-13.3,1c-4.7,0.1-4.4,3.3-4.4,6.5c0,3.8,2.5,3.6,4.9,3.3c3.5-0.5,7.1-1,11.5-1.6c1.6,10.3,3.2,20.5,4.6,30.6
				c0.1,1-1.6,3.1-2.8,3.4c-11.5,2.7-23,5.1-34.5,7.7c-3.4,0.8-4.6-0.8-5-4c-2.7-22.1-5.5-44.2-8.1-66.3c-0.5-4.5-0.5-9-0.8-14h49.8
				c1.7-17.1,3.4-33.7,5.2-51.2c-6.6-0.6-13-1.4-19.4-1.6c-1.4,0-3.5,2.1-4,3.7c-0.3,1,1.5,3.4,2.9,4c2.1,0.9,4.6,1.2,7,1.2
				c3.8,0,5.3,1.9,5.1,5.6c-0.7,9.4-1.5,18.8-2.3,28.8c-2.7,0-5,0.1-7.4,0c-10.4-0.4-20.8-0.9-31.3-1.4c-3-0.1-5.5-1-4.9-5
				c3.6-25.1,7.1-50.3,10.7-75.4c0.7-4.9,4.2-3.9,7-3.2c10.3,2.4,20.6,5.1,30.9,7.7c4.1,1,8.2,1.9,12.6,3c5-14.6,9.9-28.6,14.5-42.7
				c0.4-1.3-0.9-4.2-2.2-5c-4.2-2.7-8.7-4.9-13.1-7.1c-3.5-1.8-4.9,0.8-6.1,3.5c-1.5,3.3,0.9,3.9,3,4.7c3.4,1.2,6.7,2.5,10.8,4.1
				c-2.5,7.6-5,15-7.5,22.4c-3.4,10.1-3.4,10.1-13.4,7.2c-10.5-3.1-21-6.4-31.4-9.6c-0.3-0.1-0.5-0.4-0.9-0.8
				c8.4-25.4,18.4-50.1,31-73.7c2.1-4,4.6-4.3,8.3-2c10.8,6.5,21.7,12.6,32.5,19.1c3.6,2.2,6,2.1,8.5-1.7c7.2-11.1,14.6-22,22-33
				c1.7-2.5,1.6-4.6-0.7-6.4c-3.8-3-7.4-6.3-11.5-8.8c-1.3-0.8-3.8,0.4-5.8,0.6c0.4,1.8,0.1,4.1,1.2,5.3c2.5,3,5.6,5.6,8.9,8.8
				c-5.7,8-11.2,16-17,23.8c-0.8,1-3.6,1.6-4.6,1c-10.1-6.2-20-12.8-30-19.3c-2.9-1.9-2.1-4.1-0.6-6.2c7.4-10.8,14.4-21.8,22.3-32.1
				c8.4-10.8,17.6-20.9,26.9-31.7c12.7,12.6,24.7,24.5,36.4,36.2c12.6-11.2,24.6-21.8,37.1-32.8c-3.7-4.9-7-10-11-14.5
				c-1.3-1.4-4.8-2.2-6.5-1.4c-3.3,1.5-1.6,4.4-0.2,6.6c2,3.1,4.2,6,6.6,9.4c-8.1,7.3-16.1,14.6-24.5,22.1c-10-11-19.8-21.7-30.1-33
				c20.8-19.2,42.4-36.6,67.3-51c8.6,14.8,17,29.2,25.7,44c14.6-7.2,29-14.3,44.4-21.8c-2.5-6.3-4.7-12.4-7.3-18.4
				c-1.4-3.3-4.4-2.7-6.5-1.1c-1.1,0.8-1.8,3.5-1.4,5c1,4,2.7,7.9,4.4,12.6c-8.9,4.1-17.4,8.1-26,11.8c-1,0.4-3.4-0.7-3.9-1.7
				c-5.9-10.5-11.5-21.1-17.3-31.6c-1.9-3.5-0.1-5.3,2.7-6.6c12.3-5.7,24.5-11.6,36.9-17c8.7-3.7,17.6-6.8,26.5-9.8
				c7.6-2.6,10.2-1,12.4,6.9c2.9,10.8,5.5,21.7,8.5,32.5c1.9,6.9,2.7,7.3,9.4,6.1c13.5-2.4,26.9-4.8,41.4-7.4
				c-0.8-6.9-1.4-13.7-2.5-20.3c-0.2-1.1-2.7-3-3.4-2.7c-1.6,0.6-3.7,2.3-3.8,3.8c-0.5,4.5-0.2,9-0.2,13.7
				c-9.6,1.9-18.8,3.8-28.1,5.3c-1.1,0.2-3.3-1.4-3.5-2.5c-3.2-12.4-6.1-24.8-9-37.2c-0.9-4.2,2.7-4.5,5.2-5
				c9.9-1.8,19.8-3.8,29.8-4.9c13.1-1.5,26.2-2.2,39.3-3.3c4.9-0.4,7.6,1.2,7.8,6.9c0.3,10.2,1.1,20.3,1.5,30.5
				c0.2,4.5,0,9.1,0,14.2c7.9,0.6,15,1,22.1,1.7c7.1,0.6,14.3,1.2,21.4,2.2c3.1,0.4,4.5-0.7,5.1-3.6c0.9-5,2.1-10,2.6-15
				c0.2-1.7-0.9-4.7-2.1-5.1c-2.9-1-5.9-0.3-6.8,3.6c-0.8,3.7-1.4,7.5-2.2,11.9c-10.7-0.9-21.1-1.8-32.4-2.8
				c0.7-14.8,1.4-28.9,2.1-43.9c6.7,0.4,13,0.3,19.1,1.3c19.4,2.9,38.8,6.3,58.2,9.4c4.4,0.7,5.8,2.5,4.4,7.4
				c-3.6,12.6-6.6,25.4-9.8,38.1c-0.5,1.8-0.8,3.7-1.3,6.4c15.5,5.2,30.8,10.4,46.7,15.8c2.7-6.4,5-12.2,7.5-17.9
				c1.5-3.3-1.2-4.2-3-4.8c-1.3-0.5-3.2,0.4-4.7,0.9c-0.4,0.2-0.6,1.2-0.9,1.8c-5,10.8-5.1,10.9-16.2,6.9c-5.2-1.9-10.2-4-15.4-5.8
				c-2.6-0.9-3.7-2.3-2.8-5.1c3.7-11.9,7.3-23.7,10.9-35.6c1.1-3.8,3.4-3.2,6-2.1c17.5,7.5,35,14.9,52.4,22.6
				c6.4,2.8,12.5,6.4,19.2,10c-1.8,3.6-3.3,6.6-4.9,9.7c-5.5,10.3-11,20.6-16.6,30.8c-2,3.6-1.4,5.5,2.1,7.9
				c11.8,8,23.3,16.6,35.6,25.3c3.8-5,8-10.2,11.7-15.8c0.8-1.2-0.3-4.7-1.6-5.9c-0.8-0.8-4.2-0.3-5.4,0.8c-3.1,2.9-5.6,6.5-8.5,10
				c-8.8-6.6-17.3-13.1-26.2-19.9c7.6-12.3,15-24.5,22.8-37c2.1,1.2,3.7,2.1,5.2,3.1c20.2,13.4,38.7,28.9,56.1,45.8
				c3.3,3.2,3.7,5.5,0.4,9c-9.9,10.4-19.6,21-29.8,32c3.4,4.2,6.9,8.4,10.3,12.6c5.8,7.2,11.5,14.3,17.2,21.6c2.5,3.2,5,3.6,8.2,1
				c3.3-2.8,6.8-5.3,10.2-7.9c2.2-1.8,2.7-3.8,0.8-6.3c-2-2.7-3.8-2-6.1-0.5c-9.8,6.5-9.8,6.4-17.4-2.5c-3.3-3.8-6.4-7.9-10-11.3
				c-2.6-2.4-2.6-4.3-0.5-6.6c4.2-4.6,8.4-9.2,12.8-13.6c5-5,10.1-9.9,15.7-15.3c19.9,21.1,35.9,44.7,50.8,69.8
				c-14.6,8.4-29,16.7-43.8,25.3c1.1,2.5,2.2,4.8,3.2,7.1c5.2,11.2,10.5,22.4,15.5,33.8c1.4,3.1,3.2,4.6,6.3,3.5
				c4.8-1.7,9.6-3.7,14.3-5.8c3-1.3,3.5-4.2,1.8-6.5c-0.9-1.2-3.7-1.9-5.3-1.4c-10.9,3.4-11,3.6-16.2-6.8c-3.1-6-5.8-12.3-8.9-18.7
				c1.5-1.1,2.6-2.2,3.9-2.9c10.3-5.2,20.6-10.2,30.9-15.4c2.8-1.4,4.6-1.1,6.1,2.1c10.2,22.4,19.6,45.2,26,69.1
				c1.2,4.3,0.1,6.7-4.5,8c-12,3.4-23.9,7.4-35.8,11c-4.4,1.3-5.8,3.2-4.6,8.3c2.8,11.9,4.9,24,7,36.1c0.7,4.1,2.5,5.9,6.5,5.6
				c3.6-0.2,7.3,0.3,10.7-0.6c2.2-0.6,4.6-2.9,5.5-5c1.2-3.1-0.3-5.4-4.2-4.9c-3.9,0.5-7.7,0.7-12.3,1.2c-1.4-10.1-2.9-19.6-4-29.1
				c-0.1-1.4,1.7-4,3-4.3c11.3-2.8,22.6-5.3,34-7.9c3.8-0.9,4.3,1.8,4.7,4.5c2.3,15.3,4.8,30.5,6.6,45.8c1.3,11.3,1.8,22.7,2.7,34.6
				h-50.2c-1.5,17-3,33.5-4.6,50.9c6.8,0.7,13.3,1.7,19.9,1.8c1.2,0,2.9-3.2,3.5-5.2c0.3-0.8-1.6-2.4-2.6-3.5
				c-0.3-0.3-1-0.3-1.5-0.4c-10.8-2.2-10.8-2.2-10.3-13.7c0.3-6.5,0.8-12.9,1.3-19.2c0.5-0.4,0.7-0.8,1-0.8
				c12.3,0.1,24.6,0.4,36.9,0.4c4.6,0,5.9,2.2,5.4,6.5c-2.3,18.4-4.5,36.9-7,55.3c-0.8,5.7-2.4,11.3-3.4,17
				c-0.7,4.2-2.8,5.5-6.8,4.5c-11.8-3-23.6-5.8-35.4-8.7c-8.3-2-8.6-1.6-11.2,6.5c-3.2,10-6.7,19.9-10.1,29.8
				c-2.9,8.6-2.2,10.2,5.9,13.5c2.9,1.2,5.7,2.7,8.7,3c1.8,0.2,4-1.5,5.4-3.1c0.4-0.5-1.3-3.2-2.4-4.7c-0.5-0.7-1.8-0.9-2.7-1.3
				c-8.6-3.9-8.7-3.9-5.5-12.8c2.2-6.1,4.7-12,7.1-18c1-2.5,2.6-3.9,5.6-2.9c10.3,3.2,20.6,6.3,30.9,9.4c4.2,1.3,5.6,3.7,4.1,8.3
				c-8.1,23.5-17.7,46.3-29.4,68.2c-1.9,3.6-3.9,3.6-6.9,1.8c-9.5-5.6-19-11-28.6-16.5c-3.4-2-6.9-3.9-10.8-6.1
				c-1.7,2.5-3.4,4.8-5,7.2c-6.5,9.7-12.8,19.5-19.5,29c-2.3,3.3-2,5.7,0.8,8.1c2.7,2.4,5.4,4.9,8.2,7.1c5,3.9,7,3.3,10.6-3.1
				c-2.5-1.9-5-3.9-7.6-5.8c-3.5-2.4-4.2-5.3-1.7-8.9c4.3-6.3,8.6-12.7,13.1-18.8c0.8-1.1,3.2-2.2,4-1.8
				c11.9,6.7,23.6,13.8,35.2,20.6c-3.5,8.5-23.5,36.1-38.1,53.7c3,0,6.1,0,9.1,0c47.6-55.8,76.6-121,87.5-195.4
				c1.3-9.1,1.9-18.4,2.9-27.6v-50.6C868.4,435.3,867.8,426.2,866.6,417.2z"/>
			<path d="M720.4,697.1c-6.4,5.6-12.8,11.2-19.3,16.9c3,0.4,6.1,0.9,9.1,1.4c3-2.6,5.9-5.3,9-8c3.4,3.9,6.8,7.8,10.2,11.7
				c4.3-0.2,8.7-0.4,13.1-0.5C735.1,711.4,727.8,704.3,720.4,697.1z"/>
			<path d="M726,719.2c1.1-0.1,2.3-0.1,3.4-0.2c-3.4-3.9-6.8-7.8-10.2-11.7c-3.1,2.7-6,5.4-9,8c2.6,0.4,5.2,0.9,7.8,1.4
				C720.7,717.2,723.4,718.1,726,719.2z"/>
			<path class="st4" d="M857.1,480.8c-12.3,0-24.6-0.3-36.9-0.4c-0.3,0-0.5,0.4-1,0.8c-0.4,6.3-1,12.7-1.3,19.2
				c-0.5,11.5-0.5,11.5,10.3,13.7c0.5,0.1,1.2,0,1.5,0.4c1,1.1,2.9,2.7,2.6,3.5c-0.7,2-2.3,5.2-3.5,5.2c-6.6-0.1-13.1-1.1-19.9-1.8
				c1.6-17.4,3.1-33.9,4.6-50.9h50.2c-0.9-11.9-1.4-23.3-2.7-34.6c-1.8-15.3-4.3-30.5-6.6-45.8c-0.4-2.6-0.9-5.4-4.7-4.5
				c-11.3,2.6-22.7,5-34,7.9c-1.3,0.3-3.1,3-3,4.3c1,9.5,2.5,19,4,29.1c4.5-0.4,8.4-0.7,12.3-1.2c3.9-0.5,5.4,1.8,4.2,4.9
				c-0.8,2.1-3.3,4.4-5.5,5c-3.4,0.9-7.1,0.4-10.7,0.6c-4,0.3-5.8-1.6-6.5-5.6c-2.1-12.1-4.2-24.2-7-36.1c-1.2-5,0.3-7,4.6-8.3
				c12-3.6,23.8-7.6,35.8-11c4.6-1.3,5.7-3.6,4.5-8c-6.4-23.9-15.8-46.7-26-69.1c-1.4-3.1-3.3-3.5-6.1-2.1
				c-10.3,5.2-20.6,10.2-30.9,15.4c-1.3,0.7-2.4,1.8-3.9,2.9c3.1,6.5,5.8,12.7,8.9,18.7c5.2,10.3,5.3,10.2,16.2,6.8
				c1.5-0.5,4.4,0.2,5.3,1.4c1.8,2.3,1.2,5.2-1.8,6.5c-4.7,2.1-9.4,4.1-14.3,5.8c-3.1,1.1-4.9-0.4-6.3-3.5
				c-5-11.3-10.3-22.5-15.5-33.8c-1.1-2.3-2.1-4.6-3.2-7.1c14.8-8.5,29.2-16.9,43.8-25.3c-14.9-25.1-30.9-48.7-50.8-69.8
				c-5.5,5.4-10.7,10.2-15.7,15.3c-4.4,4.4-8.6,9-12.8,13.6c-2.1,2.3-2.1,4.2,0.5,6.6c3.6,3.4,6.7,7.5,10,11.3
				c7.6,8.9,7.6,9,17.4,2.5c2.3-1.5,4.1-2.2,6.1,0.5c1.8,2.5,1.4,4.6-0.8,6.3c-3.4,2.7-6.9,5.2-10.2,7.9c-3.2,2.7-5.7,2.3-8.2-1
				c-5.7-7.3-11.4-14.4-17.2-21.6c-3.4-4.3-6.9-8.5-10.3-12.6c10.2-11,19.9-21.7,29.8-32c3.3-3.5,2.9-5.8-0.4-9
				c-17.4-16.9-35.9-32.5-56.1-45.8c-1.5-1-3.1-1.9-5.2-3.1c-7.7,12.6-15.2,24.7-22.8,37c8.9,6.8,17.4,13.2,26.2,19.9
				c2.9-3.5,5.4-7.1,8.5-10c1.2-1.1,4.6-1.7,5.4-0.8c1.3,1.3,2.4,4.7,1.6,5.9c-3.6,5.6-7.9,10.8-11.7,15.8
				c-12.2-8.8-23.7-17.3-35.6-25.3c-3.5-2.4-4.1-4.4-2.1-7.9c5.6-10.2,11.1-20.5,16.6-30.8c1.6-3,3.1-6.1,4.9-9.7
				c-6.8-3.5-12.8-7.1-19.2-10c-17.4-7.7-34.9-15.1-52.4-22.6c-2.6-1.1-4.9-1.7-6,2.1c-3.6,11.9-7.2,23.7-10.9,35.6
				c-0.9,2.8,0.3,4.2,2.8,5.1c5.2,1.8,10.2,4,15.4,5.8c11.1,4,11.1,4,16.2-6.9c0.3-0.6,0.5-1.7,0.9-1.8c1.5-0.5,3.4-1.4,4.7-0.9
				c1.8,0.6,4.5,1.4,3,4.8c-2.5,5.7-4.8,11.5-7.5,17.9c-15.9-5.4-31.2-10.6-46.7-15.8c0.5-2.7,0.9-4.5,1.3-6.4
				c3.2-12.7,6.2-25.5,9.8-38.1c1.4-4.9,0-6.7-4.4-7.4c-19.4-3.1-38.7-6.5-58.2-9.4c-6.2-0.9-12.5-0.9-19.1-1.3
				c-0.7,15-1.4,29.1-2.1,43.9c11.2,1,21.7,1.9,32.4,2.8c0.8-4.4,1.4-8.2,2.2-11.9c0.8-3.8,3.9-4.5,6.8-3.6c1.2,0.4,2.3,3.4,2.1,5.1
				c-0.5,5-1.6,10-2.6,15c-0.5,2.9-2,4-5.1,3.6c-7.1-1-14.3-1.6-21.4-2.2c-7.1-0.6-14.2-1.1-22.1-1.7c0-5.1,0.2-9.6,0-14.2
				c-0.4-10.2-1.3-20.3-1.5-30.5c-0.1-5.7-2.9-7.3-7.8-6.9c-13.1,1.1-26.3,1.8-39.3,3.3c-10,1.1-19.9,3.1-29.8,4.9
				c-2.5,0.5-6.1,0.8-5.2,5c2.8,12.4,5.8,24.8,9,37.2c0.3,1.1,2.5,2.6,3.5,2.5c9.2-1.5,18.4-3.4,28.1-5.3c0-4.6-0.3-9.2,0.2-13.7
				c0.2-1.5,2.2-3.2,3.8-3.8c0.7-0.3,3.2,1.6,3.4,2.7c1.1,6.6,1.7,13.4,2.5,20.3c-14.4,2.6-27.9,5.1-41.4,7.4
				c-6.6,1.2-7.5,0.8-9.4-6.1c-3-10.8-5.6-21.7-8.5-32.5c-2.1-7.9-4.7-9.5-12.4-6.9c-8.9,3-17.8,6.1-26.5,9.8
				c-12.4,5.3-24.6,11.2-36.9,17c-2.7,1.3-4.6,3.1-2.7,6.6c5.8,10.5,11.4,21.2,17.3,31.6c0.6,1.1,3,2.1,3.9,1.7
				c8.6-3.7,17.1-7.7,26-11.8c-1.7-4.7-3.4-8.5-4.4-12.6c-0.4-1.5,0.3-4.1,1.4-5c2.1-1.6,5.1-2.2,6.5,1.1c2.6,6,4.8,12.1,7.3,18.4
				c-15.3,7.5-29.8,14.6-44.4,21.8c-8.6-14.8-17-29.2-25.7-44c-24.9,14.4-46.5,31.8-67.3,51c10.3,11.3,20.1,22,30.1,33
				c8.4-7.6,16.4-14.8,24.5-22.1c-2.4-3.5-4.6-6.4-6.6-9.4c-1.4-2.2-3.1-5.2,0.2-6.6c1.7-0.8,5.2,0,6.5,1.4c4,4.5,7.4,9.5,11,14.5
				c-12.4,11-24.4,21.6-37.1,32.8c-11.8-11.7-23.7-23.6-36.4-36.2c-9.2,10.8-18.5,20.8-26.9,31.7c-7.9,10.3-14.9,21.4-22.3,32.1
				c-1.5,2.2-2.3,4.4,0.6,6.2c10,6.4,19.9,13,30,19.3c1,0.6,3.9,0,4.6-1c5.8-7.7,11.3-15.7,17-23.8c-3.3-3.2-6.4-5.8-8.9-8.8
				c-1-1.2-0.8-3.5-1.2-5.3c2-0.3,4.4-1.5,5.8-0.6c4.1,2.5,7.7,5.7,11.5,8.8c2.3,1.8,2.4,3.9,0.7,6.4c-7.4,10.9-14.8,21.9-22,33
				c-2.5,3.8-4.8,3.9-8.5,1.7c-10.8-6.5-21.7-12.6-32.5-19.1c-3.7-2.2-6.2-2-8.3,2c-12.5,23.6-22.6,48.3-31,73.7
				c0.4,0.4,0.6,0.7,0.9,0.8c10.5,3.2,20.9,6.5,31.4,9.6c10,3,10,2.9,13.4-7.2c2.5-7.4,4.9-14.8,7.5-22.4c-4.1-1.5-7.4-2.8-10.8-4.1
				c-2.2-0.8-4.5-1.4-3-4.7c1.2-2.7,2.6-5.3,6.1-3.5c4.4,2.2,9,4.4,13.1,7.1c1.3,0.8,2.6,3.7,2.2,5c-4.6,14.1-9.5,28.1-14.5,42.7
				c-4.4-1-8.5-2-12.6-3c-10.3-2.6-20.6-5.2-30.9-7.7c-2.9-0.7-6.3-1.7-7,3.2c-3.5,25.1-7.1,50.3-10.7,75.4c-0.6,4,1.9,4.8,4.9,5
				c10.4,0.5,20.8,1,31.3,1.4c2.3,0.1,4.7,0,7.4,0c0.8-10,1.6-19.4,2.3-28.8c0.3-3.6-1.3-5.5-5.1-5.6c-2.4,0-4.9-0.3-7-1.2
				c-1.4-0.6-3.2-3-2.9-4c0.4-1.5,2.6-3.7,4-3.7c6.4,0.2,12.8,1,19.4,1.6c-1.8,17.5-3.5,34.2-5.2,51.2h-49.8c0.3,5,0.2,9.5,0.8,14
				c2.6,22.1,5.4,44.2,8.1,66.3c0.4,3.2,1.6,4.8,5,4c11.5-2.6,23.1-5,34.5-7.7c1.2-0.3,2.9-2.4,2.8-3.4c-1.3-10.2-3-20.3-4.6-30.6
				c-4.4,0.6-8,1.1-11.5,1.6c-2.5,0.3-4.9,0.6-4.9-3.3c0-3.3-0.3-6.5,4.4-6.5c4.4-0.1,8.9-0.2,13.3-1c3.4-0.7,4.4,1,4.9,3.6
				c2.7,14.8,5.3,29.6,8.1,45.1c-2.3,0.8-4.2,1.6-6.2,2.2c-11.8,3.5-23.7,6.8-35.4,10.5c-6.3,2-6.5,2.7-4.5,9
				c2,6.3,3.9,12.7,6.4,18.9c6.3,15.9,12.8,31.7,19.4,47.5c2.9,6.8,3.2,6.8,9.7,3.2c8.7-4.8,17.3-9.9,26.1-14.5
				c4.2-2.2,4.7-4.7,2.8-8.7c-2.1-4.6-3.8-9.4-5.8-14c-4.7-10.6-4.7-10.6-15.3-7c-0.3,0.1-0.7,0.4-1,0.3c-2-0.7-3.9-1.4-5.9-2.2
				c0.8-2,1.2-5.1,2.6-5.8c4.4-2.2,9.2-3.8,14-4.8c1.6-0.3,4.6,1.4,5.4,3c5.2,10.7,10,21.5,14.8,32.4c3.8,8.6,4.9,6.9-3.7,12.4
				c-10.1,6.6-20.4,12.8-30.8,18.8c-4,2.3-4.4,4.6-1.9,8.3c10.6,15.1,20.9,30.3,31.6,45.4c3.5,4.9,7.7,9.3,11.6,14
				c1.9,2.2,3.9,2.8,6.2,0.8c8.9-7.7,17.8-15.3,26.6-23c2.2-1.9,2.5-3.9,0.6-6.3c-6.1-7.5-12.1-15.1-18.3-22.8
				c-4.7,3.4-9,6.5-13.2,9.5c-5.4-5.9-5.4-6.8,0-11.1c4.2-3.3,8.5-6.4,12.8-9.6c10.7,12.9,21.3,25.5,31.9,38.3
				c-1.4,1.5-2.7,2.9-4,4.3c-4.8,5.1-9.6,10.3-14.5,15.5c0.5,0,1-0.1,1.6-0.1c2.7,0,5.4,0,8.1,0c2.2,0,4.4,0,6.7,0
				c3.5-3.8,6.9-7.6,10.3-11.4c6.5-7.4,6.7-5.4,0.3-13.4c-12.1-15-24.2-30-36.3-45c-0.8-0.9-1.5-1.9-2.6-3.2
				c-11.4,7.9-22.7,15.6-34.9,24c6.7,9.3,13.3,18.3,20.1,27.7c3.6-2.5,6.6-4.5,9.5-6.6c2.6-1.9,5-1.8,7.3,0.8
				c2.3,2.6,1.5,4.9-0.6,6.9c-4.7,4.5-9.5,8.9-15.2,14.2c-10.6-15.4-20.5-30-30.6-44.6c-2.3-3.3-0.2-4.8,2.1-6.2
				c10.5-6.8,21.1-13.6,31.7-20.4c1.7-1.1,3.4-2.2,5.4-3.5c-0.6-1.5-1.1-2.7-1.7-3.9c-8.5-18-17.2-35.8-25.5-53.9
				c-2.2-4.9-4.7-6.5-9.8-4.5c-9.2,3.7-18.6,7-27.9,10.3c-2.8,1-3.7,2.5-2.5,5.6c3,7.7,5.7,15.4,8.5,23.1c1.1,3.2,3.1,3.9,6,2.6
				c2.4-1,4.7-2.4,7.2-2.8c1.8-0.3,4.8,0.3,5.4,1.5c0.8,1.8,0.8,5.7-0.3,6.4c-5.2,3.5-10.9,6.4-16.6,9.1c-0.6,0.3-2.8-1.1-3.3-2.2
				c-5.7-14.4-11.3-29-16.8-43.4c-1.8-4.6,0-7.4,4.3-8.9c9.4-3.1,18.9-6.1,28.3-9.3c10.1-3.4,11.2-5.3,9.3-16.2
				c-3.4-19.1-6.8-38.3-10.4-58.4c-12.8,0.9-26.5,1.9-41.3,3c1.3,11.8,2.5,23,3.8,34.7c4.7-0.6,8.6-1,12.5-1.6c4-0.7,4.9,2,5.7,5.1
				c0.9,3.4-1,4.3-3.6,4.8c-5,1-10,2-15.1,2.9c-3.3,0.6-5.2-0.8-5.7-4.3c-2.2-16.8-4.5-33.7-6.8-51.2c6.7-0.5,12.6-0.9,18.5-1.3
				c9.2-0.6,18.4-1.5,27.6-1.9c4.3-0.2,5.5-2.2,5.6-6.2c0.6-14.5,1.3-29.1,2.2-43.6c0.3-5.6,1.4-11.2,1.5-16.8c0-1.7-1.4-4.7-2.7-5
				c-11.9-2.9-24-5.3-37.1-8.1c-1.5,10.9-3,20.8-4.1,30.8c-0.5,4.2,2.8,5,6.1,5.4c3.5,0.4,8.8-1.4,8.5,5.2c-0.3,6.8-5.7,4-9.1,4.3
				c-4.7,0.5-9.5,0.1-14.9,0.1c0.4-19.7,4.5-38.3,7.5-57.9c5.4,1.1,10.3,2.1,15.2,3.2c9.3,2.1,18.7,4.1,28,6.5
				c4,1.1,5.6-0.4,6.9-3.8c6.9-19.4,13.9-38.8,20.5-58.3c0.5-1.5-0.7-4.7-2.1-5.5c-11-5.9-22.2-11.5-34.2-17.6
				c-4.1,10.3-8,19.6-11.5,29.1c-0.4,0.9,1,3.2,2.1,3.9c2.4,1.6,5.4,2.4,7.7,4.1c1.5,1.1,3.5,3.4,3.3,4.7c-0.5,2.8-2.4,6-6,5
				c-5.6-1.6-11.1-3.5-16.4-5.9c-1.1-0.5-1.7-4.2-1.1-5.8c3.8-10.7,7.8-21.3,12.1-31.8c2.2-5.3,5-10.3,7.9-16.2
				c14.7,7.7,29,15.3,43.7,23c1.2-1.6,2.2-3,3.2-4.4c11.2-16.5,22.4-33.1,33.8-49.6c1.6-2.3,2.5-4.2,0.2-6.4
				c-9.3-8.7-18.7-17.2-29-26.7c-6.8,9.1-12.9,17-18.7,25.2c-0.6,0.9,0.2,3.6,1.2,4.7c2,2.1,4.9,3.3,6.7,5.6
				c1.1,1.4,1.5,4.5,0.6,5.9c-0.9,1.4-4.2,2.8-5.4,2.2c-5.4-2.9-10.6-6.3-15.5-10c-0.8-0.6-0.4-4.3,0.6-5.7
				c7.7-10.7,15.7-21.3,23.6-31.8c2.5-3.3,5.2-6.4,8-9.7c12.9,11.8,25.4,23.3,37.1,34c18.1-15.7,35.1-30.5,52.8-46
				c-7-10.2-14.2-21-21.7-31.6c-0.6-0.8-3.2-1.1-4.2-0.4c-8,5.6-15.9,11.4-24.1,17.4c2.6,3.7,4.8,7,7.3,10.1c3,3.8,0.4,6.1-1.9,8.5
				c-2.7,2.7-4.4,0.1-5.9-1.6c-4.2-4.8-8.2-9.8-12.9-15.4c14.3-13,29.2-24.2,45.6-34.1c7,11.3,13.7,22.1,20.5,32.8
				c5.5,8.8,5.5,8.9,14.9,4.4c16-7.6,31.8-15.4,47.8-22.9c4.5-2.1,5.6-4.4,3.8-9.3c-3.6-9.3-6.5-18.9-10-28.2
				c-0.6-1.5-3.3-3.7-4.4-3.3c-9.4,2.9-18.7,6.2-28.7,9.7c1.4,3.5,2.3,6.1,3.3,8.6c3.2,7.5,2.6,8.7-5.7,12
				c-3.6-7-7.2-14.1-10.9-21.4c1.7-1.1,2.7-2,4-2.5c14.1-5.9,28.2-11.6,42.2-17.6c4.8-2,7.4-0.5,8.8,4.4c3.6,12.2,7.3,24.5,11,36.7
				c0.5,1.7,1,3.3,1.4,4.8c22.5-4.3,44.8-8.5,67.8-12.9c0-2.6,0.2-6.1,0-9.5c-0.6-9.1-1.4-18.2-2.2-27.3c-0.3-3-1.6-4.9-5-4.5
				c-9.2,0.9-18.3,1.8-28.1,2.7c0.4,4.6,1.1,8.9,1,13.2c0,1.8-1.2,4.7-2.4,5.1c-2.9,0.9-6.5,0.9-7.5-3.3c-1.4-5.8-2.5-11.7-3.3-17.5
				c-0.1-1,1.6-3.1,2.7-3.2c17.7-2.6,35.5-4.9,54.2-7.4c0,4.6,0,7.8,0,11.1c0.1,10.5,0.2,21.1,0.5,31.6c0.2,7.9,0.5,8.3,8.1,9
				c16.2,1.5,32.4,2.7,48.5,4.2c4.1,0.4,8.1,1.2,13,1.9c2.5-13,4.9-25.6,7.1-38.3c0.2-1.1-1.7-3.6-2.9-3.9c-8.4-1.7-16.8-3.1-25.3-4
				c-1.4-0.2-3.8,2.3-4.6,4.1c-1,2.3-0.6,5.3-1.5,7.7c-0.6,1.6-2.6,4.1-3.5,3.9c-2-0.4-5.2-2.3-5.3-3.6c-0.3-6.4,0.1-12.9,1-19.2
				c0.1-1.1,3.9-2.6,5.8-2.4c13.2,1.7,26.4,3.8,39.6,5.9c3.2,0.5,6.3,1.3,10.2,2.1c-1.9,9.3-3.8,18.1-5.6,26.9
				c-1.3,6.2-2.8,12.3-3.7,18.5c-0.2,1.6,1.3,3.8,2.5,5.2c0.9,1,2.8,1.2,4.2,1.8c16.9,6.2,33.8,12.1,50.6,18.6
				c4.7,1.8,7.2,1.2,9.4-3.7c4.7-10.5,9.9-20.7,15.4-32c-10.5-4.8-20.2-9.3-30.3-13.9c-1.3,3.1-2.3,5.7-3.4,8.2
				c-3.2,7.8-4.5,8.2-13.1,4c2.3-6.6,4.4-13.4,7.1-19.9c0.5-1.2,3.6-2.4,4.9-1.9c16.3,6.7,32.4,13.7,49.4,21
				c-8.5,16-16.2,30.7-23.9,45.2c19.1,13.5,37.9,26.8,57.3,40.6c8.8-10.2,17.9-20.8,27.3-31.7c-8.9-7.5-17.5-14.7-26.2-22
				c-3.2,3.6-6.1,7-9.1,10.4c-1.9,2.1-3.8,2.7-6.2,0.7c-2.4-1.9-3.3-4-1.5-6.7c3.8-5.8,7.8-11.5,12.1-17.8
				c15.2,12.2,29.7,24,44.9,36.3c-11.9,13.1-23.3,25.8-34.9,38.5c7.7,8.4,15.5,16.4,22.6,24.9c6.4,7.5,12.3,15.5,18.1,23.6
				c3,4.2,5.4,5.4,9.9,2.1c8.2-6.2,16.8-12.1,25.2-18.1c3.1-2.2,3.6-4.6,1-7.8c-4.8-5.9-9.5-12-14.1-18.1c-2-2.6-3.9-3-6.4-0.8
				c-2.7,2.4-5.6,4.6-8.9,7.2c-2.5-2.6-5.1-5.3-8.1-8.3c5.6-4.7,10.7-9,15.9-13.3c2.6-2.1,5.1-1.9,7.1,0.9
				c10.3,14.1,20.7,28.3,31.2,42.8c-14.9,9.6-28.7,18.4-42.8,27.5c2.5,5,4.9,9.4,7,14c6.8,14.9,13.6,29.8,20,44.9
				c1.6,3.8,3.4,4.8,7,3.6c10.2-3.6,20.3-7.2,30.5-10.7c3.3-1.1,4.2-3.1,2.8-6.4c-3-7.2-6-14.5-8.8-21.9c-1.5-3.9-4.1-4.3-7.4-2.9
				c-3,1.3-5.9,2.6-8.8,3.9c-6.1-6.9-5.8-8.7,2-12.9c4.7-2.5,9.4-4.9,14.7-7.7c1,2.2,2.1,4.1,2.9,6.1c5.3,14,10.5,28.1,15.9,42.2
				c1.7,4.6,0.5,7.1-4.2,8.5c-11.1,3.4-22.2,7.1-33.1,11c-7.7,2.7-7.5,2.9-6,10.7c3.8,20.3,7.5,40.6,11.3,60.9
				c5.2,0,11.1,0.2,17-0.1c6.3-0.3,12.6-1,18.9-1.7c3.7-0.4,5.5-2.8,5.1-6.6c-0.8-7.3-1.6-14.6-2.5-21.9c-0.5-4.6-3.1-6.3-7.5-5.5
				c-1.7,0.3-3.4,0.2-5.1,0.5c-4.1,0.8-5.3-1.8-6.1-5.2c-0.9-4,1.8-4.3,4.3-4.9c5-1.1,10-2.2,15-3.2c2.9-0.6,4.5,0.8,4.9,3.8
				c2.2,17.5,4.5,35.1,6.8,53.7c-6.5,0-12.2-0.2-18,0c-9.9,0.4-19.8,1.3-29.7,1.8c-3.3,0.2-4.6,1.1-4.8,4.9
				c-1,20.1-2.4,40.2-3.5,60.4c-0.1,1.6,1,4.5,2,4.8c12.3,3.5,24.7,6.6,38.2,10.1c1.4-9.4,2.7-17.6,3.7-25.8
				c1.2-9.9,1.1-10.1-8.7-10.6c-4.5-0.2-5.9-1.9-5.8-6.4c0.1-4.6,2.6-5.2,6-4.9c5.9,0.6,11.8,1.3,18.7,2
				c-1.5,11.8-2.8,23.1-4.3,34.3c-0.7,5.2-1.8,10.4-2.8,15.5c-1.3,6.9-1.4,7-8,5.7c-12.1-2.4-24.2-4.7-36.2-7.4
				c-4.6-1-6.6,0.2-8.1,4.9c-6.5,20.1-13.3,40.1-20.3,60.9c6.3,3.2,13.2,6.6,20.1,10c4.2,2,8.5,3.8,12.6,5.9
				c2.8,1.4,4.4,0.7,5.6-2.1c3.3-7.7,6.7-15.4,10.1-23c1.5-3.4,0.3-5.3-2.9-6.4c-2.1-0.7-4.4-1.2-6.2-2.4c-1.6-1-2.8-2.8-4.2-4.2
				c2.2-1.9,4.7-5.7,6.4-5.4c5.8,1.1,11.4,3.6,16.9,5.9c0.9,0.4,1.8,2.8,1.5,3.7c-6.4,16.7-13.1,33.4-19.9,50.6
				c-4-1.9-6.8-3.2-9.5-4.5c-10.7-5.4-21.4-10.9-32.1-16.4c-3-1.5-4.9-1.1-6.8,1.8c-11.8,18-23.9,35.9-36.1,54.3
				c9.6,8.5,20,17.7,31,27.4c6-8.1,11.9-16,17.6-24c2-2.8,1.3-5.2-1.6-7.1c-1.7-1.1-3.7-2.1-5-3.6c-1.2-1.5-2.9-4.2-2.4-5.3
				c1.4-2.6,3.7-6,7.3-3.8c5.1,3.1,9.9,6.8,14.6,10.6c0.8,0.7,1,3.8,0.2,4.9c-9.1,12.5-18.4,24.8-27.7,37.2c-2.8,3.8-5.8,3-8.7,0.3
				c-9.1-8.5-18.2-17-27.3-25.5c-1.5-1.4-3-2.8-4.2-4c-11.6,10.1-23,20-34.6,30c4.4,0.5,8.9,1,13.3,1.6c6.5-5.7,12.9-11.3,19.3-16.9
				c7.4,7.2,14.8,14.3,22.1,21.4c9.1-0.3,18.3-0.5,27.5-0.5c14.5-17.6,34.6-45.2,38.1-53.7c-11.6-6.8-23.3-13.9-35.2-20.6
				c-0.8-0.5-3.2,0.7-4,1.8c-4.5,6.2-8.8,12.5-13.1,18.8c-2.5,3.6-1.8,6.4,1.7,8.9c2.6,1.8,5.1,3.9,7.6,5.8c-3.5,6.4-5.6,7-10.6,3.1
				c-2.9-2.2-5.5-4.7-8.2-7.1c-2.8-2.5-3.1-4.9-0.8-8.1c6.7-9.6,13-19.4,19.5-29c1.6-2.4,3.3-4.7,5-7.2c3.9,2.2,7.4,4.1,10.8,6.1
				c9.5,5.5,19.1,10.9,28.6,16.5c3.1,1.8,5,1.8,6.9-1.8c11.7-21.9,21.3-44.7,29.4-68.2c1.6-4.6,0.1-7-4.1-8.3
				c-10.3-3.1-20.6-6.2-30.9-9.4c-3-0.9-4.6,0.4-5.6,2.9c-2.5,6-4.9,11.9-7.1,18c-3.2,8.8-3.1,8.9,5.5,12.8c0.9,0.4,2.2,0.6,2.7,1.3
				c1.1,1.5,2.8,4.2,2.4,4.7c-1.3,1.5-3.6,3.2-5.4,3.1c-3-0.3-5.8-1.8-8.7-3c-8.1-3.3-8.8-4.9-5.9-13.5c3.4-9.9,6.9-19.8,10.1-29.8
				c2.6-8.1,2.9-8.5,11.2-6.5c11.8,2.9,23.6,5.7,35.4,8.7c4,1,6.1-0.3,6.8-4.5c1-5.7,2.7-11.3,3.4-17c2.5-18.4,4.6-36.9,7-55.3
				C863,483,861.7,480.8,857.1,480.8z"/>
			<path d="M290.1,714.9c8.9,0.1,17.8,0.3,26.7,0.6c-5.7-4.1-11.3-8.2-17.1-12.3C296.6,707,293.4,710.9,290.1,714.9z"/>
			<path class="st5" d="M828.1,496.5c-0.1,4.5,1.3,6.2,5.8,6.4c9.7,0.5,9.9,0.7,8.7,10.6c-1,8.2-2.3,16.4-3.7,25.8
				c-13.5-3.5-25.9-6.6-38.2-10.1c-1.1-0.3-2.1-3.2-2-4.8c1.1-20.1,2.5-40.2,3.5-60.4c0.2-3.8,1.5-4.7,4.8-4.9
				c9.9-0.5,19.8-1.3,29.7-1.8c5.7-0.3,11.5,0,18,0c-2.4-18.6-4.6-36.1-6.8-53.7c-0.4-3-2-4.4-4.9-3.8c-5,1-10,2-15,3.2
				c-2.5,0.6-5.2,0.8-4.3,4.9c0.8,3.5,2,6,6.1,5.2c1.7-0.3,3.4-0.2,5.1-0.5c4.4-0.8,7,0.9,7.5,5.5c0.9,7.3,1.7,14.6,2.5,21.9
				c0.4,3.8-1.4,6.2-5.1,6.6c-6.3,0.7-12.6,1.4-18.9,1.7c-5.9,0.3-11.8,0.1-17,0.1c-3.7-20.3-7.4-40.6-11.3-60.9
				c-1.5-7.9-1.7-8,6-10.7c11-3.9,22-7.6,33.1-11c4.7-1.5,6-3.9,4.2-8.5c-5.3-14-10.5-28.1-15.9-42.2c-0.8-2-1.9-4-2.9-6.1
				c-5.3,2.8-10,5.2-14.7,7.7c-7.8,4.2-8.1,5.9-2,12.9c2.9-1.3,5.9-2.6,8.8-3.9c3.3-1.4,5.9-1,7.4,2.9c2.8,7.3,5.8,14.6,8.8,21.9
				c1.4,3.3,0.5,5.2-2.8,6.4c-10.2,3.5-20.3,7.1-30.5,10.7c-3.5,1.3-5.4,0.2-7-3.6c-6.4-15.1-13.2-30-20-44.9c-2.1-4.6-4.5-9-7-14
				c14.1-9.1,27.9-17.9,42.8-27.5c-10.6-14.5-20.9-28.7-31.2-42.8c-2-2.8-4.5-3-7.1-0.9c-5.2,4.2-10.3,8.6-15.9,13.3
				c3,3.1,5.5,5.7,8.1,8.3c3.3-2.7,6.2-4.8,8.9-7.2c2.5-2.2,4.4-1.8,6.4,0.8c4.6,6.1,9.3,12.1,14.1,18.1c2.6,3.2,2.1,5.6-1,7.8
				c-8.4,6-17,11.8-25.2,18.1c-4.4,3.4-6.9,2.1-9.9-2.1c-5.7-8.1-11.7-16-18.1-23.6c-7.2-8.5-14.9-16.4-22.6-24.9
				c11.5-12.7,23-25.3,34.9-38.5c-15.2-12.3-29.8-24-44.9-36.3c-4.3,6.3-8.3,12-12.1,17.8c-1.8,2.7-0.9,4.8,1.5,6.7
				c2.4,1.9,4.4,1.4,6.2-0.7c2.9-3.4,5.9-6.7,9.1-10.4c8.7,7.3,17.3,14.5,26.2,22c-9.4,10.9-18.5,21.5-27.3,31.7
				c-19.4-13.7-38.2-27-57.3-40.6c7.7-14.5,15.4-29.2,23.9-45.2c-16.9-7.3-33.1-14.3-49.4-21c-1.2-0.5-4.4,0.7-4.9,1.9
				c-2.7,6.5-4.8,13.3-7.1,19.9c8.6,4.3,9.9,3.8,13.1-4c1-2.6,2.1-5.1,3.4-8.2c10.1,4.6,19.9,9.1,30.3,13.9
				c-5.5,11.3-10.7,21.5-15.4,32c-2.2,4.9-4.7,5.5-9.4,3.7c-16.8-6.4-33.7-12.4-50.6-18.6c-1.4-0.5-3.3-0.7-4.2-1.8
				c-1.3-1.4-2.8-3.6-2.5-5.2c0.9-6.2,2.4-12.4,3.7-18.5c1.8-8.8,3.7-17.7,5.6-26.9c-3.9-0.8-7-1.6-10.2-2.1
				c-13.2-2.1-26.3-4.1-39.6-5.9c-1.9-0.2-5.6,1.3-5.8,2.4c-0.9,6.3-1.2,12.8-1,19.2c0.1,1.4,3.3,3.2,5.3,3.6
				c0.9,0.2,2.9-2.3,3.5-3.9c0.9-2.4,0.5-5.4,1.5-7.7c0.8-1.8,3.2-4.3,4.6-4.1c8.5,0.9,16.9,2.4,25.3,4c1.2,0.2,3.1,2.7,2.9,3.9
				c-2.1,12.7-4.6,25.4-7.1,38.3c-5-0.7-9-1.5-13-1.9c-16.2-1.5-32.4-2.7-48.5-4.2c-7.6-0.7-7.8-1.1-8.1-9
				c-0.3-10.5-0.3-21.1-0.5-31.6c0-3.3,0-6.5,0-11.1c-18.7,2.5-36.4,4.8-54.2,7.4c-1.1,0.2-2.8,2.3-2.7,3.2
				c0.8,5.9,1.9,11.8,3.3,17.5c1,4.1,4.6,4.2,7.5,3.3c1.2-0.4,2.4-3.3,2.4-5.1c0-4.3-0.6-8.6-1-13.2c9.7-0.9,18.9-1.7,28.1-2.7
				c3.4-0.3,4.7,1.5,5,4.5c0.8,9.1,1.5,18.2,2.2,27.3c0.2,3.4,0,6.8,0,9.5c-23.1,4.4-45.3,8.6-67.8,12.9c-0.4-1.4-0.9-3.1-1.4-4.8
				c-3.7-12.2-7.4-24.4-11-36.7c-1.4-4.9-4-6.4-8.8-4.4c-14,6-28.2,11.7-42.2,17.6c-1.2,0.5-2.3,1.4-4,2.5
				c3.7,7.3,7.3,14.4,10.9,21.4c8.4-3.3,8.9-4.5,5.7-12c-1.1-2.5-2-5.1-3.3-8.6c9.9-3.4,19.2-6.8,28.7-9.7c1.1-0.3,3.9,1.8,4.4,3.3
				c3.5,9.3,6.4,18.9,10,28.2c1.8,4.8,0.7,7.2-3.8,9.3c-16,7.4-31.9,15.3-47.8,22.9c-9.4,4.5-9.4,4.4-14.9-4.4
				c-6.7-10.8-13.4-21.5-20.5-32.8c-16.4,9.9-31.2,21.1-45.6,34.1c4.7,5.6,8.7,10.6,12.9,15.4c1.5,1.7,3.2,4.3,5.9,1.6
				c2.4-2.3,4.9-4.7,1.9-8.5c-2.4-3.1-4.6-6.4-7.3-10.1c8.2-6,16.1-11.8,24.1-17.4c0.9-0.6,3.6-0.4,4.2,0.4
				c7.5,10.6,14.8,21.4,21.7,31.6c-17.8,15.5-34.8,30.3-52.8,46c-11.6-10.7-24.2-22.2-37.1-34c-2.8,3.3-5.5,6.4-8,9.7
				c-8,10.5-15.9,21.1-23.6,31.8c-1,1.4-1.4,5.1-0.6,5.7c4.9,3.7,10.1,7.1,15.5,10c1.2,0.6,4.5-0.8,5.4-2.2c0.8-1.3,0.4-4.5-0.6-5.9
				c-1.8-2.3-4.7-3.5-6.7-5.6c-1-1.1-1.8-3.8-1.2-4.7c5.8-8.2,11.9-16.1,18.7-25.2c10.2,9.4,19.6,18,29,26.7
				c2.3,2.1,1.4,4.1-0.2,6.4c-11.3,16.5-22.5,33-33.8,49.6c-1,1.4-2,2.8-3.2,4.4c-14.6-7.7-29-15.2-43.7-23
				c-2.9,5.9-5.8,10.9-7.9,16.2c-4.3,10.5-8.3,21.1-12.1,31.8c-0.6,1.7,0.1,5.3,1.1,5.8c5.3,2.4,10.8,4.4,16.4,5.9
				c3.6,1,5.5-2.2,6-5c0.3-1.4-1.8-3.7-3.3-4.7c-2.4-1.7-5.3-2.4-7.7-4.1c-1.1-0.8-2.5-3-2.1-3.9c3.5-9.4,7.3-18.7,11.5-29.1
				c12,6.1,23.2,11.6,34.2,17.6c1.3,0.7,2.6,4,2.1,5.5c-6.7,19.5-13.7,38.9-20.5,58.3c-1.2,3.5-2.9,4.9-6.9,3.8
				c-9.2-2.5-18.6-4.4-28-6.5c-4.9-1.1-9.9-2.1-15.2-3.2c-3,19.6-7.1,38.2-7.5,57.9c5.4,0,10.2,0.3,14.9-0.1
				c3.3-0.3,8.7,2.4,9.1-4.3c0.3-6.7-5-4.8-8.5-5.2c-3.3-0.4-6.6-1.2-6.1-5.4c1.1-10,2.6-20,4.1-30.8c13.2,2.8,25.2,5.2,37.1,8.1
				c1.3,0.3,2.8,3.3,2.7,5c-0.2,5.6-1.2,11.2-1.5,16.8c-0.8,14.5-1.6,29.1-2.2,43.6c-0.2,3.9-1.3,6-5.6,6.2
				c-9.2,0.3-18.4,1.2-27.6,1.9c-5.9,0.4-11.8,0.8-18.5,1.3c2.3,17.5,4.6,34.3,6.8,51.2c0.5,3.5,2.4,4.9,5.7,4.3
				c5-0.9,10-2,15.1-2.9c2.6-0.5,4.5-1.4,3.6-4.8c-0.8-3.1-1.6-5.7-5.7-5.1c-3.8,0.6-7.7,1-12.5,1.6c-1.3-11.7-2.5-22.9-3.8-34.7
				c14.8-1.1,28.4-2,41.3-3c3.6,20.2,7,39.3,10.4,58.4c1.9,10.9,0.8,12.8-9.3,16.2c-9.4,3.1-18.9,6.2-28.3,9.3
				c-4.3,1.4-6.1,4.3-4.3,8.9c5.6,14.5,11.1,29,16.8,43.4c0.4,1.1,2.6,2.5,3.3,2.2c5.7-2.8,11.3-5.6,16.6-9.1
				c1.1-0.7,1.1-4.6,0.3-6.4c-0.6-1.2-3.6-1.7-5.4-1.5c-2.5,0.4-4.8,1.8-7.2,2.8c-2.9,1.2-4.9,0.5-6-2.6c-2.8-7.7-5.6-15.4-8.5-23.1
				c-1.2-3-0.2-4.6,2.5-5.6c9.3-3.4,18.7-6.7,27.9-10.3c5.1-2,7.6-0.4,9.8,4.5c8.3,18.1,17,36,25.5,53.9c0.6,1.2,1,2.4,1.7,3.9
				c-2,1.3-3.7,2.4-5.4,3.5c-10.6,6.8-21.1,13.6-31.7,20.4c-2.2,1.5-4.3,3-2.1,6.2c10.1,14.6,20,29.2,30.6,44.6
				c5.7-5.3,10.5-9.7,15.2-14.2c2.1-2,2.9-4.3,0.6-6.9c-2.3-2.6-4.6-2.6-7.3-0.8c-2.9,2.1-5.9,4.1-9.5,6.6
				c-6.8-9.4-13.4-18.4-20.1-27.7c12.2-8.4,23.5-16.1,34.9-24c1.1,1.4,1.9,2.3,2.6,3.2c12.1,15,24.2,30,36.3,45
				c6.4,7.9,6.2,6-0.3,13.4c-3.4,3.8-6.8,7.6-10.3,11.4c4.5,0,9.1,0,13.6,0.1c3.3-4,6.5-7.9,9.7-11.7c5.7,4.1,11.4,8.2,17.1,12.3
				c4.3,0.2,8.7,0.4,13,0.7c-75.9-55.5-125.2-146.9-124.4-248.6c1.3-171.4,136.5-301,294.4-301.2c163.6-0.1,295,135.1,295.5,302.8
				c0.2,98.8-46.1,187-117.9,242.4c3.5,0.3,7,0.6,10.5,0.9c11.5-10,23-20,34.6-30c1.2,1.2,2.7,2.6,4.2,4c9.1,8.5,18.2,17,27.3,25.5
				c2.9,2.7,5.9,3.5,8.7-0.3c9.3-12.4,18.6-24.7,27.7-37.2c0.8-1.1,0.7-4.2-0.2-4.9c-4.6-3.8-9.5-7.5-14.6-10.6
				c-3.6-2.2-5.9,1.2-7.3,3.8c-0.6,1,1.1,3.8,2.4,5.3c1.3,1.5,3.3,2.5,5,3.6c2.9,1.8,3.6,4.3,1.6,7.1c-5.8,8-11.7,15.9-17.6,24
				c-10.9-9.7-21.4-18.9-31-27.4c12.3-18.4,24.3-36.3,36.1-54.3c1.9-3,3.8-3.4,6.8-1.8c10.7,5.5,21.4,11,32.1,16.4
				c2.7,1.4,5.5,2.6,9.5,4.5c6.8-17.2,13.5-33.8,19.9-50.6c0.4-0.9-0.6-3.4-1.5-3.7c-5.5-2.3-11.1-4.8-16.9-5.9
				c-1.7-0.3-4.3,3.5-6.4,5.4c1.4,1.4,2.6,3.2,4.2,4.2c1.9,1.2,4.1,1.7,6.2,2.4c3.2,1.1,4.4,3,2.9,6.4c-3.4,7.6-6.8,15.3-10.1,23
				c-1.2,2.8-2.9,3.5-5.6,2.1c-4.1-2.1-8.4-3.8-12.6-5.9c-6.9-3.4-13.7-6.8-20.1-10c7-20.8,13.9-40.8,20.3-60.9
				c1.5-4.6,3.5-5.9,8.1-4.9c12,2.7,24.1,5,36.2,7.4c6.6,1.3,6.6,1.2,8-5.7c1-5.2,2.1-10.3,2.8-15.5c1.5-11.2,2.8-22.5,4.3-34.3
				c-6.8-0.7-12.8-1.4-18.7-2C830.7,491.3,828.2,491.9,828.1,496.5z"/>
		</g>
	</g>
	<g>
		<path class="st6" d="M426.3,399c1.9-8.4,0.5-17.7,0.5-26.6c-6.7,0.3-12.5,5.9-12.8,13.1c-0.4,9.2-0.1,18.4-0.1,27.5
			c0.5,0.3,0.9,0.5,1.4,0.8C419.2,408.8,425.1,404.5,426.3,399z"/>
		<path class="st6" d="M400.2,434.1c8.8,0,16.6,0.3,24.4-0.1c7.9-0.3,12.7-5,14.4-13.3C423.2,415.5,409.6,419.9,400.2,434.1z"/>
		<path class="st6" d="M575.7,415.3c4.5,4.3,8.8,8.7,13.4,12.7c4.6,4,10.3,5.4,15.4,1.6c5.7-4.3,10.6-9.6,17.1-15.7h-45.1
			C576.3,414.4,576,414.8,575.7,415.3z"/>
		<path class="st6" d="M523.6,328.9c6.3-0.5,9.9-6,10.2-13c-5.6,0-11.3,0.8-16.7-0.2c-10.4-1.9-15.1,6.1-21.8,13.4
			C505.5,329.1,514.6,329.6,523.6,328.9z"/>
		<path class="st6" d="M458.2,398.5c7-0.3,11.6-5.6,12-13.1c-13.7,0.3-28.6-4.7-37.8,13.1C441.1,398.6,449.7,398.9,458.2,398.5z"/>
		<path class="st6" d="M385.2,490.4c3.9-3,4.4-6.4,3.1-11.1c-1.7-6.1-3.2-12.3-3.8-18.5c-5.5-60.6,26.3-114.3,81.1-137.6
			c9.4-4,11.3-8.6,7.3-19.5c-40.7,12-70.6,37.6-89.8,76.1c-19,38-19.8,77.4-6.2,119.2C380.6,495.1,382.6,492.4,385.2,490.4z"/>
		<path class="st6" d="M484.9,337.2c2.1-2.6,5.1-5.4,5.3-8.3c0.7-8.7,0.3-17.5,0.3-26.4c-7,1.1-12.7,5.6-13,11.2
			c-0.5,10.1-0.1,20.2-0.1,31.4C480.4,342,482.8,339.8,484.9,337.2z"/>
		<path class="st6" d="M490,364c7.3-0.4,11-4.7,12.2-12.4c-16.5-4.7-30.9-0.1-38,12.5C473,364.1,481.5,364.5,490,364z"/>
		<path class="st6" d="M457.4,365.6c1.7-9.1,0.5-18.9,0.5-28.5c-8,1.8-11.1,3.9-11.6,11.1c-0.8,10-0.2,20.2-0.2,31.8
			C450.5,374.7,456.4,370.7,457.4,365.6z"/>
		<path class="st6" d="M641.8,486.7c3.1-2.3,5.8-4.2,8.4-6.3c3.2-2.6,3.7-5.4,0.1-8.1c-2.8-2.1-5.7-4.1-8.2-5.9
			c13-18.7,13.6-21.6,7-27.6c-9,9.2-17.9,18.3-27.4,28c5.9,5.9,11.7,11.9,17.6,17.6c2.8,2.6,2.8,4.7,0,7.3
			c-4.5,4.3-8.5,9.2-13.2,13.3c-4.2,3.6-4.3,6.2-0.1,10c5.9,5.3,8.2,12.1,5,20c-3.2,7.8-9.2,11.5-17.5,11.4
			c-12.1-0.1-24.3-0.3-36.4,0c-12.7,0.3-23.3-4.3-32-13.6c-3.8-4.1-7.1-8.6-10.6-12.9c-3.3,2.8-5,4.1-6.6,5.2
			c-11.7,8.3-28.9,8.1-39.2-1c-11.7-10.3-10-7.8-1.1-17.7c3.1-3.5,5.1-4.2,8.7-0.2c5.9,6.5,13.4,7.7,19.6,4.6
			c3.3-1.6,4.6-3.5,1.4-6.6c-3.1-3-5.9-6.6-9.2-9.3c-4.4-3.5-3.5-6,0-9.6c18.8-19,27.1-42.3,26.9-69.1c-0.1-13.3,0.1-26.6,0-39.9
			c-0.2-13,4.3-23.9,13.3-32.9c6.2-6.2,12.3-12.5,18.3-18.8c1.4-1.5,2.2-3.7,3.2-5.6c-2.1-1.2-4-2.9-6.3-3.5
			c-8.7-2.2-14.4,3.3-19.8,8.9c-21.7,22.1-43.5,44.3-65.1,66.5c-38.7,39.7-77.5,79.3-116,119.1c-18,18.6-22.8,40.8-15,65.9
			c0.8,2.6,1,6,0.2,8.5c-5.5,16.4-4.6,32.3,2.3,48.1c0.8,1.8,1.3,4.1,1,6c-2.6,12.9-1.7,25.8,4.4,37c6.4,11.5,12.6,23.3,19.5,34.5
			c5.2-2.3,10.7-3.6,16.3-3.5c0.1,0,0.3,0,0.4,0c-3.6-4.9-5.2-10.1-6.3-15.5c-3-15.9,1.3-29.7,12.4-41.2
			c19.7-20.4,39.5-40.6,59.3-60.9c2-2.1,4.1-4.1,6-6.4c9.6-11.1,9.3-22.9-0.8-33.7c-1.3-1.4-2.6-2.7-4-3.9c-3.1-2.8-3-5.2,0.1-8.4
			c9.6-9.5,9.5-9.6,18.4,0.1c16.4,17.8,15.9,42.9-1.1,60.1c-19.4,19.8-38.6,39.8-58.2,59.4c-13.8,13.8-22.4,29.5-22.1,50.6
			c5.3,0.3,10.6,0.9,15.7,1.9c-0.3-13.4,4.5-27.4,15-37.7c21.1-20.7,41.4-42.3,62-63.5c10-10.3,15.8-22.7,16.3-37.2
			c0.3-7.2-0.7-14.5-1.2-22.6c1.5,0,3.3,0.2,5,0c6.1-1,12.3-1.4,18-3.4c4-1.4,6.2-0.8,9.1,2.1c8.6,8.6,18.9,14.2,30.9,15.9
			c1.8,0.3,3.5,0.7,6.4,1.3c-13.2,24.4-25.4,47.8-38.3,70.7c-12,21.2-20.5,42.9-18.3,68.3c0.8,8.8,3,17.4,6.5,25.7
			c5.8-3.1,12.3-4.9,18.8-5c1.6,0,3.1-0.1,4.7-0.2c0.1-1.8,0.4-3.6,0.8-5.5c1.9-7.4,6.3-14.3,10.3-21c2.2-3.7,6-6.3,8.9-9.6
			c8.5-9.7,8.6-21.7,0.1-31.3c-4-4.5-8.2-8.9-12.6-13c-2.7-2.5-2.8-4.7-0.9-7.6c2.4-3.8,4.5-7.9,7.7-13.5
			c9,10.1,17.8,18.4,24.7,28.2c10.7,15.4,7.5,37.2-6.4,51.5c-6.2,6.3-12.1,12.8-16.2,20.6c7.2-0.8,14.5-1.8,21.7-2.7
			c1.1-1.2,2.3-2.4,3.5-3.6c25.6-24,26.3-62,1.7-87c-6.1-6.2-12.1-12.6-18.4-18.7c-2.3-2.3-2.8-4.1-1-7c2.6-4,4.7-8.3,7.7-13.7
			c13.7,16,30,27.8,39.5,46.2c13.4,25.9,11,58.1-5.6,81.5c0.5,0,1-0.1,1.5-0.1c5.6-0.1,10.9,1.1,15.8,3.2c0.6-1.1,1.3-2.1,1.9-3.2
			c17.2-31.6,14.6-75.3-8-103c-10.1-12.4-21.9-23.4-32.7-35.3c-1.6-1.8-3.4-5.2-2.8-7.1c1.3-4,2.9-8.4,8.7-8.1
			c6.4,0.4,12.8,0.3,19.1,0c23.1-1.2,38.6-21.4,32.1-43.5c-2.2-7.4-1.6-11.9,3.9-16.2c2.9-2.3,2.4-4.4,0-6.7
			C648.2,493.9,645.8,491,641.8,486.7z M359.9,552.4c1-10.8,4.5-20.5,12.1-28.4c34.5-35.5,69.1-70.9,103.6-106.5
			c2.2-2.3,4-5.1,6-7.7c0.6,0.5,1.3,1.1,1.9,1.6c1.7,13.7-1.1,26.1-10.9,36.2c-22.3,23-44.8,45.9-67.2,68.8
			c-12.6,13-25.2,26-37.8,39c-1.8,1.9-3.8,3.7-6.9,6.8C360.3,557.9,359.6,555.1,359.9,552.4z M448.9,573.1
			c-19.1,19.7-38.2,39.5-57.5,59.1c-8.9,9-16.9,18.4-20.4,31.1c-0.2,0.7-1,1.2-2.3,2.9c-5.6-17.3-3.5-32.4,7.6-44.8
			c14.3-16,29.7-31,44.6-46.4c5.9-6.1,12.1-12.1,17.8-18.4c3.3-3.7,5.7-3.3,8.4,0.2c0.8,1,1.7,1.8,2.6,2.7
			C454.9,565.3,454.8,567,448.9,573.1z M368.4,605.1c-2.3,2.3-4.3,4.9-7.4,8.3c-2.3-10.7-0.7-19.7,3.7-27.8
			c3.3-6.2,7.9-11.8,12.8-16.9C412.2,533,447,497.4,481.9,462c12.3-12.4,18.2-27.3,18.3-44.8c0-1.9,0-3.8,0.1-5.7
			c0.2-21.3,0.2-21.3,16-35.2c0.4-0.4,1.1-0.4,3.4-1.2c-0.7,20-0.5,39-2.3,57.8c-1.6,17-10.7,30.7-22.4,42.6
			C452.7,518.7,410.6,561.9,368.4,605.1z M545.6,684.4c-4.7,5.4-8.5,11.6-13.2,18.1c-2.2-17.1,1-32.5,9.3-47.4
			c1.1,0.5,1.7,0.7,2.2,1.1C558.8,669.4,558.6,669.3,545.6,684.4z"/>
		<path class="st6" d="M376.9,498.9c-13.6-41.8-12.7-81.2,6.2-119.2c19.2-38.5,49-64.1,89.8-76.1c4,10.9,2.2,15.5-7.3,19.5
			c-54.9,23.3-86.6,77-81.1,137.6c0.6,6.3,2.1,12.5,3.8,18.5c1.3,4.6,0.8,8-3.1,11.1C382.6,492.4,380.6,495.1,376.9,498.9z"/>
		<path class="st6" d="M576.6,413.9c14.3,0,28.7,0,45.1,0c-6.5,6.1-11.4,11.4-17.1,15.7c-5.1,3.8-10.7,2.4-15.4-1.6
			c-4.7-4-9-8.5-13.4-12.7C576,414.8,576.3,414.4,576.6,413.9z"/>
	</g>
	<g id="BO8okW_00000143575841150015979960000017061869257593467036_">
		<g>
			<path class="st7" d="M557,838.6c3.5-2.2,7.3-3.9,10.4-6.6c20.2-17.8,43.9-24.3,70-24.3c55.2,0.1,110.4,0,165.6,0
				c15.5,0,24.2,14.2,16.1,28.1c-2,3.5-9.7,4.9-14.8,4.9c-56.1,0.3-112.3,0.1-168.4,0.4c-8.9,0.1-18.3,0.7-26.6,3.8
				c-23.9,8.8-38.2,27.3-42.2,52.6c-2.5,16.1-13.2,10.2-21.5,11.3c-10,1.3-11.8-5.2-12.2-13.5c-4.3-88.9-78-166.5-176.3-165.2
				c-39.5,0.5-79-0.4-118.5,0.4c-12.8,0.3-13.7-6.2-13.8-16.1c-0.1-10.3,1.7-16.3,14-16.1c46.1,0.6,92.3-0.8,138.4,0.7
				c40,1.3,76.2,16,107.7,41.4c8,6.4,13.1,7.4,21.9,0.5c35.4-27.5,75.3-42.8,120.4-42.4c41.9,0.4,83.8,0.5,125.6-0.2
				c12.7-0.2,15.1,5.4,15.2,16.5c0,10.9-3.2,15.8-14.7,15.7c-41.4-0.5-82.8-0.7-124.2-0.1c-35,0.5-67.5,10.5-96.3,31.7
				c-14.7,10.9-14.8,12.7-0.4,27c39.3-33.4,86.3-38.6,135.3-37.1c36.1,1.1,72.3,0.5,108.5,0.1c11.6-0.1,18.5,1.6,18.5,16.5
				c0,14.3-5.5,17-17.8,16.8c-49-0.4-98-0.3-147,0.2c-25.9,0.2-49.3,8.7-70.4,24.4C548.2,818.5,547,827,557,838.6z"/>
			<path class="st7" d="M481.8,907.2c-4.5-51.1-26.1-90.3-72.6-110.9c-14.8-6.6-32-9.8-48.3-10.2c-48.4-1.3-96.9-0.7-145.4-0.3
				c-11.4,0.1-17.4-2-17.2-15.9c0.2-13.1,3.6-18.1,17-18c48.5,0.6,97-0.3,145.4,0.4c75.7,1.1,134.1,51.3,149.3,127.4
				C515.6,908,511.6,912.1,481.8,907.2z"/>
			<path class="st7" d="M275.7,810.2c35.6,0,71.4-2.9,106.6,0.8c39.3,4.1,74.4,46.7,75.2,84.3c0.1,6.1,1.6,14.4-8,13.2
				c-8-1-19.1,6.9-22.9-9c-9.9-41.4-31.7-58.5-72.9-58.5c-54.6,0-109.3-0.3-163.9,0.2c-12.4,0.1-17.5-3-17.6-17
				c0-14.5,6.1-17,18.1-16.8c28.5,0.5,57,0.2,85.5,0.2C275.7,808.4,275.7,809.3,275.7,810.2z"/>
		</g>
	</g>
</g>
</svg>
