<?xml version="1.0" encoding="utf-8"?>
<!-- Generator: Adobe Illustrator 27.9.0, SVG Export Plug-In . SVG Version: 6.00 Build 0)  -->
<svg version="1.1" id="Capa_1" xmlns="http://www.w3.org/2000/svg" xmlns:xlink="http://www.w3.org/1999/xlink" x="0px" y="0px"
	 viewBox="0 0 1000 1000" style="enable-background:new 0 0 1000 1000;" xml:space="preserve">
<style type="text/css">
	.st0{opacity:4.000000e-02;fill:#606060;enable-background:new    ;}
	.st1{fill:#606060;}
	.st2{fill:#FFFFFF;stroke:#FFFFFF;stroke-miterlimit:10;}
	.st3{fill:#18224C;}
	.st4{fill:#FFCD00;}
	.st5{fill:#243746;}
	.st6{fill:#4B858E;}
</style>
<rect x="1634.5" y="736.5" class="st0" width="1373" height="360"/>
<rect x="2492.5" y="1404.5" class="st1" width="9" height="9"/>
<g>
	<text transform="matrix(1 0 0 1 2504.9502 1404.208)" class="st1" style="font-family:'Montserrat-BoldItalic'; font-size:12px;">TEXTO OPCIONAL PARA SER SUSTITUIDO</text>
	<text transform="matrix(1 0 0 1 2504.9502 1418.608)" class="st1" style="font-family:'Montserrat-BoldItalic'; font-size:12px;"> POR EL NOMBRE REAL DEL PROYECTO,</text>
</g>
<g>
	<g>
		<path class="st2" d="M106.1,810.5c-1.3-0.4-2.6-0.6-3.7-0.6c-1.6,0-2.8,0.3-3.7,1c-0.9,0.7-1.4,1.6-1.4,2.7c0,1,0.3,1.9,0.8,2.5
			c0.6,0.7,1.2,1.2,2.1,1.5c0.8,0.4,2,0.8,3.4,1.3c1.8,0.6,3.3,1.2,4.4,1.8s2.1,1.4,2.9,2.5s1.2,2.5,1.2,4.4c0,1.7-0.4,3.1-1.2,4.4
			c-0.8,1.2-2,2.2-3.5,2.9s-3.2,1-5.2,1s-3.9-0.4-5.7-1.2c-1.9-0.8-3.5-1.9-4.8-3.3l1.6-3.5c1.3,1.4,2.7,2.4,4.3,3.1
			c1.6,0.7,3.1,1.1,4.7,1.1c1.8,0,3.2-0.4,4.2-1.1c1-0.8,1.6-1.8,1.6-3.1c0-1-0.3-1.9-0.8-2.5c-0.6-0.7-1.3-1.2-2.1-1.6
			c-0.9-0.4-2-0.8-3.5-1.3c-1.8-0.6-3.2-1.2-4.4-1.7c-1.1-0.6-2.1-1.4-2.9-2.5s-1.2-2.5-1.2-4.3c0-1.6,0.4-2.9,1.2-4.1
			s1.9-2.1,3.3-2.8c1.4-0.6,3.1-1,5-1c1.6,0,3.2,0.3,4.7,0.8s2.9,1.2,4.1,2.1l-1.5,3.6C108.7,811.6,107.4,810.9,106.1,810.5z"/>
		<path class="st2" d="M122.9,806.3h3.7v29.2h-3.7V806.3z"/>
		<path class="st2" d="M151,810.5c-1.3-0.4-2.6-0.6-3.7-0.6c-1.6,0-2.8,0.3-3.7,1s-1.4,1.6-1.4,2.7c0,1,0.3,1.9,0.8,2.5
			c0.6,0.7,1.2,1.2,2.1,1.5c0.8,0.4,2,0.8,3.4,1.3c1.8,0.6,3.3,1.2,4.4,1.8c1.1,0.6,2.1,1.4,2.9,2.5c0.8,1.1,1.2,2.5,1.2,4.4
			c0,1.7-0.4,3.1-1.2,4.4c-0.8,1.2-2,2.2-3.5,2.9s-3.2,1-5.2,1s-3.9-0.4-5.7-1.2c-1.9-0.8-3.5-1.9-4.8-3.3l1.6-3.5
			c1.3,1.4,2.7,2.4,4.3,3.1c1.6,0.7,3.1,1.1,4.7,1.1c1.8,0,3.2-0.4,4.2-1.1c1-0.8,1.6-1.8,1.6-3.1c0-1-0.3-1.9-0.8-2.5
			c-0.6-0.7-1.3-1.2-2.1-1.6c-0.9-0.4-2-0.8-3.5-1.3c-1.8-0.6-3.2-1.2-4.4-1.7c-1.1-0.6-2.1-1.4-2.9-2.5c-0.8-1.1-1.2-2.5-1.2-4.3
			c0-1.6,0.4-2.9,1.2-4.1s1.9-2.1,3.3-2.8c1.4-0.6,3.1-1,5-1c1.6,0,3.2,0.3,4.7,0.8s2.9,1.2,4.1,2.1l-1.5,3.6
			C153.6,811.6,152.3,810.9,151,810.5z"/>
		<path class="st2" d="M164.3,806.3h21v3.7h-8.7v25.5H173V810h-8.6L164.3,806.3L164.3,806.3z"/>
		<path class="st2" d="M194.5,806.3h18.6v3.6h-14.9v9h13.4v3.6h-13.4v9.3h15.4v3.6h-19.1V806.3z"/>
		<path class="st2" d="M224.5,806.3h4.4l9.8,20.5l9.7-20.5h4.4v29.2h-3.4v-23.3l-9.5,20.2h-2.3l-9.6-20.2v23.3h-3.4L224.5,806.3
			L224.5,806.3z"/>
		<path class="st2" d="M285.4,835.5l-2.8-7.1h-14.1l-2.8,7.1h-3.9l11.9-29.2h3.8l11.9,29.2H285.4z M269.9,824.8h11.3l-5.7-14.2
			L269.9,824.8z"/>
		<path class="st2" d="M331.3,808.2c2.1,1.3,3.8,3,5,5.2s1.8,4.7,1.8,7.5s-0.6,5.2-1.8,7.5c-1.2,2.2-2.9,4-5,5.2
			c-2.1,1.3-4.5,1.9-7.1,1.9h-10.8v-29.2h10.9C326.8,806.3,329.2,807,331.3,808.2z M329.4,830.5c1.5-0.9,2.7-2.3,3.6-3.9
			c0.9-1.7,1.3-3.5,1.3-5.6s-0.4-4-1.3-5.6c-0.9-1.7-2.1-3-3.7-3.9c-1.5-1-3.3-1.4-5.2-1.4H317V832h7.3
			C326.1,831.9,327.8,831.4,329.4,830.5z"/>
		<path class="st2" d="M348.3,806.3h18.6v3.6H352v9h13.4v3.6H352v9.3h15.4v3.6h-19.1V806.3z"/>
		<path class="st2" d="M411.8,821.3h3.3V832c-1.4,1.2-2.9,2.1-4.8,2.8c-1.8,0.7-3.6,1-5.4,1c-2.6,0-4.9-0.7-7.1-2
			c-2.1-1.3-3.8-3.1-5.1-5.4c-1.2-2.3-1.9-4.8-1.9-7.5s0.6-5.2,1.9-7.5s3-4,5.1-5.4c2.2-1.3,4.6-2,7.2-2c1.9,0,3.7,0.4,5.5,1.1
			c1.8,0.7,3.3,1.7,4.6,3L413,813c-1.1-1.1-2.3-1.9-3.7-2.5c-1.4-0.6-2.8-0.9-4.3-0.9c-1.9,0-3.7,0.5-5.3,1.5
			c-1.6,1-2.9,2.4-3.8,4.1c-0.9,1.7-1.4,3.6-1.4,5.7c0,2.1,0.5,4,1.4,5.7s2.2,3.1,3.8,4.1c1.6,1,3.4,1.5,5.3,1.5
			c1.1,0,2.3-0.2,3.4-0.6c1.2-0.4,2.2-1,3.2-1.7v-8.6H411.8z"/>
		<path class="st2" d="M427,806.3h18.6v3.6h-14.9v9h13.4v3.6h-13.4v9.3h15.4v3.6H427V806.3z"/>
		<path class="st2" d="M468.8,810.5c-1.3-0.4-2.6-0.6-3.7-0.6c-1.6,0-2.8,0.3-3.7,1c-0.9,0.7-1.4,1.6-1.4,2.7c0,1,0.3,1.9,0.8,2.5
			c0.6,0.7,1.2,1.2,2.1,1.5c0.8,0.4,2,0.8,3.4,1.3c1.8,0.6,3.3,1.2,4.4,1.8s2.1,1.4,2.9,2.5s1.2,2.5,1.2,4.4c0,1.7-0.4,3.1-1.2,4.4
			c-0.8,1.2-2,2.2-3.5,2.9s-3.2,1-5.2,1s-3.9-0.4-5.7-1.2c-1.9-0.8-3.5-1.9-4.8-3.3l1.6-3.5c1.3,1.4,2.7,2.4,4.3,3.1
			c1.6,0.7,3.1,1.1,4.7,1.1c1.8,0,3.2-0.4,4.2-1.1c1-0.8,1.6-1.8,1.6-3.1c0-1-0.3-1.9-0.8-2.5c-0.6-0.7-1.3-1.2-2.1-1.6
			c-0.9-0.4-2-0.8-3.5-1.3c-1.8-0.6-3.2-1.2-4.4-1.7c-1.1-0.6-2.1-1.4-2.9-2.5s-1.2-2.5-1.2-4.3c0-1.6,0.4-2.9,1.2-4.1
			s1.9-2.1,3.3-2.8c1.4-0.6,3.1-1,5-1c1.6,0,3.2,0.3,4.7,0.8s2.9,1.2,4.1,2.1l-1.5,3.6C471.5,811.6,470.2,810.9,468.8,810.5z"/>
		<path class="st2" d="M482.2,806.3h21v3.7h-8.7v25.5h-3.7V810h-8.6L482.2,806.3L482.2,806.3z"/>
		<path class="st2" d="M512.3,806.3h3.7v29.2h-3.7V806.3z"/>
		<path class="st2" d="M547.5,808c2.2,1.3,3.9,3.1,5.1,5.4c1.3,2.3,1.9,4.8,1.9,7.5s-0.6,5.2-1.9,7.5c-1.3,2.3-3,4.1-5.1,5.4
			c-2.2,1.3-4.5,2-7.1,2s-4.9-0.7-7.1-2c-2.2-1.3-3.9-3.1-5.1-5.4c-1.3-2.3-1.9-4.8-1.9-7.5s0.6-5.2,1.9-7.5c1.3-2.3,3-4,5.1-5.4
			c2.1-1.3,4.5-2,7.1-2C543,806.1,545.3,806.7,547.5,808z M535.2,811.2c-1.6,1-2.9,2.4-3.8,4.1s-1.4,3.6-1.4,5.6
			c0,2.1,0.5,3.9,1.4,5.7s2.2,3.1,3.8,4.1s3.3,1.5,5.2,1.5s3.6-0.5,5.2-1.5c1.6-1,2.8-2.4,3.8-4.1c0.9-1.7,1.4-3.6,1.4-5.7
			c0-2.1-0.5-3.9-1.4-5.6c-0.9-1.7-2.2-3.1-3.8-4.1s-3.3-1.5-5.2-1.5C538.6,809.7,536.8,810.2,535.2,811.2z M542.5,797.9l3.7,1.8
			l-4.8,4.1l-3-0.4L542.5,797.9z"/>
		<path class="st2" d="M583.8,806.3h3.6v29.2h-3.7l-15.3-22.6v22.6h-3.7v-29.2h3.7l15.4,22.6V806.3z"/>
		<path class="st2" d="M631,810.6c-1.4-0.7-2.7-1-4.2-1c-1.9,0-3.6,0.5-5.2,1.5c-1.6,1-2.8,2.4-3.8,4.1c-0.9,1.7-1.4,3.6-1.4,5.6
			s0.5,3.9,1.4,5.6c0.9,1.7,2.2,3.1,3.8,4.1s3.3,1.5,5.2,1.5c1.4,0,2.8-0.3,4.1-0.9c1.4-0.6,2.6-1.5,3.6-2.6l2.2,2.6
			c-1.4,1.4-2.9,2.6-4.7,3.4c-1.8,0.8-3.6,1.2-5.4,1.2c-2.6,0-4.9-0.7-7-2s-3.8-3.1-5-5.4c-1.2-2.3-1.8-4.8-1.8-7.5s0.6-5.2,1.9-7.5
			c1.2-2.3,2.9-4,5.1-5.4c2.1-1.3,4.5-2,7.1-2c1.9,0,3.7,0.4,5.4,1.1c1.8,0.8,3.3,1.8,4.5,3.2l-2.2,2.9
			C633.6,812.2,632.4,811.3,631,810.6z"/>
		<path class="st2" d="M652.1,829.9c1.4,1.5,3.3,2.3,5.7,2.3s4.2-0.8,5.6-2.3c1.4-1.5,2-3.6,2-6.3v-17.3h3.7v17.3c0,3.8-1,6.8-3,9
			s-4.8,3.3-8.3,3.3c-3.6,0-6.3-1.1-8.4-3.3c-2-2.2-3-5.2-3-9v-17.3h3.7v17.3C650.1,826.3,650.7,828.4,652.1,829.9z"/>
		<path class="st2" d="M698.5,835.5l-5.3-9.2c-0.6,0.1-1.1,0.1-1.5,0.1h-6.8v9.1h-3.7v-29.2h10.5c3.4,0,6,0.9,7.9,2.6
			c1.9,1.7,2.8,4.1,2.8,7.3c0,2.4-0.5,4.4-1.5,6s-2.5,2.8-4.3,3.5l6.2,9.9L698.5,835.5L698.5,835.5z M691.6,822.8
			c2.3,0,4.1-0.5,5.3-1.6s1.8-2.7,1.8-4.9c0-2.1-0.6-3.7-1.8-4.7c-1.2-1.1-3-1.6-5.3-1.6h-6.8v12.8H691.6z"/>
		<path class="st2" d="M731.1,835.5l-5.3-9.2c-0.6,0.1-1.1,0.1-1.5,0.1h-6.8v9.1h-3.7v-29.2h10.5c3.4,0,6,0.9,7.9,2.6
			c1.9,1.7,2.8,4.1,2.8,7.3c0,2.4-0.5,4.4-1.5,6s-2.5,2.8-4.3,3.5l6.2,9.9L731.1,835.5L731.1,835.5z M724.3,822.8
			c2.3,0,4.1-0.5,5.3-1.6s1.8-2.7,1.8-4.9c0-2.1-0.6-3.7-1.8-4.7c-1.2-1.1-3-1.6-5.3-1.6h-6.8v12.8H724.3z"/>
		<path class="st2" d="M746.5,806.3h3.7v29.2h-3.7V806.3z"/>
		<path class="st2" d="M778.7,810.6c-1.4-0.7-2.7-1-4.2-1c-1.9,0-3.6,0.5-5.2,1.5c-1.6,1-2.8,2.4-3.8,4.1c-0.9,1.7-1.4,3.6-1.4,5.6
			s0.5,3.9,1.4,5.6c0.9,1.7,2.2,3.1,3.8,4.1s3.3,1.5,5.2,1.5c1.4,0,2.8-0.3,4.1-0.9c1.4-0.6,2.6-1.5,3.6-2.6l2.2,2.6
			c-1.4,1.4-2.9,2.6-4.7,3.4c-1.8,0.8-3.6,1.2-5.4,1.2c-2.6,0-4.9-0.7-7-2s-3.8-3.1-5-5.4c-1.2-2.3-1.8-4.8-1.8-7.5s0.6-5.2,1.9-7.5
			c1.2-2.3,2.9-4,5.1-5.4c2.1-1.3,4.5-2,7.1-2c1.9,0,3.7,0.4,5.4,1.1c1.8,0.8,3.3,1.8,4.5,3.2l-2.2,2.9
			C781.2,812.2,780,811.3,778.7,810.6z"/>
		<path class="st2" d="M799.7,829.9c1.4,1.5,3.3,2.3,5.7,2.3s4.2-0.8,5.6-2.3c1.4-1.5,2-3.6,2-6.3v-17.3h3.7v17.3c0,3.8-1,6.8-3,9
			s-4.8,3.3-8.3,3.3c-3.6,0-6.3-1.1-8.4-3.3c-2-2.2-3-5.2-3-9v-17.3h3.7v17.3C797.7,826.3,798.4,828.4,799.7,829.9z"/>
		<path class="st2" d="M828.8,806.3h3.7v25.6h11.7v3.6h-15.4V806.3z"/>
		<path class="st2" d="M874,835.5l-2.8-7.1h-14.1l-2.8,7.1h-3.9l11.9-29.2h3.8l11.9,29.2H874z M858.5,824.8h11.3l-5.7-14.2
			L858.5,824.8z"/>
		<path class="st2" d="M904.2,835.5l-5.3-9.2c-0.6,0.1-1.1,0.1-1.5,0.1h-6.8v9.1h-3.7v-29.2h10.5c3.4,0,6,0.9,7.9,2.6
			c1.9,1.7,2.8,4.1,2.8,7.3c0,2.4-0.5,4.4-1.5,6s-2.5,2.8-4.3,3.5l6.2,9.9L904.2,835.5L904.2,835.5z M897.4,822.8
			c2.3,0,4.1-0.5,5.3-1.6s1.8-2.7,1.8-4.9c0-2.1-0.6-3.7-1.8-4.7c-1.2-1.1-3-1.6-5.3-1.6h-6.8v12.8H897.4z"/>
		<path class="st2" d="M186.7,857.1h18.6v3.6h-14.9v9h13.4v3.6h-13.4v9.3h15.4v3.6h-19.1V857.1z"/>
		<path class="st2" d="M235.8,857.1h3.6v29.2h-3.7l-15.3-22.6v22.6h-3.7v-29.2h3.7l15.4,22.6V857.1z"/>
		<path class="st2" d="M248.6,857.1h21v3.7h-8.7v25.5h-3.7v-25.5h-8.6L248.6,857.1L248.6,857.1z"/>
		<path class="st2" d="M295.9,858.8c2.2,1.3,3.9,3.1,5.1,5.4c1.3,2.3,1.9,4.8,1.9,7.5s-0.6,5.2-1.9,7.5s-3,4.1-5.1,5.4
			c-2.2,1.3-4.5,2-7.1,2s-4.9-0.7-7.1-2s-3.9-3.1-5.1-5.4c-1.3-2.3-1.9-4.8-1.9-7.5s0.6-5.2,1.9-7.5s3-4,5.1-5.4s4.5-2,7.1-2
			C291.4,856.9,293.8,857.5,295.9,858.8z M283.7,862c-1.6,1-2.9,2.4-3.8,4.1c-0.9,1.7-1.4,3.6-1.4,5.6c0,2.1,0.5,3.9,1.4,5.7
			c0.9,1.7,2.2,3.1,3.8,4.1c1.6,1,3.3,1.5,5.2,1.5c1.9,0,3.6-0.5,5.2-1.5s2.8-2.4,3.8-4.1c0.9-1.7,1.4-3.6,1.4-5.7
			c0-2.1-0.5-3.9-1.4-5.6c-0.9-1.7-2.2-3.1-3.8-4.1c-1.6-1-3.3-1.5-5.2-1.5S285.3,861,283.7,862z"/>
		<path class="st2" d="M330.5,886.3l-5.3-9.2c-0.6,0.1-1.1,0.1-1.5,0.1h-6.8v9.1h-3.7v-29.2h10.5c3.4,0,6,0.9,7.9,2.6
			c1.9,1.7,2.8,4.1,2.8,7.3c0,2.4-0.5,4.4-1.5,6s-2.5,2.8-4.3,3.5l6.2,9.9L330.5,886.3L330.5,886.3z M323.7,873.6
			c2.3,0,4.1-0.5,5.3-1.6c1.2-1.1,1.8-2.7,1.8-4.9c0-2.1-0.6-3.7-1.8-4.7c-1.2-1.1-3-1.6-5.3-1.6h-6.8v12.8H323.7z"/>
		<path class="st2" d="M365,857.1h3.6v29.2h-3.7l-15.3-22.6v22.6h-3.7v-29.2h3.7l15.4,22.6V857.1z"/>
		<path class="st2" d="M400.1,858.8c2.2,1.3,3.9,3.1,5.1,5.4c1.3,2.3,1.9,4.8,1.9,7.5s-0.6,5.2-1.9,7.5s-3,4.1-5.1,5.4
			c-2.2,1.3-4.5,2-7.1,2s-4.9-0.7-7.1-2s-3.9-3.1-5.1-5.4c-1.3-2.3-1.9-4.8-1.9-7.5s0.6-5.2,1.9-7.5s3-4,5.1-5.4s4.5-2,7.1-2
			C395.6,856.9,398,857.5,400.1,858.8z M387.9,862c-1.6,1-2.9,2.4-3.8,4.1c-0.9,1.7-1.4,3.6-1.4,5.6c0,2.1,0.5,3.9,1.4,5.7
			c0.9,1.7,2.2,3.1,3.8,4.1c1.6,1,3.3,1.5,5.2,1.5c1.9,0,3.6-0.5,5.2-1.5s2.8-2.4,3.8-4.1c0.9-1.7,1.4-3.6,1.4-5.7
			c0-2.1-0.5-3.9-1.4-5.6c-0.9-1.7-2.2-3.1-3.8-4.1c-1.6-1-3.3-1.5-5.2-1.5C391.2,860.5,389.5,861,387.9,862z"/>
		<path class="st2" d="M450.4,859c2.1,1.3,3.8,3,5,5.2s1.8,4.7,1.8,7.5s-0.6,5.2-1.8,7.5c-1.2,2.2-2.9,4-5,5.2
			c-2.1,1.3-4.5,1.9-7.1,1.9h-10.8v-29.2h10.9C445.9,857.1,448.3,857.7,450.4,859z M448.5,881.3c1.5-0.9,2.7-2.3,3.6-3.9
			c0.9-1.7,1.3-3.5,1.3-5.6s-0.4-4-1.3-5.6c-0.9-1.7-2.1-3-3.7-3.9c-1.5-1-3.3-1.4-5.2-1.4H436v21.9h7.3
			C445.3,882.7,447,882.2,448.5,881.3z"/>
		<path class="st2" d="M467.4,857.1H486v3.6h-14.9v9h13.4v3.6h-13.4v9.3h15.4v3.6h-19.1V857.1z"/>
		<path class="st2" d="M532.3,886.3l-2.8-7.1h-14.1l-2.8,7.1h-3.9l11.9-29.2h3.8l11.9,29.2H532.3z M516.8,875.6h11.3l-5.7-14.2
			L516.8,875.6z"/>
		<path class="st2" d="M563.3,859.7c1.8,1.7,2.7,4.1,2.7,7.3c0,3.3-0.9,5.8-2.8,7.6c-1.8,1.8-4.4,2.7-7.7,2.7h-6.7v9.1h-3.7v-29.2
			h10.3C558.9,857.1,561.5,858,563.3,859.7z M560.7,871.9c1.2-1.1,1.8-2.7,1.8-4.9c0-2.1-0.6-3.7-1.8-4.7c-1.2-1.1-3-1.6-5.3-1.6
			h-6.5v12.8h6.5C557.7,873.6,559.5,873,560.7,871.9z"/>
		<path class="st2" d="M593.2,886.3l-5.3-9.2c-0.6,0.1-1.1,0.1-1.5,0.1h-6.8v9.1h-3.7v-29.2h10.5c3.4,0,6,0.9,7.9,2.6
			s2.8,4.1,2.8,7.3c0,2.4-0.5,4.4-1.5,6s-2.5,2.8-4.3,3.5l6.2,9.9L593.2,886.3L593.2,886.3z M586.4,873.6c2.3,0,4.1-0.5,5.3-1.6
			s1.8-2.7,1.8-4.9c0-2.1-0.6-3.7-1.8-4.7c-1.2-1.1-3-1.6-5.3-1.6h-6.8v12.8H586.4z"/>
		<path class="st2" d="M608.6,857.1h18.6v3.6h-14.9v9h13.4v3.6h-13.4v9.3h15.4v3.6h-19.1V857.1z"/>
		<path class="st2" d="M657.7,857.1h3.6v29.2h-3.7l-15.3-22.6v22.6h-3.7v-29.2h3.7l15.4,22.6V857.1z"/>
		<path class="st2" d="M692,859c2.1,1.3,3.8,3,5,5.2s1.8,4.7,1.8,7.5s-0.6,5.2-1.8,7.5c-1.2,2.2-2.9,4-5,5.2
			c-2.1,1.3-4.5,1.9-7.1,1.9H674v-29.2h10.9C687.5,857.1,689.9,857.7,692,859z M690.1,881.3c1.5-0.9,2.7-2.3,3.6-3.9
			c0.9-1.7,1.3-3.5,1.3-5.6s-0.4-4-1.3-5.6c-0.9-1.7-2.1-3-3.7-3.9c-1.5-1-3.3-1.4-5.2-1.4h-7.2v21.9h7.3
			C686.9,882.7,688.6,882.2,690.1,881.3z"/>
		<path class="st2" d="M709,857.1h3.7v29.2H709V857.1z"/>
		<path class="st2" d="M723.5,857.1h21.6v3L728,882.7h17.4v3.6h-22.2v-3l17.2-22.6h-16.7L723.5,857.1z"/>
		<path class="st2" d="M775.6,886.3l-2.8-7.1h-14.1l-2.8,7.1H752l11.9-29.2h3.8l11.9,29.2H775.6z M760.1,875.6h11.3l-5.7-14.2
			L760.1,875.6z"/>
		<path class="st2" d="M798.1,884.1c-1.4,1.6-3.4,2.4-5.9,2.4c-1.5,0-2.9-0.4-4.2-1.1c-1.3-0.7-2.4-1.8-3.4-3.1l1.8-3.1
			c0.8,1.1,1.8,1.9,2.8,2.5s2,0.9,3,0.9c1.4,0,2.4-0.4,3.2-1.4c0.7-0.9,1.1-2.2,1.1-3.9v-16.5H787v-3.7h13.2v20.3
			C800.2,880.3,799.5,882.5,798.1,884.1z"/>
		<path class="st2" d="M812.2,857.1h18.6v3.6h-14.9v9h13.4v3.6h-13.4v9.3h15.4v3.6h-19.1V857.1z"/>
	</g>
	<g>
		<path class="st2" d="M349.8,323.1l-0.8-1c1.2-1.3,1.9-2.6,2.1-3.8c0.2-1.2,0-3.2-0.7-5.7l-11.2-40.9l1-0.8l36.8,20.6
			c2.5,1.4,4.3,2.1,5.4,2.2s2.5-0.5,4.2-1.7l0.8,1l-14.5,11.6l-0.8-1c1.5-1.5,2.4-2.6,2.5-3.4c0.2-0.8,0-1.6-0.5-2.2
			c-0.6-0.8-2.1-1.9-4.3-3.1l-25.2-14.1l7.6,27.8c0.7,2.6,1.4,4.3,2.1,5.2c0.6,0.7,1.3,1.2,2.1,1.2c0.8,0,2-0.5,3.6-1.5l0.8,1
			L349.8,323.1z"/>
		<path class="st2" d="M417.7,227.9l4.6,9.8l-1.2,0.5c-0.9-1.7-1.8-2.8-2.5-3.4c-1.1-0.9-2.3-1.5-3.6-1.6c-1.3-0.1-2.8,0.2-4.5,0.9
			l-5.8,2.5l13.4,32.5c1.1,2.6,2,4.1,2.8,4.5c1.1,0.5,2.5,0.5,4.1-0.2l1.4-0.6l0.5,1.2l-17.5,7.6l-0.5-1.2l1.5-0.6
			c1.7-0.8,2.8-1.8,3-3.3c0.2-0.9-0.2-2.5-1.2-4.9l-13.4-32.5l-5,2.2c-1.9,0.8-3.2,1.6-3.9,2.2c-0.9,0.9-1.5,2-1.8,3.5
			s-0.1,3.2,0.5,5.2l-1.2,0.5l-3.6-10.2L417.7,227.9z"/>
		<path class="st2" d="M458.6,221.1l2,18.1l9.8-1.2c2.5-0.3,4.2-0.9,5-1.8c1-1.2,1.5-3.1,1.3-5.7l1.2-0.1l1.8,16l-1.2,0.1
			c-0.6-2.2-1-3.6-1.4-4.2c-0.5-0.7-1.2-1.3-2.2-1.6c-0.9-0.3-2.4-0.4-4.2-0.2l-9.8,1.2l1.7,15.1c0.2,2,0.5,3.3,0.7,3.7
			c0.2,0.4,0.6,0.7,1,0.9c0.5,0.2,1.3,0.2,2.5,0.1l7.6-0.9c2.5-0.3,4.3-0.7,5.4-1.2s2.1-1.3,3.1-2.5c1.2-1.6,2.4-3.8,3.5-6.8
			l1.3-0.2l-2.6,12l-34.4,4.1l-0.1-1.3l1.6-0.2c1.1-0.1,2-0.5,2.9-1.1c0.7-0.4,1.1-1,1.3-1.8c0.2-0.7,0.1-2.2-0.1-4.5l-3.3-29.8
			c-0.3-2.9-0.8-4.7-1.5-5.3c-0.9-0.8-2.3-1.1-4.1-0.9l-1.6,0.2l-0.1-1.3l34.4-4.1l1.6,10l-1.3,0.2c-0.7-2.4-1.4-4-2.1-4.8
			s-1.6-1.4-2.7-1.8c-0.9-0.2-2.5-0.2-4.7,0L458.6,221.1z"/>
		<path class="st2" d="M510.7,215.8l12,2.4l20.6,39.3l4.9-26.1c0.5-2.8,0.5-4.6,0.1-5.4c-0.6-1.1-1.8-1.8-3.5-2.2l-1.5-0.3l0.2-1.2
			l15.4,3l-0.2,1.2l-1.6-0.3c-1.9-0.4-3.3-0.1-4.3,0.9c-0.6,0.6-1.2,2.2-1.6,4.7L544,270l-1.2-0.2l-22.2-42.3l-5.3,27.9
			c-0.5,2.8-0.6,4.6-0.1,5.4c0.6,1.1,1.8,1.8,3.5,2.2l1.6,0.3l-0.2,1.2l-15.4-3.1l0.2-1.2l1.5,0.3c1.9,0.4,3.3,0.1,4.3-0.9
			c0.6-0.6,1.2-2.2,1.6-4.7l5.9-31.5c-1-1.8-1.8-3-2.3-3.6c-0.6-0.6-1.5-1.3-2.7-1.9c-0.6-0.3-1.5-0.6-2.8-0.9L510.7,215.8z"/>
		<path class="st2" d="M594.2,242.5l-7.6,16.5l8.9,4.3c2.3,1.1,4,1.5,5.1,1.2c1.5-0.4,2.8-1.8,4-4.1l1.1,0.5l-6.7,14.5l-1.1-0.5
			c0.7-2.2,1-3.6,1-4.3c0-0.9-0.4-1.7-1-2.5s-1.8-1.6-3.5-2.4l-8.9-4.3l-6.3,13.8c-0.8,1.9-1.3,3-1.3,3.5s0.1,0.9,0.4,1.4
			c0.3,0.4,1,0.9,2.1,1.5l6.9,3.3c2.3,1.1,4,1.8,5.2,1.9c1.2,0.2,2.5,0,3.9-0.5c1.8-0.7,4-2,6.5-3.9l1.2,0.6l-8.3,8.8l-31.3-15.2
			l0.5-1.1l1.4,0.7c1,0.5,2,0.7,3.1,0.6c0.8,0,1.5-0.3,2-0.9c0.5-0.5,1.3-1.8,2.2-3.9l12.5-27.1c1.2-2.6,1.7-4.4,1.5-5.3
			c-0.3-1.2-1.4-2.2-3-3l-1.4-0.7l0.5-1.1l31.3,15.2l-3.7,9.4l-1.2-0.6c0.6-2.4,0.8-4.1,0.7-5.2c-0.1-1.1-0.6-2.1-1.4-3
			c-0.7-0.7-2-1.5-4-2.5L594.2,242.5z"/>
		<path class="st2" d="M646.6,307.1l-14.1-10.4l-6.6,4.1c-1.6,1-2.7,1.9-3.2,2.6c-0.4,0.6-0.5,1.3-0.3,2.1c0.2,0.8,1.2,1.9,2.8,3.4
			l-0.7,1l-11.5-8.5l0.7-1c1.7,0.8,3,1.2,3.7,1.1c1.5-0.2,3.8-1.3,6.8-3.1l34.4-21.4l0.9,0.7l-9.1,40.6c-0.7,3.3-0.9,5.6-0.6,6.9
			c0.3,1.4,1.2,2.6,2.6,3.8l-0.7,1l-14.4-10.6l0.7-1c1.5,1,2.7,1.5,3.5,1.4c0.8,0,1.4-0.4,1.9-1c0.6-0.8,1.1-2.4,1.6-4.6
			L646.6,307.1z M647.2,304.5l4.4-19.7l-17,10.5L647.2,304.5z"/>
	</g>
	<g id="IdvKTg.tif_00000097472927475495215290000012697608745300182664_">
		<g>
			<path class="st3" d="M794,378.8c-6.5-47.6-22.6-91.6-49.2-131.1C700.4,182,640.3,139.3,564.3,120.9c-14.8-3.6-30.1-4.5-45.2-6.7
				c-1.5-0.2-3-0.5-4.5-0.8h-35.8c-1.2,0.2-2.4,0.6-3.6,0.7c-38.9,2.1-75.7,12.5-110.6,30.1c-117.7,59.3-180.2,187-166.2,312.6
				c7,62.7,30.3,118.5,71.3,165.4c2.3,2.7,4.7,5.3,7,7.8c7.1-5.7,15.9-9.2,24.8-9.5c3.9-4.2,7.8-8.4,11.7-12.5
				c1-1.1,2.1-2.2,3.2-3.5c-8.7-10.4-17.2-20.6-25.9-31.1c-3.4,2.6-6.9,5.1-10.4,7.8c-4.4,3.5-4.4,4.2,0,9c3.4-2.4,6.8-4.9,10.7-7.7
				c5,6.3,9.9,12.4,14.9,18.5c1.6,2,1.3,3.6-0.5,5.1c-7.2,6.2-14.4,12.5-21.6,18.7c-1.9,1.6-3.5,1.2-5-0.6
				c-3.1-3.8-6.6-7.4-9.4-11.4c-8.7-12.2-17.1-24.6-25.6-36.8c-2.1-3-1.7-4.8,1.5-6.7c8.5-4.9,16.8-10,25.1-15.3c6.9-4.5,6.1-3,3-10
				c-3.9-8.8-7.8-17.6-12-26.3c-0.6-1.3-3.1-2.7-4.4-2.4c-3.9,0.8-7.8,2.1-11.4,3.9c-1.2,0.6-1.5,3.1-2.1,4.7
				c1.6,0.6,3.2,1.2,4.8,1.8c0.2,0.1,0.5-0.2,0.8-0.2c8.6-2.9,8.6-2.9,12.4,5.7c1.7,3.8,3,7.7,4.7,11.4c1.5,3.3,1.1,5.3-2.3,7.1
				c-7.2,3.7-14.1,7.9-21.2,11.8c-5.3,2.9-5.5,2.9-7.9-2.6c-5.4-12.8-10.7-25.7-15.8-38.6c-2-5-3.6-10.2-5.2-15.3
				c-1.6-5.2-1.5-5.7,3.6-7.3c9.5-3,19.2-5.7,28.8-8.6c1.6-0.5,3.1-1.1,5-1.8c-2.2-12.6-4.4-24.6-6.6-36.7c-0.4-2.1-1.2-3.5-3.9-2.9
				c-3.5,0.7-7.2,0.8-10.8,0.8c-3.8,0.1-3.6,2.7-3.5,5.3c0,3.1,2,2.9,4,2.7c2.9-0.4,5.8-0.8,9.3-1.3c1.3,8.4,2.6,16.6,3.7,24.9
				c0.1,0.8-1.3,2.5-2.3,2.8c-9.3,2.2-18.7,4.2-28,6.3c-2.8,0.6-3.8-0.7-4.1-3.2c-2.2-17.9-4.4-35.9-6.6-53.8
				c-0.4-3.6-0.4-7.3-0.6-11.4H242c1.4-13.9,2.8-27.4,4.2-41.6c-5.3-0.5-10.5-1.1-15.7-1.3c-1.1,0-2.8,1.7-3.2,3
				c-0.2,0.8,1.2,2.8,2.3,3.3c1.7,0.8,3.8,1,5.7,1c3.1,0,4.3,1.6,4.1,4.5c-0.6,7.6-1.2,15.3-1.8,23.4c-2.2,0-4.1,0.1-6,0
				c-8.5-0.4-16.9-0.7-25.4-1.2c-2.4-0.1-4.4-0.8-4-4c2.9-20.4,5.8-40.8,8.7-61.3c0.6-4,3.4-3.2,5.7-2.6c8.4,2,16.7,4.2,25.1,6.2
				c3.3,0.8,6.7,1.6,10.3,2.4c4.1-11.8,8-23.2,11.7-34.7c0.4-1.1-0.7-3.4-1.8-4.1c-3.4-2.2-7-4-10.7-5.8c-2.9-1.4-4,0.6-4.9,2.8
				c-1.2,2.7,0.7,3.2,2.5,3.8c2.7,1,5.4,2.1,8.7,3.3c-2.1,6.2-4.1,12.2-6.1,18.2c-2.8,8.2-2.8,8.2-10.9,5.8
				c-8.5-2.5-17-5.2-25.5-7.8c-0.2-0.1-0.4-0.4-0.8-0.7c6.8-20.6,15-40.7,25.2-59.8c1.7-3.3,3.8-3.5,6.8-1.6
				c8.7,5.3,17.6,10.2,26.4,15.5c2.9,1.8,4.9,1.7,6.9-1.4c5.8-9,11.9-17.9,17.9-26.8c1.4-2,1.3-3.7-0.5-5.2c-3-2.5-6-5.1-9.3-7.1
				c-1.1-0.7-3.1,0.3-4.7,0.5c0.3,1.5,0.1,3.3,0.9,4.3c2,2.5,4.5,4.5,7.2,7.1c-4.6,6.5-9.1,13-13.8,19.3c-0.6,0.8-2.9,1.3-3.7,0.8
				c-8.2-5.1-16.2-10.4-24.3-15.6c-2.3-1.5-1.7-3.3-0.5-5.1c6-8.7,11.7-17.7,18.1-26.1c6.8-8.8,14.3-17,21.8-25.7
				c10.3,10.3,20,19.9,29.6,29.4c10.3-9.1,20-17.7,30.1-26.6c-3-4-5.7-8.1-9-11.7c-1-1.1-3.9-1.8-5.2-1.2c-2.7,1.2-1.3,3.6-0.2,5.4
				c1.6,2.5,3.4,4.8,5.4,7.6c-6.6,6-13.1,11.8-19.9,18c-8.2-8.9-16.1-17.6-24.5-26.8c16.9-15.6,34.5-29.8,54.6-41.4
				c7,12,13.8,23.7,20.8,35.7c11.8-5.8,23.6-11.6,36-17.7c-2-5.1-3.8-10.1-5.9-15c-1.2-2.7-3.6-2.2-5.3-0.9c-0.9,0.7-1.5,2.8-1.1,4
				c0.8,3.3,2.2,6.4,3.6,10.2c-7.2,3.3-14.1,6.6-21.1,9.5c-0.8,0.3-2.7-0.5-3.2-1.4c-4.8-8.5-9.3-17.1-14-25.7
				c-1.6-2.8,0-4.3,2.2-5.3c10-4.7,19.9-9.5,30-13.8c7-3,14.3-5.5,21.5-8c6.2-2.1,8.3-0.8,10.1,5.6c2.4,8.8,4.5,17.6,6.9,26.4
				c1.6,5.6,2.2,5.9,7.6,5c10.9-1.9,21.9-3.9,33.6-6c-0.7-5.6-1.2-11.1-2-16.5c-0.1-0.9-2.2-2.4-2.8-2.2c-1.3,0.5-3,1.9-3.1,3.1
				c-0.4,3.6-0.1,7.3-0.1,11.1c-7.8,1.5-15.3,3.1-22.8,4.3c-0.9,0.1-2.6-1.1-2.9-2c-2.6-10-5-20.1-7.3-30.2c-0.8-3.4,2.2-3.6,4.2-4
				c8.1-1.5,16.1-3.1,24.2-4c10.6-1.2,21.3-1.8,31.9-2.7c4-0.3,6.2,0.9,6.3,5.6c0.2,8.3,0.9,16.5,1.3,24.7c0.2,3.7,0,7.4,0,11.5
				c6.4,0.5,12.2,0.8,18,1.3c5.8,0.5,11.6,1,17.4,1.8c2.5,0.3,3.7-0.6,4.1-2.9c0.8-4.1,1.7-8.1,2.1-12.2c0.1-1.4-0.8-3.8-1.7-4.2
				c-2.3-0.8-4.8-0.2-5.5,2.9c-0.7,3-1.1,6.1-1.8,9.7c-8.7-0.7-17.2-1.5-26.3-2.3c0.6-12,1.1-23.5,1.7-35.6c5.4,0.3,10.5,0.3,15.5,1
				c15.8,2.4,31.5,5.1,47.2,7.6c3.6,0.6,4.7,2,3.6,6c-3,10.2-5.4,20.6-8,31c-0.4,1.5-0.6,3-1.1,5.2c12.6,4.3,25,8.5,37.9,12.8
				c2.2-5.2,4-9.9,6.1-14.5c1.2-2.7-1-3.4-2.5-3.9c-1.1-0.4-2.6,0.3-3.8,0.8c-0.4,0.1-0.5,1-0.7,1.5c-4.1,8.8-4.1,8.8-13.1,5.6
				c-4.2-1.5-8.3-3.2-12.5-4.7c-2.1-0.7-3-1.8-2.3-4.1c3-9.6,6-19.3,8.9-28.9c0.9-3.1,2.8-2.6,4.9-1.7c14.2,6.1,28.4,12.1,42.6,18.3
				c5.2,2.3,10.1,5.2,15.6,8.1c-1.5,2.9-2.7,5.4-4,7.8c-4.5,8.4-8.9,16.7-13.5,25c-1.6,2.9-1.2,4.5,1.7,6.4
				c9.6,6.5,18.9,13.4,28.9,20.6c3-4,6.5-8.2,9.5-12.8c0.6-1-0.2-3.8-1.3-4.8c-0.7-0.7-3.4-0.2-4.4,0.7c-2.5,2.4-4.5,5.3-6.9,8.2
				c-7.1-5.4-14-10.6-21.3-16.1c6.2-10,12.2-19.9,18.5-30.1c1.7,1,3,1.7,4.2,2.5c16.4,10.9,31.4,23.5,45.5,37.2
				c2.6,2.6,3,4.5,0.3,7.3c-8.1,8.4-15.9,17.1-24.2,26c2.8,3.4,5.6,6.8,8.4,10.3c4.7,5.8,9.4,11.6,14,17.5c2.1,2.6,4.1,3,6.7,0.8
				c2.7-2.2,5.6-4.3,8.3-6.4c1.8-1.4,2.2-3.1,0.7-5.1c-1.6-2.2-3.1-1.6-5-0.4c-8,5.3-8,5.2-14.2-2c-2.7-3.1-5.2-6.4-8.1-9.2
				c-2.1-1.9-2.1-3.5-0.4-5.4c3.4-3.7,6.8-7.5,10.4-11.1c4-4.1,8.2-8,12.7-12.4c16.1,17.1,29.2,36.3,41.3,56.7
				c-11.9,6.8-23.6,13.6-35.6,20.5c0.9,2,1.7,3.9,2.6,5.8c4.2,9.1,8.5,18.2,12.6,27.4c1.1,2.5,2.6,3.8,5.1,2.9
				c3.9-1.4,7.8-3,11.6-4.7c2.4-1.1,2.9-3.4,1.4-5.3c-0.7-1-3-1.6-4.3-1.2c-8.9,2.8-8.9,2.9-13.2-5.5c-2.5-4.9-4.7-10-7.2-15.2
				c1.2-0.9,2.1-1.8,3.2-2.3c8.3-4.2,16.7-8.3,25.1-12.5c2.3-1.1,3.8-0.9,4.9,1.7c8.3,18.2,15.9,36.7,21.1,56.1
				c0.9,3.5,0,5.4-3.7,6.5c-9.8,2.8-19.4,6-29.1,8.9c-3.5,1.1-4.7,2.6-3.7,6.7c2.3,9.7,4,19.5,5.7,29.3c0.6,3.3,2,4.8,5.2,4.6
				c2.9-0.2,5.9,0.2,8.7-0.5c1.8-0.5,3.8-2.4,4.4-4.1c1-2.5-0.3-4.4-3.4-4c-3.1,0.4-6.3,0.6-10,0.9c-1.2-8.2-2.4-15.9-3.2-23.6
				c-0.1-1.1,1.4-3.3,2.4-3.5c9.2-2.3,18.4-4.3,27.6-6.4c3.1-0.7,3.5,1.5,3.8,3.6c1.8,12.4,3.9,24.8,5.3,37.2
				c1.1,9.2,1.5,18.4,2.2,28.1h-40.8c-1.2,13.8-2.5,27.2-3.7,41.3c5.5,0.6,10.8,1.4,16.1,1.5c1,0,2.3-2.6,2.9-4.2
				c0.2-0.6-1.3-1.9-2.1-2.8c-0.2-0.3-0.8-0.2-1.2-0.3c-8.8-1.8-8.8-1.8-8.4-11.1c0.2-5.3,0.7-10.5,1-15.6c0.4-0.3,0.6-0.7,0.8-0.7
				c10,0.1,20,0.3,30,0.3c3.7,0,4.8,1.8,4.4,5.3c-1.9,15-3.6,29.9-5.6,44.9c-0.6,4.6-2,9.2-2.8,13.8c-0.6,3.4-2.2,4.5-5.5,3.7
				c-9.6-2.4-19.1-4.7-28.7-7c-6.7-1.6-7-1.3-9.1,5.3c-2.6,8.1-5.5,16.1-8.2,24.2c-2.4,7-1.8,8.3,4.8,11c2.3,0.9,4.7,2.2,7.1,2.4
				c1.4,0.1,3.3-1.2,4.4-2.5c0.3-0.4-1.1-2.6-2-3.8c-0.4-0.6-1.5-0.7-2.2-1.1c-7-3.2-7.1-3.2-4.5-10.4c1.8-4.9,3.8-9.8,5.8-14.6
				c0.8-2,2.1-3.1,4.6-2.4c8.4,2.6,16.7,5.1,25.1,7.6c3.4,1,4.6,3,3.3,6.7c-6.6,19.1-14.3,37.6-23.9,55.4c-1.6,2.9-3.1,2.9-5.6,1.4
				c-7.7-4.5-15.5-9-23.2-13.4c-2.8-1.6-5.6-3.1-8.8-4.9c-1.4,2-2.8,3.9-4.1,5.9c-5.3,7.9-10.4,15.8-15.8,23.6
				c-1.9,2.7-1.6,4.6,0.6,6.6c2.2,2,4.4,4,6.7,5.8c4.1,3.1,5.7,2.7,8.6-2.5c-2-1.5-4-3.2-6.2-4.7c-2.9-2-3.4-4.3-1.4-7.2
				c3.5-5.1,7-10.3,10.6-15.3c0.6-0.9,2.6-1.8,3.3-1.4c9.7,5.5,19.2,11.2,28.6,16.7c-2.8,6.9-19.1,29.3-30.9,43.6c2.5,0,4.9,0,7.4,0
				c38.6-45.3,62.2-98.2,71-158.7c1.1-7.4,1.6-14.9,2.3-22.4v-41.1C795.5,393.5,795,386.1,794,378.8z"/>
			<path d="M675.2,606c-5.2,4.6-10.4,9.1-15.7,13.7c2.5,0.3,4.9,0.7,7.4,1.1c2.4-2.1,4.8-4.3,7.3-6.5c2.8,3.2,5.5,6.3,8.3,9.5
				c3.5-0.2,7.1-0.3,10.6-0.4C687.2,617.6,681.3,611.8,675.2,606z"/>
			<path d="M679.8,624c0.9-0.1,1.9-0.1,2.8-0.1c-2.8-3.2-5.5-6.3-8.3-9.5c-2.5,2.2-4.9,4.4-7.3,6.5c2.1,0.3,4.2,0.7,6.4,1.1
				C675.6,622.4,677.7,623.1,679.8,624z"/>
			<path class="st4" d="M786.3,430.3c-10,0-20-0.2-30-0.3c-0.2,0-0.4,0.3-0.8,0.7c-0.3,5.1-0.8,10.3-1,15.6
				c-0.4,9.3-0.4,9.3,8.4,11.1c0.4,0.1,1,0,1.2,0.3c0.8,0.9,2.3,2.2,2.1,2.8c-0.5,1.6-1.9,4.2-2.9,4.2c-5.3-0.1-10.6-0.9-16.1-1.5
				c1.3-14.1,2.5-27.5,3.7-41.3h40.8c-0.7-9.7-1.1-18.9-2.2-28.1c-1.5-12.4-3.5-24.8-5.3-37.2c-0.3-2.2-0.8-4.4-3.8-3.6
				c-9.2,2.1-18.4,4.1-27.6,6.4c-1.1,0.3-2.6,2.4-2.4,3.5c0.8,7.7,2.1,15.4,3.2,23.6c3.7-0.3,6.8-0.5,10-0.9s4.4,1.4,3.4,4
				c-0.7,1.7-2.7,3.6-4.4,4.1c-2.7,0.8-5.8,0.3-8.7,0.5c-3.2,0.2-4.7-1.3-5.2-4.6c-1.7-9.8-3.4-19.6-5.7-29.3
				c-1-4.1,0.2-5.7,3.7-6.7c9.7-2.9,19.3-6.1,29.1-8.9c3.7-1,4.6-3,3.7-6.5c-5.2-19.4-12.8-37.9-21.1-56.1c-1.2-2.5-2.7-2.8-4.9-1.7
				c-8.3,4.2-16.7,8.3-25.1,12.5c-1.1,0.5-2,1.4-3.2,2.3c2.5,5.3,4.7,10.3,7.2,15.2c4.3,8.4,4.3,8.3,13.2,5.5
				c1.3-0.4,3.6,0.2,4.3,1.2c1.4,1.9,1,4.2-1.4,5.3c-3.8,1.7-7.7,3.3-11.6,4.7c-2.5,0.9-4-0.3-5.1-2.9c-4.1-9.2-8.4-18.3-12.6-27.4
				c-0.9-1.9-1.7-3.8-2.6-5.8c12-6.9,23.7-13.7,35.6-20.5c-12.1-20.4-25.1-39.6-41.3-56.7c-4.5,4.4-8.7,8.3-12.7,12.4
				c-3.6,3.6-7,7.3-10.4,11.1c-1.7,1.8-1.7,3.4,0.4,5.4c3,2.8,5.5,6,8.1,9.2c6.2,7.2,6.2,7.3,14.2,2c1.9-1.2,3.3-1.8,5,0.4
				c1.5,2.1,1.1,3.7-0.7,5.1c-2.7,2.2-5.6,4.2-8.3,6.4c-2.6,2.2-4.6,1.8-6.7-0.8c-4.6-5.9-9.3-11.7-14-17.5
				c-2.8-3.5-5.6-6.9-8.4-10.3c8.3-8.9,16.1-17.6,24.2-26c2.7-2.8,2.4-4.7-0.3-7.3c-14.1-13.8-29.2-26.4-45.5-37.2
				c-1.2-0.8-2.5-1.5-4.2-2.5c-6.3,10.2-12.3,20-18.5,30.1c7.2,5.5,14.1,10.7,21.3,16.1c2.3-2.9,4.4-5.8,6.9-8.2
				c1-0.9,3.7-1.4,4.4-0.7c1,1,1.9,3.8,1.3,4.8c-2.9,4.6-6.4,8.8-9.5,12.8c-9.9-7.1-19.3-14.1-28.9-20.6c-2.9-2-3.3-3.5-1.7-6.4
				c4.6-8.3,9-16.7,13.5-25c1.3-2.4,2.5-4.9,4-7.8c-5.5-2.9-10.4-5.8-15.6-8.1c-14.1-6.3-28.4-12.3-42.6-18.3
				c-2.1-0.9-4-1.4-4.9,1.7c-2.9,9.7-5.9,19.3-8.9,28.9c-0.7,2.3,0.2,3.4,2.3,4.1c4.2,1.5,8.3,3.2,12.5,4.7c9,3.2,9,3.2,13.1-5.6
				c0.2-0.5,0.4-1.4,0.7-1.5c1.2-0.4,2.7-1.1,3.8-0.8c1.5,0.5,3.7,1.2,2.5,3.9c-2,4.6-3.9,9.4-6.1,14.5
				c-12.9-4.4-25.3-8.6-37.9-12.8c0.4-2.2,0.7-3.7,1.1-5.2c2.6-10.3,5-20.7,8-31c1.2-4,0-5.5-3.6-6c-15.7-2.6-31.5-5.3-47.2-7.6
				c-5-0.8-10.1-0.7-15.5-1c-0.6,12.1-1.1,23.6-1.7,35.6c9.1,0.8,17.6,1.5,26.3,2.3c0.7-3.6,1.1-6.6,1.8-9.7
				c0.7-3.1,3.2-3.7,5.5-2.9c1,0.3,1.9,2.8,1.7,4.2c-0.4,4.1-1.3,8.1-2.1,12.2c-0.4,2.3-1.6,3.3-4.1,2.9c-5.8-0.8-11.6-1.3-17.4-1.8
				c-5.8-0.5-11.5-0.9-18-1.3c0-4.1,0.1-7.8,0-11.5c-0.4-8.3-1.1-16.5-1.3-24.7c-0.1-4.6-2.4-5.9-6.3-5.6
				c-10.6,0.9-21.3,1.5-31.9,2.7c-8.1,0.9-16.2,2.5-24.2,4c-2,0.4-5,0.6-4.2,4c2.3,10.1,4.7,20.2,7.3,30.2c0.2,0.9,2,2.1,2.9,2
				c7.5-1.3,15-2.8,22.8-4.3c0-3.8-0.3-7.5,0.1-11.1c0.1-1.2,1.8-2.6,3.1-3.1c0.6-0.2,2.6,1.3,2.8,2.2c0.9,5.4,1.4,10.9,2,16.5
				c-11.7,2.1-22.7,4.1-33.6,6c-5.4,1-6.1,0.6-7.6-5c-2.4-8.8-4.5-17.6-6.9-26.4c-1.7-6.4-3.9-7.7-10.1-5.6
				c-7.2,2.4-14.5,4.9-21.5,8c-10.1,4.3-20,9.1-30,13.8c-2.2,1-3.7,2.5-2.2,5.3c4.7,8.6,9.3,17.2,14,25.7c0.5,0.9,2.4,1.7,3.2,1.4
				c7-3,13.9-6.2,21.1-9.5c-1.4-3.8-2.7-6.9-3.6-10.2c-0.3-1.2,0.2-3.4,1.1-4c1.7-1.3,4.1-1.7,5.3,0.9c2.1,4.9,3.9,9.9,5.9,15
				c-12.5,6.1-24.2,11.9-36,17.7c-7-12-13.8-23.7-20.8-35.7c-20.2,11.7-37.8,25.8-54.6,41.4c8.4,9.2,16.3,17.9,24.5,26.8
				c6.8-6.1,13.3-12,19.9-18c-2-2.8-3.8-5.2-5.4-7.6c-1.2-1.8-2.5-4.2,0.2-5.4c1.4-0.6,4.2,0,5.2,1.2c3.3,3.6,6,7.8,9,11.7
				c-10.1,8.9-19.8,17.5-30.1,26.6c-9.6-9.5-19.3-19.2-29.6-29.4c-7.5,8.8-15,16.9-21.8,25.7c-6.5,8.4-12.1,17.3-18.1,26.1
				c-1.2,1.8-1.9,3.5,0.5,5.1c8.1,5.2,16.1,10.6,24.3,15.6c0.8,0.5,3.1,0,3.7-0.8c4.7-6.3,9.2-12.8,13.8-19.3
				c-2.7-2.6-5.2-4.7-7.2-7.1c-0.8-1-0.7-2.9-0.9-4.3c1.6-0.2,3.6-1.2,4.7-0.5c3.3,2,6.3,4.7,9.3,7.1c1.8,1.5,1.9,3.2,0.5,5.2
				c-6,8.9-12,17.8-17.9,26.8c-2,3.1-3.9,3.2-6.9,1.4c-8.7-5.3-17.6-10.2-26.4-15.5c-3-1.8-5-1.6-6.8,1.6
				C229.2,293,221,313,214.2,333.6c0.3,0.3,0.5,0.6,0.8,0.7c8.5,2.6,17,5.2,25.5,7.8c8.1,2.4,8.1,2.4,10.9-5.8c2-6,4-12,6.1-18.2
				c-3.3-1.3-6-2.3-8.7-3.3c-1.7-0.7-3.6-1.1-2.5-3.8c1-2.2,2.1-4.3,4.9-2.8c3.6,1.8,7.3,3.6,10.7,5.8c1.1,0.7,2.1,3,1.8,4.1
				c-3.7,11.5-7.7,22.8-11.7,34.7c-3.6-0.8-6.9-1.6-10.3-2.4c-8.4-2.1-16.7-4.3-25.1-6.2c-2.3-0.5-5.1-1.4-5.7,2.6
				c-2.9,20.4-5.8,40.8-8.7,61.3c-0.5,3.2,1.5,3.9,4,4c8.5,0.4,16.9,0.8,25.4,1.2c1.9,0.1,3.8,0,6,0c0.6-8.1,1.3-15.8,1.8-23.4
				c0.2-2.9-1.1-4.5-4.1-4.5c-1.9,0-4-0.2-5.7-1c-1.1-0.5-2.6-2.5-2.3-3.3c0.4-1.3,2.1-3,3.2-3c5.2,0.1,10.4,0.8,15.7,1.3
				c-1.4,14.2-2.8,27.7-4.2,41.6h-40.4c0.2,4.1,0.2,7.7,0.6,11.4c2.1,17.9,4.4,35.9,6.6,53.8c0.3,2.6,1.3,3.9,4.1,3.2
				c9.3-2.1,18.7-4.1,28-6.3c1-0.2,2.4-1.9,2.3-2.8c-1.1-8.3-2.4-16.5-3.7-24.9c-3.6,0.5-6.5,0.9-9.3,1.3c-2,0.3-4,0.5-4-2.7
				c0-2.7-0.3-5.2,3.5-5.3c3.6-0.1,7.3-0.1,10.8-0.8c2.8-0.5,3.6,0.8,3.9,2.9c2.2,12,4.3,24.1,6.6,36.7c-1.9,0.7-3.4,1.3-5,1.8
				c-9.6,2.9-19.2,5.5-28.8,8.6c-5.1,1.6-5.3,2.2-3.6,7.3c1.6,5.1,3.2,10.3,5.2,15.3c5.1,12.9,10.4,25.8,15.8,38.6
				c2.3,5.5,2.6,5.5,7.9,2.6c7.1-3.9,14.1-8.1,21.2-11.8c3.4-1.8,3.8-3.8,2.3-7.1c-1.7-3.7-3.1-7.6-4.7-11.4
				c-3.8-8.6-3.8-8.6-12.4-5.7c-0.3,0.1-0.6,0.3-0.8,0.2c-1.6-0.6-3.2-1.2-4.8-1.8c0.7-1.6,1-4.2,2.1-4.7c3.6-1.8,7.5-3.1,11.4-3.9
				c1.3-0.3,3.8,1.1,4.4,2.4c4.2,8.7,8.1,17.5,12,26.3c3.1,7,3.9,5.6-3,10c-8.2,5.3-16.6,10.4-25.1,15.3c-3.2,1.9-3.6,3.7-1.5,6.7
				c8.6,12.3,17,24.6,25.6,36.8c2.9,4,6.3,7.6,9.4,11.4c1.5,1.8,3.1,2.3,5,0.6c7.2-6.2,14.4-12.5,21.6-18.7c1.8-1.5,2.1-3.2,0.5-5.1
				c-5-6.1-9.9-12.3-14.9-18.5c-3.9,2.8-7.3,5.3-10.7,7.7c-4.4-4.8-4.4-5.5,0-9c3.4-2.7,6.9-5.2,10.4-7.8
				c8.7,10.5,17.3,20.7,25.9,31.1c-1.2,1.3-2.2,2.4-3.2,3.5c-3.9,4.2-7.8,8.4-11.7,12.5c0.4,0,0.8-0.1,1.3-0.1c2.2,0,4.4,0,6.6,0
				c1.8,0,3.6,0,5.4,0c2.8-3.1,5.6-6.1,8.4-9.2c5.3-6,5.5-4.4,0.2-10.8c-9.9-12.2-19.7-24.3-29.5-36.5c-0.6-0.8-1.2-1.5-2.1-2.6
				c-9.3,6.4-18.5,12.7-28.4,19.5c5.5,7.5,10.8,14.8,16.4,22.5c3-2,5.4-3.7,7.7-5.3c2.1-1.5,4-1.5,5.9,0.6s1.2,4-0.4,5.6
				c-3.8,3.7-7.7,7.2-12.4,11.6c-8.6-12.5-16.7-24.4-24.9-36.2c-1.8-2.6-0.1-3.9,1.7-5.1c8.6-5.6,17.2-11.1,25.7-16.6
				c1.4-0.9,2.8-1.8,4.4-2.9c-0.5-1.2-0.9-2.2-1.4-3.2c-6.9-14.6-14-29.1-20.7-43.8c-1.8-4-3.9-5.3-8-3.7c-7.5,3-15.1,5.6-22.7,8.4
				c-2.3,0.8-3,2.1-2.1,4.5c2.4,6.2,4.7,12.5,6.9,18.8c0.9,2.6,2.5,3.2,4.9,2.2c1.9-0.8,3.8-1.9,5.8-2.2c1.4-0.2,3.9,0.3,4.4,1.2
				c0.7,1.4,0.7,4.6-0.2,5.2c-4.3,2.9-8.9,5.2-13.5,7.4c-0.5,0.3-2.3-0.9-2.6-1.8c-4.6-11.7-9.1-23.5-13.7-35.3
				c-1.4-3.7,0-6,3.5-7.2c7.7-2.5,15.3-5,23-7.5c8.2-2.7,9.1-4.3,7.6-13.1c-2.7-15.5-5.5-31.1-8.4-47.4c-10.4,0.7-21.5,1.5-33.5,2.4
				c1,9.6,2,18.7,3,28.2c3.8-0.5,7-0.8,10.1-1.3c3.3-0.5,3.9,1.6,4.6,4.1c0.7,2.8-0.8,3.5-3,3.9c-4.1,0.8-8.2,1.6-12.2,2.4
				c-2.7,0.5-4.2-0.7-4.6-3.5c-1.8-13.7-3.6-27.3-5.5-41.5c5.4-0.4,10.2-0.7,15-1c7.5-0.5,14.9-1.2,22.4-1.5c3.5-0.1,4.4-1.8,4.6-5
				c0.5-11.8,1.1-23.6,1.8-35.4c0.3-4.5,1.1-9.1,1.2-13.6c0-1.4-1.2-3.8-2.2-4.1c-9.7-2.3-19.5-4.3-30.2-6.6
				c-1.2,8.8-2.4,16.9-3.3,25c-0.4,3.4,2.3,4,5,4.3c2.9,0.3,7.2-1.2,6.9,4.2c-0.3,5.5-4.6,3.2-7.4,3.5c-3.8,0.4-7.7,0.1-12.1,0.1
				c0.3-16,3.7-31.1,6.1-47c4.4,0.9,8.4,1.7,12.4,2.6c7.6,1.7,15.2,3.3,22.7,5.3c3.2,0.9,4.6-0.3,5.6-3.1
				c5.6-15.8,11.2-31.5,16.7-47.4c0.4-1.2-0.6-3.9-1.7-4.4c-8.9-4.8-18-9.3-27.8-14.3c-3.4,8.4-6.5,15.9-9.3,23.6
				c-0.3,0.8,0.8,2.6,1.7,3.2c2,1.3,4.4,1.9,6.3,3.3c1.2,0.9,2.9,2.7,2.7,3.8c-0.4,2.3-1.9,4.9-4.9,4.1c-4.5-1.3-9-2.9-13.3-4.8
				c-0.9-0.4-1.4-3.4-0.9-4.7c3.1-8.7,6.4-17.3,9.9-25.8c1.8-4.3,4.1-8.4,6.4-13.1c11.9,6.3,23.6,12.4,35.5,18.6
				c1-1.3,1.8-2.4,2.6-3.6c9.1-13.4,18.2-26.9,27.4-40.2c1.3-1.9,2.1-3.4,0.2-5.2c-7.6-7-15.2-14-23.5-21.6
				c-5.5,7.3-10.5,13.8-15.2,20.5c-0.5,0.7,0.2,2.9,1,3.8c1.6,1.7,4,2.7,5.4,4.5c0.9,1.1,1.2,3.7,0.5,4.8c-0.7,1.2-3.4,2.3-4.4,1.8
				c-4.4-2.3-8.6-5.1-12.6-8.1c-0.6-0.5-0.3-3.5,0.5-4.6c6.3-8.7,12.7-17.3,19.2-25.8c2-2.7,4.3-5.2,6.5-7.9
				c10.4,9.6,20.7,18.9,30.1,27.6c14.7-12.8,28.5-24.8,42.9-37.4c-5.7-8.3-11.6-17-17.6-25.7c-0.5-0.7-2.6-0.9-3.4-0.4
				c-6.5,4.5-12.9,9.3-19.6,14.1c2.1,3,3.9,5.7,5.9,8.2c2.4,3.1,0.3,5-1.6,6.9c-2.2,2.2-3.6,0.1-4.8-1.3c-3.4-3.9-6.7-8-10.4-12.5
				c11.6-10.6,23.7-19.6,37-27.7c5.7,9.2,11.2,17.9,16.6,26.7c4.5,7.1,4.5,7.2,12.1,3.6c13-6.2,25.8-12.5,38.8-18.6
				c3.6-1.7,4.6-3.6,3.1-7.5c-2.9-7.5-5.2-15.3-8.1-22.9c-0.5-1.3-2.7-3-3.6-2.7c-7.7,2.3-15.2,5.1-23.3,7.8c1.1,2.9,1.9,4.9,2.7,7
				c2.6,6.1,2.1,7.1-4.7,9.7c-2.9-5.7-5.8-11.4-8.8-17.3c1.4-0.9,2.2-1.6,3.2-2c11.4-4.8,22.9-9.5,34.3-14.3c3.9-1.7,6-0.4,7.2,3.6
				c2.9,9.9,6,19.9,8.9,29.8c0.4,1.3,0.8,2.7,1.2,3.9c18.3-3.5,36.3-6.9,55.1-10.4c0-2.1,0.2-4.9,0-7.7c-0.5-7.4-1.1-14.8-1.8-22.1
				c-0.2-2.5-1.3-3.9-4-3.7c-7.4,0.8-14.9,1.4-22.8,2.2c0.3,3.8,0.9,7.2,0.9,10.7c0,1.4-0.9,3.8-1.9,4.1c-2.4,0.8-5.3,0.7-6.1-2.6
				c-1.1-4.7-2-9.5-2.7-14.2c-0.1-0.8,1.3-2.5,2.2-2.6c14.4-2.1,28.8-4,44-6c0,3.7,0,6.4,0,9c0.1,8.6,0.1,17.1,0.4,25.7
				c0.2,6.4,0.4,6.7,6.5,7.3c13.1,1.2,26.3,2.2,39.4,3.4c3.3,0.3,6.6,0.9,10.6,1.5c2-10.5,4-20.8,5.7-31.1c0.2-0.9-1.3-3-2.3-3.2
				c-6.8-1.3-13.6-2.5-20.5-3.2c-1.2-0.1-3.1,1.9-3.7,3.4c-0.8,1.9-0.5,4.3-1.2,6.2c-0.5,1.3-2.1,3.3-2.9,3.2
				c-1.6-0.4-4.3-1.8-4.3-2.9c-0.2-5.2,0.1-10.4,0.8-15.6c0.1-0.9,3.2-2.1,4.7-1.9c10.7,1.4,21.4,3.1,32.1,4.8
				c2.6,0.4,5.1,1.1,8.3,1.7c-1.6,7.5-3.1,14.7-4.5,21.9c-1,5-2.3,10-3,15.1c-0.2,1.3,1,3.1,2.1,4.2c0.8,0.8,2.3,1,3.4,1.4
				c13.7,5,27.5,9.9,41.1,15.1c3.8,1.5,5.9,1,7.7-3c3.8-8.5,8-16.8,12.5-26c-8.5-3.9-16.4-7.5-24.6-11.3c-1,2.5-1.9,4.6-2.8,6.7
				c-2.6,6.3-3.6,6.7-10.6,3.2c1.8-5.3,3.6-10.9,5.7-16.2c0.4-1,3-2,4-1.5c13.2,5.4,26.3,11.1,40.1,17c-6.9,13-13.2,24.9-19.4,36.7
				c15.5,11,30.8,21.8,46.5,32.9c7.1-8.3,14.5-16.9,22.2-25.7c-7.2-6.1-14.2-11.9-21.3-17.9c-2.6,3-5,5.7-7.4,8.4
				c-1.5,1.7-3.1,2.2-5.1,0.6c-2-1.6-2.7-3.3-1.2-5.5c3.1-4.7,6.3-9.3,9.9-14.4c12.3,9.9,24.1,19.5,36.5,29.5
				c-9.7,10.7-19,20.9-28.3,31.2c6.3,6.9,12.6,13.3,18.4,20.2c5.2,6.1,10,12.6,14.7,19.1c2.4,3.4,4.4,4.4,8,1.7
				c6.7-5.1,13.6-9.8,20.5-14.7c2.5-1.8,2.9-3.7,0.8-6.3c-3.9-4.8-7.7-9.7-11.5-14.7c-1.6-2.1-3.2-2.4-5.2-0.6
				c-2.2,1.9-4.6,3.7-7.3,5.9c-2.1-2.1-4.1-4.3-6.5-6.8c4.6-3.8,8.7-7.3,12.9-10.8c2.1-1.7,4.1-1.5,5.8,0.7
				c8.4,11.5,16.8,23,25.4,34.7c-12.1,7.8-23.3,15-34.7,22.3c2,4.1,4,7.7,5.7,11.4c5.5,12.1,11,24.2,16.2,36.5
				c1.3,3.1,2.8,3.9,5.7,2.9c8.3-2.9,16.5-5.8,24.8-8.7c2.7-0.9,3.4-2.5,2.3-5.2c-2.4-5.9-4.8-11.8-7.1-17.7c-1.2-3.1-3.3-3.5-6-2.4
				c-2.4,1-4.8,2.1-7.2,3.1c-4.9-5.6-4.7-7,1.6-10.4c3.8-2.1,7.6-4,11.9-6.3c0.8,1.8,1.7,3.3,2.4,5c4.3,11.4,8.6,22.8,12.9,34.2
				c1.4,3.7,0.4,5.7-3.4,6.9c-9,2.8-18,5.8-26.9,9c-6.2,2.2-6.1,2.3-4.9,8.7c3.1,16.5,6.1,33,9.1,49.4c4.2,0,9,0.2,13.8,0
				c5.1-0.2,10.2-0.8,15.3-1.4c3-0.3,4.4-2.3,4.1-5.3c-0.6-5.9-1.3-11.9-2-17.8c-0.4-3.7-2.5-5.1-6.1-4.5c-1.4,0.2-2.8,0.2-4.1,0.4
				c-3.4,0.6-4.3-1.5-5-4.3c-0.7-3.3,1.5-3.5,3.5-3.9c4.1-0.9,8.1-1.8,12.2-2.6c2.3-0.5,3.7,0.6,4,3.1c1.8,14.3,3.6,28.5,5.5,43.6
				c-5.2,0-9.9-0.2-14.6,0c-8,0.4-16.1,1-24.1,1.4c-2.7,0.1-3.7,0.9-3.9,4c-0.8,16.4-1.9,32.7-2.8,49c-0.1,1.3,0.8,3.6,1.7,3.9
				c10,2.8,20.1,5.3,31,8.2c1.1-7.6,2.2-14.3,3-21c1-8,0.9-8.2-7.1-8.6c-3.6-0.2-4.8-1.6-4.7-5.2c0.1-3.8,2.1-4.2,4.9-3.9
				c4.8,0.5,9.6,1,15.2,1.6c-1.2,9.6-2.2,18.7-3.5,27.9c-0.6,4.2-1.5,8.4-2.3,12.6c-1.1,5.6-1.1,5.7-6.5,4.6c-9.8-2-19.6-3.8-29.4-6
				c-3.8-0.9-5.4,0.2-6.6,4c-5.3,16.3-10.8,32.5-16.5,49.5c5.2,2.6,10.7,5.4,16.3,8.1c3.4,1.6,6.9,3.1,10.2,4.8
				c2.2,1.1,3.6,0.5,4.6-1.7c2.7-6.2,5.4-12.5,8.2-18.7c1.2-2.8,0.2-4.3-2.3-5.2c-1.7-0.6-3.5-1-5.1-1.9c-1.3-0.8-2.3-2.3-3.4-3.4
				c1.8-1.6,3.8-4.7,5.2-4.4c4.7,0.9,9.2,2.9,13.7,4.8c0.7,0.3,1.5,2.3,1.2,3c-5.2,13.6-10.6,27.1-16.2,41.1
				c-3.2-1.5-5.5-2.6-7.7-3.7c-8.7-4.4-17.4-8.8-26.1-13.3c-2.4-1.3-3.9-0.9-5.5,1.5c-9.6,14.6-19.4,29.2-29.4,44.1
				c7.8,6.9,16.3,14.4,25.2,22.3c4.8-6.6,9.6-13,14.3-19.5c1.6-2.3,1.1-4.3-1.3-5.8c-1.4-0.9-3-1.7-4.1-2.9c-1-1.2-2.4-3.4-1.9-4.3
				c1.1-2.1,3-4.8,5.9-3.1c4.2,2.5,8.1,5.5,11.8,8.6c0.7,0.6,0.8,3.1,0.2,3.9c-7.4,10.2-15,20.2-22.5,30.2c-2.3,3.1-4.7,2.4-7.1,0.2
				c-7.4-6.9-14.8-13.8-22.2-20.7c-1.2-1.1-2.4-2.3-3.4-3.2c-9.4,8.2-18.7,16.3-28.1,24.4c3.6,0.4,7.2,0.8,10.8,1.3
				c5.3-4.6,10.5-9.2,15.7-13.7c6,5.8,12,11.6,17.9,17.4c7.4-0.2,14.8-0.4,22.3-0.4c11.8-14.3,28.1-36.7,30.9-43.6
				c-9.4-5.6-18.9-11.3-28.6-16.7c-0.7-0.4-2.6,0.5-3.3,1.4c-3.7,5-7.1,10.2-10.6,15.3c-2,2.9-1.5,5.2,1.4,7.2
				c2.2,1.5,4.2,3.1,6.2,4.7c-2.9,5.2-4.5,5.7-8.6,2.5c-2.3-1.8-4.5-3.8-6.7-5.8c-2.3-2-2.5-3.9-0.6-6.6
				c5.4-7.8,10.6-15.7,15.8-23.6c1.3-2,2.7-3.9,4.1-5.9c3.2,1.8,6,3.3,8.8,4.9c7.7,4.4,15.5,8.9,23.2,13.4c2.5,1.5,4.1,1.5,5.6-1.4
				c9.5-17.8,17.3-36.3,23.9-55.4c1.3-3.7,0.1-5.7-3.3-6.7c-8.4-2.5-16.8-5-25.1-7.6c-2.4-0.8-3.7,0.4-4.6,2.4
				c-2,4.8-4,9.7-5.8,14.6c-2.6,7.2-2.5,7.2,4.5,10.4c0.8,0.3,1.8,0.5,2.2,1.1c0.9,1.2,2.3,3.4,2,3.8c-1.1,1.2-2.9,2.6-4.4,2.5
				c-2.4-0.2-4.7-1.5-7.1-2.4c-6.6-2.7-7.1-4-4.8-11c2.7-8.1,5.6-16.1,8.2-24.2c2.1-6.6,2.4-6.9,9.1-5.3c9.6,2.3,19.2,4.6,28.7,7
				c3.3,0.8,4.9-0.3,5.5-3.7c0.8-4.6,2.2-9.2,2.8-13.8c2-14.9,3.7-29.9,5.6-44.9C791.1,432.1,790,430.3,786.3,430.3z"/>
			<path d="M325.9,620.5c7.2,0.1,14.5,0.2,21.7,0.5c-4.6-3.3-9.2-6.6-13.9-10C331.2,614.1,328.5,617.2,325.9,620.5z"/>
			<path class="st5" d="M762.7,443.1c-0.1,3.6,1.1,5,4.7,5.2c7.9,0.4,8,0.6,7.1,8.6c-0.8,6.7-1.9,13.4-3,21c-11-2.8-21-5.3-31-8.2
				c-0.9-0.2-1.7-2.6-1.7-3.9c0.9-16.3,2-32.7,2.8-49c0.1-3.1,1.2-3.8,3.9-4c8-0.4,16.1-1.1,24.1-1.4c4.7-0.2,9.3,0,14.6,0
				c-1.9-15.1-3.7-29.3-5.5-43.6c-0.3-2.5-1.6-3.6-4-3.1c-4.1,0.8-8.1,1.7-12.2,2.6c-2,0.5-4.3,0.7-3.5,3.9c0.6,2.8,1.6,4.9,5,4.3
				c1.4-0.2,2.8-0.2,4.1-0.4c3.5-0.6,5.7,0.7,6.1,4.5c0.7,5.9,1.4,11.9,2,17.8c0.3,3.1-1.1,5-4.1,5.3c-5.1,0.6-10.2,1.1-15.3,1.4
				c-4.8,0.2-9.6,0-13.8,0c-3-16.5-6-33-9.1-49.4c-1.2-6.4-1.4-6.5,4.9-8.7c8.9-3.1,17.9-6.2,26.9-9c3.8-1.2,4.9-3.2,3.4-6.9
				c-4.3-11.4-8.6-22.8-12.9-34.2c-0.6-1.7-1.5-3.2-2.4-5c-4.3,2.2-8.1,4.2-11.9,6.3c-6.3,3.4-6.5,4.8-1.6,10.4
				c2.4-1,4.8-2.1,7.2-3.1c2.7-1.1,4.8-0.8,6,2.4c2.3,5.9,4.7,11.9,7.1,17.7c1.1,2.7,0.4,4.2-2.3,5.2c-8.3,2.9-16.5,5.8-24.8,8.7
				c-2.9,1-4.4,0.2-5.7-2.9c-5.2-12.3-10.7-24.4-16.2-36.5c-1.7-3.7-3.6-7.3-5.7-11.4c11.4-7.4,22.7-14.6,34.7-22.3
				c-8.6-11.8-17-23.3-25.4-34.7c-1.6-2.2-3.7-2.5-5.8-0.7c-4.2,3.4-8.4,7-12.9,10.8c2.4,2.5,4.5,4.6,6.5,6.8c2.7-2.2,5-3.9,7.3-5.9
				c2-1.8,3.6-1.5,5.2,0.6c3.8,4.9,7.5,9.9,11.5,14.7c2.1,2.6,1.7,4.5-0.8,6.3c-6.8,4.9-13.8,9.6-20.5,14.7c-3.6,2.7-5.6,1.7-8-1.7
				c-4.7-6.6-9.5-13-14.7-19.1c-5.8-6.9-12.1-13.3-18.4-20.2c9.3-10.3,18.6-20.6,28.3-31.2c-12.3-10-24.2-19.5-36.5-29.5
				c-3.5,5.1-6.7,9.8-9.9,14.4c-1.5,2.2-0.7,3.9,1.2,5.5c2,1.6,3.5,1.1,5.1-0.6c2.4-2.7,4.8-5.5,7.4-8.4c7.1,6,14,11.8,21.3,17.9
				c-7.6,8.9-15,17.4-22.2,25.7c-15.7-11.1-31-22-46.5-32.9c6.2-11.8,12.5-23.7,19.4-36.7c-13.8-5.9-26.9-11.6-40.1-17
				c-1-0.4-3.6,0.6-4,1.5c-2.2,5.3-3.9,10.8-5.7,16.2c7,3.5,8.1,3.1,10.6-3.2c0.8-2.1,1.7-4.2,2.8-6.7c8.2,3.8,16.1,7.4,24.6,11.3
				c-4.5,9.2-8.7,17.5-12.5,26c-1.8,4-3.8,4.5-7.7,3c-13.6-5.2-27.4-10.1-41.1-15.1c-1.2-0.4-2.7-0.6-3.4-1.4
				c-1-1.1-2.3-2.9-2.1-4.2c0.7-5.1,2-10,3-15.1c1.5-7.2,3-14.4,4.5-21.9c-3.2-0.7-5.7-1.3-8.3-1.7c-10.7-1.7-21.4-3.4-32.1-4.8
				c-1.5-0.2-4.6,1-4.7,1.9c-0.7,5.2-1,10.4-0.8,15.6c0,1.1,2.7,2.6,4.3,2.9c0.7,0.2,2.4-1.9,2.9-3.2c0.7-2,0.4-4.4,1.2-6.2
				c0.7-1.5,2.6-3.5,3.7-3.4c6.9,0.7,13.7,1.9,20.5,3.2c1,0.2,2.5,2.2,2.3,3.2c-1.7,10.3-3.8,20.6-5.7,31.1c-4-0.6-7.3-1.2-10.6-1.5
				c-13.1-1.2-26.3-2.2-39.4-3.4c-6.1-0.6-6.4-0.9-6.5-7.3c-0.2-8.5-0.3-17.1-0.4-25.7c0-2.6,0-5.3,0-9c-15.2,2-29.6,3.9-44,6
				c-0.9,0.1-2.3,1.8-2.2,2.6c0.7,4.8,1.6,9.5,2.7,14.2c0.8,3.3,3.7,3.4,6.1,2.6c1-0.3,1.9-2.7,1.9-4.1c0-3.5-0.5-7-0.9-10.7
				c7.9-0.7,15.3-1.4,22.8-2.2c2.7-0.3,3.8,1.2,4,3.7c0.6,7.4,1.3,14.7,1.8,22.1c0.2,2.8,0,5.6,0,7.7c-18.7,3.6-36.8,7-55.1,10.4
				c-0.4-1.2-0.8-2.5-1.2-3.9c-3-9.9-6-19.8-8.9-29.8c-1.2-3.9-3.3-5.2-7.2-3.6c-11.4,4.8-22.9,9.5-34.3,14.3c-1,0.4-1.8,1.2-3.2,2
				c3,5.9,5.9,11.7,8.8,17.3c6.8-2.7,7.2-3.7,4.7-9.7c-0.9-2-1.6-4.1-2.7-7c8.1-2.8,15.6-5.5,23.3-7.8c0.9-0.3,3.1,1.5,3.6,2.7
				c2.9,7.6,5.2,15.3,8.1,22.9c1.5,3.9,0.5,5.8-3.1,7.5c-13,6-25.9,12.4-38.8,18.6c-7.6,3.6-7.7,3.6-12.1-3.6
				c-5.5-8.7-10.9-17.5-16.6-26.7c-13.3,8-25.4,17.1-37,27.7c3.8,4.6,7,8.6,10.4,12.5c1.2,1.4,2.6,3.5,4.8,1.3
				c1.9-1.9,4-3.8,1.6-6.9c-2-2.5-3.8-5.2-5.9-8.2c6.7-4.8,13-9.6,19.6-14.1c0.8-0.5,2.9-0.3,3.4,0.4c6.1,8.6,12,17.4,17.6,25.7
				c-14.4,12.6-28.2,24.6-42.9,37.4c-9.4-8.7-19.7-18-30.1-27.6c-2.2,2.7-4.5,5.2-6.5,7.9c-6.5,8.6-12.9,17.1-19.2,25.8
				c-0.8,1.1-1.1,4.1-0.5,4.6c4,3,8.2,5.8,12.6,8.1c1,0.5,3.7-0.6,4.4-1.8c0.7-1.1,0.4-3.7-0.5-4.8c-1.4-1.8-3.8-2.8-5.4-4.5
				c-0.8-0.9-1.5-3.1-1-3.8c4.7-6.6,9.7-13.1,15.2-20.5c8.3,7.6,15.9,14.6,23.5,21.6c1.9,1.7,1.1,3.3-0.2,5.2
				c-9.2,13.4-18.3,26.8-27.4,40.2c-0.8,1.1-1.6,2.2-2.6,3.6c-11.9-6.2-23.6-12.4-35.5-18.6c-2.4,4.8-4.7,8.8-6.4,13.1
				c-3.5,8.5-6.8,17.1-9.9,25.8c-0.5,1.4,0.1,4.3,0.9,4.7c4.3,2,8.8,3.5,13.3,4.8c2.9,0.8,4.4-1.8,4.9-4.1c0.2-1.1-1.4-3-2.7-3.8
				c-1.9-1.4-4.3-2-6.3-3.3c-0.9-0.6-2-2.4-1.7-3.2c2.8-7.7,6-15.2,9.3-23.6c9.8,4.9,18.9,9.4,27.8,14.3c1.1,0.6,2.1,3.2,1.7,4.4
				c-5.4,15.8-11.1,31.6-16.7,47.4c-1,2.8-2.3,4-5.6,3.1c-7.5-2-15.1-3.6-22.7-5.3c-4-0.9-8-1.7-12.4-2.6c-2.5,15.9-5.8,31-6.1,47
				c4.4,0,8.3,0.3,12.1-0.1c2.7-0.3,7.1,2,7.4-3.5c0.3-5.4-4-3.9-6.9-4.2c-2.7-0.3-5.3-1-5-4.3c0.9-8.1,2.1-16.2,3.3-25
				c10.7,2.3,20.5,4.3,30.2,6.6c1,0.2,2.2,2.7,2.2,4.1c-0.1,4.5-1,9.1-1.2,13.6c-0.7,11.8-1.3,23.6-1.8,35.4c-0.1,3.2-1.1,4.9-4.6,5
				c-7.5,0.3-15,1-22.4,1.5c-4.8,0.3-9.6,0.7-15,1c1.9,14.2,3.7,27.9,5.5,41.5c0.4,2.8,1.9,4,4.6,3.5c4.1-0.8,8.2-1.6,12.2-2.4
				c2.1-0.4,3.7-1.1,3-3.9c-0.6-2.5-1.3-4.7-4.6-4.1c-3.1,0.5-6.3,0.8-10.1,1.3c-1-9.5-2-18.6-3-28.2c12-0.9,23.1-1.7,33.5-2.4
				c2.9,16.4,5.7,31.9,8.4,47.4c1.6,8.8,0.7,10.4-7.6,13.1c-7.6,2.6-15.3,5-23,7.5c-3.5,1.2-5,3.5-3.5,7.2
				c4.5,11.8,9,23.6,13.7,35.3c0.3,0.9,2.1,2.1,2.6,1.8c4.6-2.3,9.2-4.6,13.5-7.4c0.9-0.6,0.9-3.8,0.2-5.2c-0.5-0.9-2.9-1.4-4.4-1.2
				c-2,0.3-3.9,1.4-5.8,2.2c-2.4,1-4,0.4-4.9-2.2c-2.3-6.3-4.5-12.5-6.9-18.8c-1-2.5-0.2-3.7,2.1-4.5c7.6-2.8,15.2-5.4,22.7-8.4
				c4.1-1.6,6.2-0.3,8,3.7c6.7,14.7,13.8,29.2,20.7,43.8c0.5,1,0.9,2,1.4,3.2c-1.6,1.1-3,2-4.4,2.9c-8.6,5.5-17.2,11-25.7,16.6
				c-1.8,1.2-3.5,2.4-1.7,5.1c8.2,11.8,16.3,23.7,24.9,36.2c4.6-4.3,8.6-7.9,12.4-11.6c1.7-1.6,2.3-3.5,0.4-5.6s-3.7-2.1-5.9-0.6
				c-2.4,1.7-4.8,3.3-7.7,5.3c-5.6-7.6-10.9-15-16.4-22.5c9.9-6.8,19.1-13.1,28.4-19.5c0.9,1.1,1.5,1.9,2.1,2.6
				c9.8,12.2,19.6,24.4,29.5,36.5c5.2,6.4,5,4.9-0.2,10.8c-2.7,3.1-5.5,6.2-8.4,9.2c3.7,0,7.4,0,11.1,0.1c2.7-3.2,5.3-6.4,7.8-9.5
				c4.7,3.4,9.3,6.7,13.9,10c3.5,0.1,7,0.3,10.6,0.5c-61.7-45.1-101.7-119.3-101-201.9c1.1-139.2,110.8-244.4,239.1-244.6
				C629,175,735.7,284.7,736,420.9c0.2,80.2-37.4,151.8-95.8,196.8c2.8,0.2,5.7,0.5,8.5,0.7c9.4-8.1,18.7-16.2,28.1-24.4
				c1,0.9,2.2,2.1,3.4,3.2c7.4,6.9,14.8,13.8,22.2,20.7c2.4,2.2,4.8,2.9,7.1-0.2c7.5-10.1,15.1-20.1,22.5-30.2
				c0.6-0.9,0.5-3.4-0.2-3.9c-3.8-3.1-7.7-6.1-11.8-8.6c-2.9-1.8-4.8,1-5.9,3.1c-0.5,0.8,0.9,3.1,1.9,4.3c1.1,1.2,2.7,2,4.1,2.9
				c2.3,1.5,2.9,3.5,1.3,5.8c-4.7,6.5-9.5,12.9-14.3,19.5c-8.9-7.9-17.3-15.3-25.2-22.3c10-15,19.7-29.5,29.4-44.1
				c1.6-2.4,3.1-2.7,5.5-1.5c8.7,4.5,17.4,8.9,26.1,13.3c2.2,1.1,4.5,2.1,7.7,3.7c5.5-14,10.9-27.5,16.2-41.1c0.3-0.8-0.5-2.7-1.2-3
				c-4.5-1.9-9-3.9-13.7-4.8c-1.4-0.3-3.5,2.8-5.2,4.4c1.1,1.2,2.1,2.6,3.4,3.4c1.5,0.9,3.3,1.3,5.1,1.9c2.6,0.9,3.6,2.4,2.3,5.2
				c-2.8,6.2-5.5,12.4-8.2,18.7c-1,2.2-2.3,2.8-4.6,1.7c-3.4-1.7-6.9-3.1-10.2-4.8c-5.6-2.7-11.1-5.5-16.3-8.1
				c5.7-16.9,11.3-33.1,16.5-49.5c1.2-3.8,2.8-4.8,6.6-4c9.7,2.2,19.6,4.1,29.4,6c5.3,1.1,5.4,1,6.5-4.6c0.8-4.2,1.7-8.4,2.3-12.6
				c1.2-9.1,2.3-18.2,3.5-27.9c-5.6-0.6-10.4-1.2-15.2-1.6C764.8,438.9,762.8,439.4,762.7,443.1z"/>
		</g>
	</g>
	<g>
		<path class="st2" d="M436.5,363.9c1.5-6.8,0.4-14.4,0.4-21.6c-5.5,0.2-10.1,4.8-10.4,10.6c-0.3,7.4-0.1,14.9-0.1,22.4
			c0.4,0.2,0.8,0.4,1.1,0.6C430.7,371.9,435.4,368.4,436.5,363.9z"/>
		<path class="st2" d="M415.3,392.4c7.1,0,13.5,0.2,19.8-0.1c6.4-0.3,10.3-4.1,11.7-10.8C433.9,377.4,422.9,380.9,415.3,392.4z"/>
		<path class="st2" d="M557.8,377.2c3.6,3.5,7.1,7.1,10.9,10.3c3.8,3.2,8.4,4.4,12.5,1.3c4.6-3.5,8.6-7.8,13.9-12.8h-36.6
			C558.3,376.4,558,376.8,557.8,377.2z"/>
		<path class="st2" d="M515.5,307c5.1-0.4,8-4.8,8.3-10.6c-4.5,0-9.2,0.7-13.6-0.1c-8.5-1.5-12.3,5-17.7,10.9
			C500.8,307.1,508.2,307.6,515.5,307z"/>
		<path class="st2" d="M462.4,363.5c5.7-0.3,9.4-4.5,9.7-10.6c-11.1,0.2-23.2-3.9-30.7,10.7C448.5,363.6,455.5,363.9,462.4,363.5z"
			/>
		<path class="st2" d="M403.1,438.2c3.2-2.5,3.6-5.2,2.5-9c-1.4-4.9-2.6-10-3.1-15.1c-4.4-49.2,21.3-92.8,65.9-111.8
			c7.7-3.3,9.2-7,5.9-15.8c-33.1,9.7-57.3,30.5-72.9,61.8c-15.4,30.9-16.1,62.8-5.1,96.8C399.3,442,401,439.8,403.1,438.2z"/>
		<path class="st2" d="M484,313.8c1.7-2.1,4.1-4.4,4.3-6.7c0.6-7.1,0.2-14.2,0.2-21.4c-5.7,0.9-10.3,4.5-10.5,9.1
			c-0.4,8.2-0.1,16.4-0.1,25.5C480.3,317.7,482.3,315.9,484,313.8z"/>
		<path class="st2" d="M488.2,335.5c5.9-0.4,8.9-3.8,9.9-10.1c-13.4-3.8-25.1-0.1-30.9,10.2C474.4,335.6,481.3,335.9,488.2,335.5z"
			/>
		<path class="st2" d="M461.7,336.8c1.4-7.4,0.4-15.4,0.4-23.1c-6.5,1.5-9,3.2-9.4,9c-0.6,8.2-0.2,16.4-0.2,25.9
			C456.1,344.2,460.9,341,461.7,336.8z"/>
		<path class="st2" d="M611.4,435.1c2.5-1.9,4.7-3.4,6.8-5.1c2.6-2.1,3-4.4,0.1-6.6c-2.3-1.7-4.7-3.3-6.7-4.8
			c10.6-15.2,11.1-17.5,5.7-22.4c-7.3,7.4-14.6,14.9-22.3,22.7c4.8,4.8,9.5,9.7,14.3,14.3c2.2,2.1,2.2,3.8,0,5.9
			c-3.7,3.5-6.9,7.5-10.7,10.8c-3.4,3-3.5,5-0.1,8.1c4.8,4.3,6.7,9.9,4.1,16.2c-2.6,6.3-7.5,9.3-14.2,9.3c-9.9-0.1-19.7-0.3-29.6,0
			c-10.4,0.3-18.9-3.5-26-11.1c-3.1-3.3-5.8-7-8.6-10.5c-2.7,2.2-4,3.3-5.4,4.3c-9.5,6.7-23.4,6.6-31.9-0.8
			c-9.5-8.3-8.1-6.4-0.9-14.3c2.6-2.8,4.2-3.4,7.1-0.2c4.8,5.3,10.9,6.3,15.9,3.7c2.7-1.3,3.7-2.9,1.1-5.4c-2.5-2.5-4.8-5.4-7.5-7.5
			c-3.6-2.8-2.8-4.9,0-7.8c15.2-15.4,22-34.3,21.9-56.1c-0.1-10.8,0.1-21.6,0-32.4c-0.1-10.6,3.5-19.4,10.8-26.7
			c5-5,10-10.1,14.8-15.3c1.2-1.2,1.8-3,2.6-4.5c-1.7-1-3.3-2.4-5.1-2.8c-7.1-1.8-11.7,2.7-16.1,7.2c-17.7,18-35.3,36-52.9,54
			c-31.4,32.2-62.9,64.4-94.2,96.7c-14.6,15.1-18.5,33.1-12.2,53.5c0.7,2.1,0.8,4.8,0.2,6.9c-4.5,13.3-3.8,26.2,1.8,39
			c0.6,1.5,1.1,3.3,0.8,4.8c-2.1,10.5-1.4,21,3.6,30c5.2,9.4,10.3,18.9,15.8,28c4.2-1.9,8.7-2.9,13.3-2.9c0.1,0,0.2,0,0.3,0
			c-2.9-4-4.3-8.2-5.1-12.6c-2.4-12.9,1-24.1,10-33.4c16-16.5,32.1-33,48.1-49.5c1.7-1.7,3.3-3.4,4.9-5.2c7.8-9,7.6-18.6-0.6-27.4
			c-1-1.1-2.1-2.2-3.3-3.2c-2.5-2.3-2.5-4.3,0.1-6.8c7.8-7.7,7.7-7.8,15,0.1c13.3,14.5,12.9,34.8-0.9,48.8
			c-15.8,16-31.3,32.3-47.2,48.2c-11.2,11.2-18.2,24-17.9,41.1c4.3,0.2,8.6,0.7,12.8,1.6c-0.2-10.9,3.7-22.2,12.2-30.6
			c17.1-16.8,33.6-34.3,50.3-51.5c8.1-8.3,12.8-18.4,13.3-30.2c0.2-5.9-0.6-11.8-1-18.3c1.2,0,2.7,0.2,4.1,0
			c4.9-0.8,10-1.2,14.6-2.8c3.3-1.2,5-0.7,7.4,1.7c7,7,15.3,11.5,25.1,12.9c1.4,0.2,2.8,0.6,5.2,1.1c-10.7,19.8-20.6,38.8-31.1,57.4
			c-9.7,17.2-16.7,34.8-14.8,55.4c0.6,7.1,2.5,14.2,5.3,20.8c4.7-2.5,10-4,15.3-4c1.3,0,2.5-0.1,3.8-0.2c0.1-1.5,0.3-3,0.7-4.5
			c1.5-6,5.1-11.6,8.4-17.1c1.8-3,4.9-5.1,7.2-7.8c6.9-7.8,6.9-17.7,0.1-25.4c-3.2-3.7-6.6-7.2-10.2-10.6c-2.2-2-2.3-3.8-0.8-6.2
			c2-3.1,3.7-6.4,6.3-10.9c7.3,8.2,14.5,15,20.1,22.9c8.7,12.5,6.1,30.2-5.2,41.8c-5,5.1-9.9,10.4-13.2,16.7
			c5.9-0.7,11.8-1.5,17.6-2.2c0.9-1,1.9-2,2.9-2.9c20.8-19.5,21.3-50.4,1.3-70.6c-5-5-9.9-10.2-14.9-15.2c-1.9-1.8-2.3-3.4-0.8-5.7
			c2.1-3.3,3.8-6.8,6.3-11.1c11.1,13,24.4,22.6,32.1,37.5c10.9,21.1,8.9,47.1-4.6,66.2c0.4,0,0.8,0,1.2-0.1
			c4.5-0.1,8.9,0.9,12.8,2.6c0.5-0.9,1.1-1.7,1.5-2.6c14-25.6,11.8-61.2-6.5-83.7c-8.2-10.1-17.8-19-26.6-28.6
			c-1.3-1.5-2.8-4.2-2.3-5.7c1-3.2,2.3-6.9,7.1-6.6c5.2,0.3,10.4,0.3,15.5,0c18.8-1,31.3-17.4,26-35.4c-1.8-6-1.3-9.6,3.1-13.2
			c2.4-1.9,2-3.5,0-5.5C616.6,441,614.7,438.7,611.4,435.1z M382.5,488.5c0.8-8.8,3.6-16.7,9.8-23c28.1-28.8,56.1-57.6,84.1-86.5
			c1.8-1.9,3.2-4.2,4.8-6.2c0.5,0.4,1,0.9,1.6,1.3c1.4,11.1-0.9,21.2-8.8,29.4c-18.1,18.7-36.4,37.2-54.5,55.9
			c-10.3,10.5-20.5,21.1-30.7,31.6c-1.5,1.5-3.1,3-5.6,5.5C382.8,492.9,382.3,490.7,382.5,488.5z M454.8,505.3
			c-15.5,16-31,32.1-46.7,48c-7.2,7.3-13.7,14.9-16.5,25.2c-0.2,0.6-0.8,1-1.9,2.3c-4.5-14-2.9-26.3,6.2-36.4
			c11.6-13,24.1-25.2,36.2-37.7c4.8-5,9.8-9.8,14.5-15c2.7-3,4.6-2.7,6.8,0.2c0.6,0.8,1.4,1.5,2.1,2.2
			C459.7,499,459.6,500.4,454.8,505.3z M389.4,531.3c-1.8,1.9-3.5,3.9-6,6.7c-1.8-8.7-0.5-16,3-22.6c2.7-5,6.4-9.6,10.4-13.7
			c28.1-29,56.4-57.9,84.8-86.7c10-10.1,14.8-22.2,14.8-36.4c0-1.5,0-3.1,0-4.6c0.1-17.3,0.1-17.3,13-28.6c0.3-0.3,0.9-0.3,2.8-1
			c-0.6,16.2-0.4,31.7-1.9,47c-1.3,13.8-8.7,24.9-18.2,34.6C457.9,461.1,423.7,496.2,389.4,531.3z M533.3,595.7
			c-3.8,4.4-6.9,9.4-10.8,14.7c-1.8-13.9,0.8-26.4,7.6-38.5c0.9,0.4,1.4,0.6,1.8,0.9C544,583.5,543.9,583.4,533.3,595.7z"/>
		<path class="st2" d="M396.3,445.1c-11-34-10.3-65.9,5.1-96.8c15.6-31.3,39.8-52,72.9-61.8c3.3,8.8,1.8,12.6-5.9,15.8
			c-44.5,18.9-70.3,62.5-65.9,111.8c0.5,5.1,1.7,10.1,3.1,15.1c1.1,3.8,0.6,6.5-2.5,9C401,439.8,399.3,442,396.3,445.1z"/>
		<path class="st2" d="M558.5,376c11.6,0,23.3,0,36.6,0c-5.3,4.9-9.3,9.3-13.9,12.8c-4.1,3.1-8.7,2-12.5-1.3s-7.3-6.9-10.9-10.4
			C558,376.8,558.3,376.4,558.5,376z"/>
	</g>
	<g id="BO8okW_00000143575841150015979960000017061869257593467036_">
		<g>
			<path class="st6" d="M542.6,720.9c2.8-1.8,6-3.2,8.5-5.4c16.4-14.4,35.7-19.7,56.8-19.7c44.8,0.1,89.6,0,134.5,0
				c12.6,0,19.6,11.6,13.1,22.8c-1.7,2.8-7.9,4-12,4c-45.6,0.3-91.2,0-136.8,0.3c-7.2,0-14.9,0.6-21.6,3.1
				c-19.4,7.1-31,22.2-34.2,42.7c-2,13.1-10.7,8.3-17.5,9.2c-8.1,1.1-9.6-4.2-9.9-10.9c-3.5-72.2-63.3-135.2-143.1-134.1
				c-32.1,0.4-64.1-0.4-96.2,0.3c-10.4,0.2-11.1-5-11.2-13.1c-0.1-8.4,1.4-13.2,11.4-13.1c37.5,0.5,75-0.7,112.4,0.5
				c32.5,1.1,61.8,13,87.5,33.6c6.5,5.2,10.6,6,17.8,0.4c28.8-22.4,61.2-34.8,97.8-34.4c34,0.3,68,0.4,102-0.2
				c10.3-0.2,12.3,4.4,12.3,13.4c0,8.9-2.6,12.9-12,12.7c-33.6-0.4-67.2-0.6-100.8-0.1c-28.4,0.4-54.8,8.5-78.2,25.7
				c-12,8.8-12,10.3-0.3,21.9c32-27.1,70-31.4,109.9-30.1c29.3,0.9,58.7,0.4,88.1,0.1c9.4-0.1,15,1.3,15,13.4
				c0,11.6-4.5,13.8-14.5,13.7c-39.8-0.4-79.6-0.2-119.4,0.1c-21,0.2-40,7.1-57.2,19.8C535.4,704.6,534.5,711.5,542.6,720.9z"/>
			<path class="st6" d="M481.5,776.6c-3.7-41.5-21.2-73.3-58.9-90c-12-5.3-26-7.9-39.2-8.3c-39.3-1-78.7-0.6-118.1-0.2
				c-9.3,0.1-14.1-1.6-14-12.9c0.1-10.6,2.9-14.7,13.8-14.6c39.4,0.5,78.7-0.3,118.1,0.3c61.4,0.9,108.9,41.7,121.2,103.4
				C509,777.3,505.8,780.6,481.5,776.6z"/>
			<path class="st6" d="M314.2,697.8c28.9,0,58-2.4,86.6,0.6c31.9,3.4,60.4,37.9,61.1,68.4c0.1,5,1.3,11.7-6.5,10.7
				c-6.5-0.8-15.5,5.6-18.6-7.3c-8-33.6-25.8-47.5-59.2-47.5c-44.4,0-88.7-0.2-133.1,0.2c-10.1,0.1-14.2-2.4-14.3-13.8
				c0-11.8,5-13.8,14.7-13.6c23.1,0.4,46.3,0.1,69.4,0.1C314.2,696.4,314.2,697.1,314.2,697.8z"/>
		</g>
	</g>
</g>
</svg>
