<?xml version="1.0" encoding="utf-8"?>
<!-- Generator: Adobe Illustrator 27.9.0, SVG Export Plug-In . SVG Version: 6.00 Build 0)  -->
<svg version="1.1" id="Capa_1" xmlns="http://www.w3.org/2000/svg" xmlns:xlink="http://www.w3.org/1999/xlink" x="0px" y="0px"
	 viewBox="0 0 1000 1000" style="enable-background:new 0 0 1000 1000;" xml:space="preserve">
<style type="text/css">
	.st0{opacity:4.000000e-02;fill:#606060;}
	.st1{fill:#606060;}
	.st2{fill:#243746;stroke:#1C2247;stroke-width:4.0544;stroke-miterlimit:10;}
	.st3{fill:#18224C;}
	.st4{fill:#FFCD00;}
	.st5{fill:#243746;}
	.st6{fill:#182B38;stroke:#1C2247;stroke-width:4.0544;stroke-miterlimit:10;}
	.st7{fill:#4B858E;}
</style>
<rect x="-1535.5" y="410.5" class="st0" width="1373" height="360"/>
<rect x="-681.5" y="951.5" class="st1" width="9" height="9"/>
<rect x="-677.5" y="1078.5" class="st1" width="9" height="9"/>
<g>
	<text transform="matrix(1 0 0 1 -665.0498 1078.208)"><tspan x="0" y="0" class="st1" style="font-family:'Montserrat-BoldItalic'; font-size:12px;">TEXTO OPCIONAL PARA SER SUSTITUIDO</tspan><tspan x="0" y="14.4" class="st1" style="font-family:'Montserrat-BoldItalic'; font-size:12px;"> POR EL NOMBRE REAL DEL PROYECTO,</tspan></text>
</g>
<g>
	<g>
		<path d="M83.5,799.3c-1.4-0.5-2.7-0.7-3.9-0.7c-1.6,0-3,0.3-4,1c-1,0.7-1.5,1.6-1.5,2.8c0,1.1,0.3,2,0.9,2.7
			c0.6,0.7,1.3,1.2,2.2,1.6c0.9,0.4,2.1,0.9,3.6,1.4c1.9,0.6,3.5,1.3,4.7,1.9c1.2,0.6,2.2,1.5,3,2.6c0.8,1.2,1.3,2.7,1.3,4.6
			c0,1.8-0.4,3.3-1.3,4.6c-0.9,1.3-2.1,2.3-3.7,3.1c-1.6,0.7-3.4,1.1-5.4,1.1c-2.1,0-4.1-0.4-6.1-1.3c-2-0.9-3.7-2.1-5.1-3.5
			l1.7-3.7c1.4,1.4,2.9,2.6,4.6,3.3c1.7,0.8,3.3,1.2,4.9,1.2c1.9,0,3.4-0.4,4.5-1.2c1.1-0.8,1.6-1.9,1.6-3.3c0-1.1-0.3-2-0.9-2.7
			s-1.3-1.3-2.3-1.7c-0.9-0.4-2.1-0.9-3.7-1.4c-1.9-0.6-3.4-1.2-4.6-1.8c-1.2-0.6-2.2-1.5-3-2.6c-0.8-1.1-1.2-2.7-1.2-4.5
			c0-1.6,0.4-3.1,1.3-4.4c0.8-1.3,2-2.2,3.5-2.9c1.5-0.7,3.3-1,5.3-1c1.7,0,3.4,0.3,5,0.8c1.6,0.5,3.1,1.3,4.4,2.2l-1.6,3.8
			C86.3,800.5,84.9,799.8,83.5,799.3z"/>
		<path d="M101.3,795h3.9v30.9h-3.9V795z"/>
		<path d="M131,799.3c-1.4-0.5-2.7-0.7-3.9-0.7c-1.6,0-3,0.3-4,1c-1,0.7-1.5,1.6-1.5,2.8c0,1.1,0.3,2,0.9,2.7
			c0.6,0.7,1.3,1.2,2.2,1.6c0.9,0.4,2.1,0.9,3.6,1.4c1.9,0.6,3.5,1.3,4.7,1.9c1.2,0.6,2.2,1.5,3,2.6c0.8,1.2,1.3,2.7,1.3,4.6
			c0,1.8-0.4,3.3-1.3,4.6c-0.9,1.3-2.1,2.3-3.7,3.1c-1.6,0.7-3.4,1.1-5.4,1.1c-2.1,0-4.1-0.4-6.1-1.3c-2-0.9-3.7-2.1-5.1-3.5
			l1.7-3.7c1.4,1.4,2.9,2.6,4.6,3.3c1.7,0.8,3.3,1.2,4.9,1.2c1.9,0,3.4-0.4,4.5-1.2c1.1-0.8,1.6-1.9,1.6-3.3c0-1.1-0.3-2-0.9-2.7
			s-1.3-1.3-2.3-1.7c-0.9-0.4-2.1-0.9-3.7-1.4c-1.9-0.6-3.4-1.2-4.6-1.8c-1.2-0.6-2.2-1.5-3-2.6c-0.8-1.1-1.2-2.7-1.2-4.5
			c0-1.6,0.4-3.1,1.3-4.4c0.8-1.3,2-2.2,3.5-2.9c1.5-0.7,3.3-1,5.3-1c1.7,0,3.4,0.3,5,0.8c1.6,0.5,3.1,1.3,4.4,2.2l-1.6,3.8
			C133.8,800.5,132.4,799.8,131,799.3z"/>
		<path d="M145.1,795h22.2v3.9h-9.2v27h-3.9v-27h-9.1V795z"/>
		<path d="M177,795h19.7v3.8h-15.8v9.5H195v3.8h-14.1v9.8h16.3v3.8H177V795z"/>
		<path d="M208.7,795h4.6l10.4,21.7L234,795h4.7v30.9H235l0-24.6l-10.1,21.4h-2.4l-10.2-21.4v24.6h-3.6V795z"/>
		<path d="M273.1,825.8l-3-7.5h-15l-3,7.5h-4.1l12.6-30.9h4.1l12.6,30.9H273.1z M256.7,814.5h11.9l-6-15L256.7,814.5z"/>
		<path d="M321.6,797c2.2,1.3,4,3.2,5.2,5.5c1.3,2.4,1.9,5,1.9,7.9s-0.6,5.5-1.9,7.9c-1.3,2.4-3,4.2-5.3,5.5c-2.2,1.3-4.8,2-7.5,2
			h-11.4V795h11.5C316.9,795,319.4,795.6,321.6,797z M319.6,820.5c1.6-1,2.9-2.4,3.8-4.1c0.9-1.8,1.4-3.7,1.4-5.9
			c0-2.2-0.5-4.2-1.4-6c-0.9-1.8-2.2-3.1-3.9-4.2c-1.6-1-3.5-1.5-5.5-1.5h-7.6V822h7.7C316.2,822,318,821.5,319.6,820.5z"/>
		<path d="M339.6,795h19.7v3.8h-15.8v9.5h14.1v3.8h-14.1v9.8h16.3v3.8h-20.2V795z"/>
		<path d="M406.8,810.7h3.4v11.3c-1.4,1.2-3.1,2.2-5,3c-1.9,0.7-3.8,1.1-5.7,1.1c-2.7,0-5.2-0.7-7.5-2.1c-2.3-1.4-4.1-3.3-5.4-5.7
			c-1.3-2.4-2-5.1-2-8c0-2.9,0.7-5.5,2-7.9c1.3-2.4,3.1-4.3,5.4-5.7c2.3-1.4,4.8-2.1,7.6-2.1c2,0,3.9,0.4,5.8,1.1
			c1.9,0.8,3.5,1.8,4.9,3.1l-2.2,3.1c-1.1-1.1-2.4-2-3.9-2.7c-1.5-0.6-3-0.9-4.5-0.9c-2,0-3.9,0.5-5.6,1.6c-1.7,1.1-3,2.5-4,4.3
			c-1,1.8-1.5,3.8-1.5,6c0,2.2,0.5,4.2,1.5,6c1,1.8,2.4,3.3,4.1,4.4c1.7,1.1,3.6,1.6,5.6,1.6c1.2,0,2.4-0.2,3.6-0.6
			c1.2-0.4,2.4-1,3.4-1.8V810.7z"/>
		<path d="M422.9,795h19.7v3.8h-15.8v9.5h14.1v3.8h-14.1v9.8H443v3.8h-20.2V795z"/>
		<path d="M467,799.3c-1.4-0.5-2.7-0.7-3.9-0.7c-1.6,0-3,0.3-4,1c-1,0.7-1.5,1.6-1.5,2.8c0,1.1,0.3,2,0.9,2.7
			c0.6,0.7,1.3,1.2,2.2,1.6c0.9,0.4,2.1,0.9,3.6,1.4c1.9,0.6,3.5,1.3,4.7,1.9c1.2,0.6,2.2,1.5,3,2.6s1.3,2.7,1.3,4.6
			c0,1.8-0.4,3.3-1.3,4.6c-0.9,1.3-2.1,2.3-3.7,3.1s-3.4,1.1-5.5,1.1c-2.1,0-4.1-0.4-6.1-1.3c-2-0.9-3.7-2.1-5.1-3.5l1.7-3.7
			c1.4,1.4,2.9,2.6,4.6,3.3c1.7,0.8,3.3,1.2,4.9,1.2c1.9,0,3.4-0.4,4.5-1.2c1.1-0.8,1.6-1.9,1.6-3.3c0-1.1-0.3-2-0.9-2.7
			s-1.3-1.3-2.2-1.7c-0.9-0.4-2.1-0.9-3.7-1.4c-1.9-0.6-3.4-1.2-4.6-1.8c-1.2-0.6-2.2-1.5-3-2.6c-0.8-1.1-1.2-2.7-1.2-4.5
			c0-1.6,0.4-3.1,1.3-4.4c0.8-1.3,2-2.2,3.5-2.9c1.5-0.7,3.3-1,5.3-1c1.7,0,3.4,0.3,5,0.8c1.6,0.5,3.1,1.3,4.4,2.2l-1.6,3.8
			C469.8,800.5,468.5,799.8,467,799.3z"/>
		<path d="M481.2,795h22.2v3.9h-9.2v27h-3.9v-27h-9.1V795z"/>
		<path d="M513,795h3.9v30.9H513V795z"/>
		<path d="M550.2,796.8c2.3,1.4,4.1,3.3,5.4,5.7c1.3,2.4,2,5,2,7.9c0,2.9-0.7,5.5-2,8c-1.3,2.4-3.1,4.3-5.4,5.7
			c-2.3,1.4-4.8,2.1-7.5,2.1c-2.7,0-5.2-0.7-7.5-2.1c-2.3-1.4-4.1-3.3-5.4-5.7c-1.3-2.4-2-5.1-2-8c0-2.9,0.7-5.5,2-7.9
			c1.3-2.4,3.1-4.3,5.4-5.7c2.3-1.4,4.8-2.1,7.5-2.1C545.4,794.7,547.9,795.4,550.2,796.8z M537.3,800.1c-1.7,1.1-3,2.5-4,4.3
			c-1,1.8-1.5,3.8-1.5,6c0,2.2,0.5,4.2,1.5,6c1,1.8,2.3,3.3,4,4.3c1.7,1.1,3.5,1.6,5.5,1.6c2,0,3.8-0.5,5.5-1.6c1.7-1.1,3-2.5,4-4.3
			c1-1.8,1.5-3.8,1.5-6c0-2.2-0.5-4.2-1.5-6c-1-1.8-2.3-3.2-4-4.3c-1.7-1.1-3.5-1.6-5.5-1.6C540.8,798.5,538.9,799,537.3,800.1z
			 M544.9,786.1l3.9,1.8l-5,4.3l-3.2-0.4L544.9,786.1z"/>
		<path d="M588.6,795h3.8v30.9h-3.9l-16.2-23.9v23.9h-3.9V795h3.9l16.2,23.9V795z"/>
		<path d="M638.6,799.5c-1.4-0.7-2.9-1-4.4-1c-2,0-3.8,0.5-5.5,1.6c-1.7,1.1-3,2.5-4,4.3s-1.5,3.8-1.5,6c0,2.1,0.5,4.1,1.5,5.9
			c1,1.8,2.3,3.3,4,4.3c1.7,1.1,3.5,1.6,5.5,1.6c1.5,0,2.9-0.3,4.4-1c1.4-0.7,2.7-1.6,3.8-2.7l2.3,2.8c-1.4,1.5-3.1,2.7-5,3.6
			c-1.9,0.9-3.8,1.3-5.8,1.3c-2.7,0-5.2-0.7-7.4-2.1s-4-3.3-5.3-5.7c-1.3-2.4-1.9-5.1-1.9-8c0-2.9,0.7-5.5,2-7.9
			c1.3-2.4,3.1-4.3,5.4-5.7c2.3-1.4,4.8-2.1,7.5-2.1c2,0,3.9,0.4,5.7,1.2c1.8,0.8,3.4,1.9,4.8,3.4l-2.3,3
			C641.2,801.1,640,800.2,638.6,799.5z"/>
		<path d="M660.8,819.9c1.4,1.6,3.4,2.4,6,2.4c2.5,0,4.5-0.8,5.9-2.4c1.4-1.6,2.1-3.8,2.1-6.7V795h3.9v18.2c0,4-1.1,7.2-3.2,9.5
			c-2.1,2.3-5,3.4-8.8,3.4c-3.8,0-6.7-1.1-8.8-3.4s-3.2-5.5-3.2-9.5V795h3.9v18.2C658.7,816.1,659.4,818.3,660.8,819.9z"/>
		<path d="M709.8,825.8l-5.6-9.7c-0.6,0.1-1.2,0.1-1.6,0.1h-7.2v9.6h-3.9V795h11.1c3.6,0,6.4,0.9,8.3,2.7c2,1.8,2.9,4.4,2.9,7.7
			c0,2.5-0.5,4.6-1.6,6.3c-1.1,1.7-2.6,2.9-4.6,3.7l6.6,10.4H709.8z M702.6,812.4c2.4,0,4.3-0.6,5.6-1.7c1.3-1.2,1.9-2.9,1.9-5.1
			c0-2.2-0.6-3.9-1.9-5c-1.3-1.1-3.2-1.7-5.6-1.7h-7.2v13.6H702.6z"/>
		<path d="M744.4,825.8l-5.6-9.7c-0.6,0.1-1.2,0.1-1.6,0.1H730v9.6h-3.9V795h11.1c3.6,0,6.4,0.9,8.3,2.7c2,1.8,2.9,4.4,2.9,7.7
			c0,2.5-0.5,4.6-1.6,6.3c-1.1,1.7-2.6,2.9-4.6,3.7l6.6,10.4H744.4z M737.2,812.4c2.4,0,4.3-0.6,5.6-1.7c1.3-1.2,1.9-2.9,1.9-5.1
			c0-2.2-0.6-3.9-1.9-5c-1.3-1.1-3.2-1.7-5.6-1.7H730v13.6H737.2z"/>
		<path d="M760.6,795h3.9v30.9h-3.9V795z"/>
		<path d="M794.7,799.5c-1.4-0.7-2.9-1-4.4-1c-2,0-3.8,0.5-5.5,1.6c-1.7,1.1-3,2.5-4,4.3s-1.5,3.8-1.5,6c0,2.1,0.5,4.1,1.5,5.9
			c1,1.8,2.3,3.3,4,4.3c1.7,1.1,3.5,1.6,5.5,1.6c1.5,0,2.9-0.3,4.4-1c1.4-0.7,2.7-1.6,3.8-2.7l2.3,2.8c-1.4,1.5-3.1,2.7-5,3.6
			c-1.9,0.9-3.8,1.3-5.8,1.3c-2.7,0-5.2-0.7-7.4-2.1s-4-3.3-5.3-5.7c-1.3-2.4-1.9-5.1-1.9-8c0-2.9,0.7-5.5,2-7.9
			c1.3-2.4,3.1-4.3,5.4-5.7c2.3-1.4,4.8-2.1,7.5-2.1c2,0,3.9,0.4,5.7,1.2c1.8,0.8,3.4,1.9,4.8,3.4l-2.3,3
			C797.4,801.1,796.1,800.2,794.7,799.5z"/>
		<path d="M816.9,819.9c1.4,1.6,3.4,2.4,6,2.4c2.5,0,4.5-0.8,5.9-2.4c1.4-1.6,2.1-3.8,2.1-6.7V795h3.9v18.2c0,4-1.1,7.2-3.2,9.5
			c-2.1,2.3-5,3.4-8.8,3.4c-3.8,0-6.7-1.1-8.8-3.4c-2.1-2.3-3.2-5.5-3.2-9.5V795h3.9v18.2C814.8,816.1,815.5,818.3,816.9,819.9z"/>
		<path d="M847.6,795h3.9v27h12.4v3.8h-16.3V795z"/>
		<path d="M895.5,825.8l-3-7.5h-15l-3,7.5h-4.1l12.6-30.9h4.1l12.6,30.9H895.5z M879.1,814.5H891l-6-15L879.1,814.5z"/>
		<path d="M927.4,825.8l-5.6-9.7c-0.6,0.1-1.2,0.1-1.6,0.1H913v9.6h-3.9V795h11.1c3.6,0,6.4,0.9,8.3,2.7c2,1.8,2.9,4.4,2.9,7.7
			c0,2.5-0.5,4.6-1.6,6.3c-1.1,1.7-2.6,2.9-4.6,3.7l6.6,10.4H927.4z M920.2,812.4c2.4,0,4.3-0.6,5.6-1.7c1.3-1.2,1.9-2.9,1.9-5.1
			c0-2.2-0.6-3.9-1.9-5c-1.3-1.1-3.2-1.7-5.6-1.7H913v13.6H920.2z"/>
		<path d="M168.7,848.7h19.7v3.8h-15.8v9.5h14.1v3.8h-14.1v9.8h16.3v3.8h-20.2V848.7z"/>
		<path d="M220.6,848.7h3.9v30.9h-3.9l-16.2-23.9v23.9h-3.9v-30.9h3.9l16.2,23.9V848.7z"/>
		<path d="M234.2,848.7h22.2v3.9h-9.2v27h-3.9v-27h-9.1V848.7z"/>
		<path d="M284.2,850.5c2.3,1.4,4.1,3.3,5.4,5.7c1.3,2.4,2,5,2,7.9c0,2.9-0.7,5.5-2,8c-1.3,2.4-3.1,4.3-5.4,5.7
			c-2.3,1.4-4.8,2.1-7.5,2.1c-2.7,0-5.2-0.7-7.5-2.1c-2.3-1.4-4.1-3.3-5.4-5.7c-1.3-2.4-2-5.1-2-8c0-2.9,0.7-5.5,2-7.9
			c1.3-2.4,3.1-4.3,5.4-5.7c2.3-1.4,4.8-2.1,7.5-2.1C279.5,848.4,282,849.1,284.2,850.5z M271.3,853.8c-1.7,1.1-3,2.5-4,4.3
			c-1,1.8-1.5,3.8-1.5,6c0,2.2,0.5,4.2,1.5,6c1,1.8,2.3,3.3,4,4.3c1.7,1.1,3.5,1.6,5.5,1.6c2,0,3.8-0.5,5.4-1.6c1.7-1.1,3-2.5,4-4.3
			c1-1.8,1.5-3.8,1.5-6c0-2.2-0.5-4.2-1.5-6c-1-1.8-2.3-3.2-4-4.3c-1.7-1.1-3.5-1.6-5.4-1.6C274.8,852.2,273,852.7,271.3,853.8z"/>
		<path d="M320.8,879.5l-5.6-9.7c-0.6,0.1-1.2,0.1-1.6,0.1h-7.2v9.6h-3.9v-30.9h11.1c3.6,0,6.4,0.9,8.3,2.7c2,1.8,2.9,4.4,2.9,7.7
			c0,2.5-0.5,4.6-1.6,6.3c-1.1,1.7-2.6,2.9-4.6,3.7l6.6,10.4H320.8z M313.6,866.1c2.4,0,4.3-0.6,5.6-1.7c1.3-1.2,1.9-2.9,1.9-5.1
			c0-2.2-0.6-3.9-1.9-5c-1.3-1.1-3.2-1.7-5.6-1.7h-7.2v13.6H313.6z"/>
		<path d="M357.2,848.7h3.8v30.9h-3.9l-16.2-23.9v23.9h-3.9v-30.9h3.9l16.2,23.9V848.7z"/>
		<path d="M394.4,850.5c2.3,1.4,4.1,3.3,5.4,5.7c1.3,2.4,2,5,2,7.9c0,2.9-0.7,5.5-2,8c-1.3,2.4-3.1,4.3-5.4,5.7
			c-2.3,1.4-4.8,2.1-7.5,2.1c-2.7,0-5.2-0.7-7.5-2.1c-2.3-1.4-4.1-3.3-5.4-5.7c-1.3-2.4-2-5.1-2-8c0-2.9,0.7-5.5,2-7.9
			c1.3-2.4,3.1-4.3,5.4-5.7c2.3-1.4,4.8-2.1,7.5-2.1C389.6,848.4,392.1,849.1,394.4,850.5z M381.4,853.8c-1.7,1.1-3,2.5-4,4.3
			c-1,1.8-1.5,3.8-1.5,6c0,2.2,0.5,4.2,1.5,6c1,1.8,2.3,3.3,4,4.3c1.7,1.1,3.5,1.6,5.5,1.6s3.8-0.5,5.5-1.6c1.7-1.1,3-2.5,4-4.3
			c1-1.8,1.5-3.8,1.5-6c0-2.2-0.5-4.2-1.5-6c-1-1.8-2.3-3.2-4-4.3c-1.7-1.1-3.5-1.6-5.5-1.6S383.1,852.7,381.4,853.8z"/>
		<path d="M447.6,850.7c2.2,1.3,4,3.2,5.2,5.5c1.3,2.4,1.9,5,1.9,7.9c0,2.9-0.6,5.5-1.9,7.9c-1.3,2.3-3,4.2-5.3,5.5
			c-2.2,1.3-4.8,2-7.5,2h-11.4v-30.9h11.5C442.8,848.7,445.3,849.3,447.6,850.7z M445.5,874.2c1.6-1,2.9-2.4,3.8-4.1
			c0.9-1.8,1.4-3.7,1.4-5.9c0-2.2-0.5-4.2-1.4-5.9c-0.9-1.8-2.2-3.2-3.9-4.2c-1.6-1-3.5-1.5-5.5-1.5h-7.6v23.2h7.7
			C442.1,875.7,443.9,875.2,445.5,874.2z"/>
		<path d="M465.5,848.7h19.7v3.8h-15.8v9.5h14.1v3.8h-14.1v9.8h16.3v3.8h-20.2V848.7z"/>
		<path d="M534.2,879.5l-3-7.5h-15l-3,7.5h-4.1l12.6-30.9h4.1l12.6,30.9H534.2z M517.8,868.2h11.9l-6-15L517.8,868.2z"/>
		<path d="M567,851.4c1.9,1.8,2.9,4.4,2.9,7.7c0,3.4-1,6.1-2.9,8c-1.9,1.9-4.7,2.8-8.2,2.8h-7v9.6h-3.9v-30.9h10.9
			C562.3,848.7,565,849.6,567,851.4z M564.2,864.3c1.3-1.2,1.9-2.9,1.9-5.1c0-2.2-0.6-3.9-1.9-5c-1.3-1.1-3.2-1.7-5.6-1.7l-6.9,0
			v13.5h6.9C561,866.1,562.9,865.5,564.2,864.3z"/>
		<path d="M598.6,879.5l-5.6-9.7c-0.6,0.1-1.2,0.1-1.6,0.1h-7.2v9.6h-3.9v-30.9h11.1c3.6,0,6.4,0.9,8.3,2.7c2,1.8,2.9,4.4,2.9,7.7
			c0,2.5-0.5,4.6-1.6,6.3c-1.1,1.7-2.6,2.9-4.6,3.7l6.6,10.4H598.6z M591.4,866.1c2.4,0,4.3-0.6,5.6-1.7c1.3-1.2,1.9-2.9,1.9-5.1
			c0-2.2-0.6-3.9-1.9-5c-1.3-1.1-3.2-1.7-5.6-1.7h-7.2v13.6H591.4z"/>
		<path d="M614.8,848.7h19.7v3.8h-15.8v9.5h14.1v3.8h-14.1v9.8H635v3.8h-20.2V848.7z"/>
		<path d="M666.7,848.7h3.8v30.9h-3.9l-16.2-23.9v23.9h-3.9v-30.9h3.9l16.2,23.9V848.7z"/>
		<path d="M703,850.7c2.2,1.3,4,3.2,5.2,5.5c1.3,2.4,1.9,5,1.9,7.9c0,2.9-0.6,5.5-1.9,7.9c-1.3,2.3-3,4.2-5.3,5.5
			c-2.2,1.3-4.8,2-7.5,2H684v-30.9h11.5C698.3,848.7,700.8,849.3,703,850.7z M701,874.2c1.6-1,2.9-2.4,3.8-4.1
			c0.9-1.8,1.4-3.7,1.4-5.9c0-2.2-0.5-4.2-1.4-5.9c-0.9-1.8-2.2-3.2-3.9-4.2c-1.6-1-3.5-1.5-5.5-1.5h-7.6v23.2h7.7
			C697.6,875.7,699.4,875.2,701,874.2z"/>
		<path d="M721,848.7h3.9v30.9H721V848.7z"/>
		<path d="M736.4,848.7h22.8v3.1L741,875.7h18.4l0,3.8h-23.5v-3.1l18.2-23.9h-17.7L736.4,848.7z"/>
		<path d="M791.4,879.5l-3-7.5h-15l-3,7.5h-4.1l12.6-30.9h4.1l12.6,30.9H791.4z M775,868.2h11.9l-6-15L775,868.2z"/>
		<path d="M815.2,877.2c-1.5,1.7-3.6,2.5-6.2,2.5c-1.6,0-3.1-0.4-4.5-1.1c-1.4-0.8-2.6-1.8-3.6-3.3l1.9-3.3c0.9,1.1,1.9,2,2.9,2.6
			c1.1,0.6,2.1,0.9,3.2,0.9c1.5,0,2.6-0.5,3.4-1.4c0.8-1,1.2-2.3,1.2-4.1v-17.5h-10v-3.9h13.9v21.5
			C817.4,873.2,816.7,875.5,815.2,877.2z"/>
		<path d="M830.1,848.7h19.7v3.8H834v9.5h14.1v3.8H834v9.8h16.3v3.8h-20.2V848.7z"/>
	</g>
	<g>
		<path class="st2" d="M373.2,322.7l-0.7-1c1.1-1.2,1.8-2.5,2-3.7c0.2-1.2,0-3-0.7-5.5l-10.8-39.5l0.9-0.7l35.6,19.9
			c2.4,1.4,4.1,2.1,5.2,2.2c1.1,0.1,2.4-0.5,4-1.7l0.7,1l-14,11.2l-0.7-1c1.5-1.4,2.3-2.5,2.5-3.3c0.1-0.8,0-1.5-0.5-2.2
			c-0.6-0.8-2-1.8-4.2-3l-24.4-13.6l7.4,26.8c0.7,2.5,1.3,4.2,2,5.1c0.6,0.7,1.2,1.1,2,1.2c0.8,0,1.9-0.5,3.5-1.5l0.7,1L373.2,322.7
			z"/>
		<path class="st2" d="M438.7,230.7l4.4,9.4l-1.1,0.5c-0.9-1.6-1.7-2.7-2.4-3.2c-1.1-0.9-2.3-1.4-3.5-1.5c-1.2-0.1-2.7,0.2-4.3,0.9
			l-5.6,2.5l13,31.3c1,2.5,2,4,2.7,4.4c1.1,0.5,2.4,0.4,4-0.2l1.4-0.6l0.5,1.1l-16.9,7.4l-0.5-1.1l1.4-0.6c1.7-0.7,2.7-1.8,2.9-3.1
			c0.2-0.8-0.2-2.4-1.2-4.7l-13-31.3l-4.8,2.1c-1.9,0.8-3.1,1.5-3.8,2.2c-0.9,0.8-1.4,1.9-1.7,3.4c-0.3,1.4-0.1,3.1,0.5,5l-1.1,0.5
			l-3.5-9.8L438.7,230.7z"/>
		<path class="st2" d="M478.3,224.2l2,17.5l9.5-1.1c2.5-0.3,4.1-0.9,4.8-1.7c1-1.1,1.4-3,1.3-5.5l1.2-0.1l1.7,15.4l-1.2,0.1
			c-0.5-2.1-1-3.5-1.4-4c-0.5-0.7-1.2-1.2-2.1-1.6c-0.9-0.3-2.3-0.4-4.1-0.2l-9.5,1.1l1.6,14.6c0.2,2,0.4,3.1,0.7,3.5
			c0.2,0.4,0.6,0.7,1,0.9c0.5,0.2,1.3,0.2,2.5,0.1l7.3-0.9c2.4-0.3,4.2-0.7,5.3-1.1c1.1-0.5,2-1.3,3-2.4c1.2-1.5,2.3-3.7,3.4-6.6
			l1.3-0.1l-2.5,11.5l-33.2,3.9l-0.1-1.2l1.5-0.2c1-0.1,2-0.5,2.8-1.1c0.6-0.4,1-1,1.2-1.7c0.2-0.7,0.1-2.2-0.1-4.3l-3.2-28.8
			c-0.3-2.8-0.8-4.5-1.4-5.1c-0.9-0.8-2.2-1.1-4-0.9l-1.5,0.2l-0.1-1.2l33.2-3.9l1.6,9.6l-1.2,0.1c-0.7-2.3-1.4-3.8-2-4.6
			c-0.6-0.8-1.5-1.4-2.6-1.7c-0.9-0.2-2.4-0.2-4.5,0L478.3,224.2z"/>
		<path class="st2" d="M528.5,219.1l11.6,2.3l19.9,38l4.8-25.2c0.5-2.7,0.5-4.4,0.1-5.2c-0.6-1.1-1.7-1.8-3.4-2.1l-1.5-0.3l0.2-1.2
			l14.8,2.9l-0.2,1.2l-1.5-0.3c-1.8-0.4-3.2,0-4.2,0.9c-0.6,0.6-1.1,2.1-1.6,4.6l-6.9,36.9l-1.1-0.2L538,230.5l-5.1,26.9
			c-0.5,2.7-0.5,4.4-0.1,5.2c0.6,1.1,1.8,1.8,3.4,2.1l1.5,0.3l-0.2,1.2l-14.8-2.9l0.2-1.2l1.5,0.3c1.8,0.4,3.2,0.1,4.2-0.9
			c0.6-0.6,1.1-2.1,1.6-4.6l5.7-30.4c-1-1.7-1.7-2.9-2.3-3.5c-0.6-0.6-1.4-1.2-2.6-1.9c-0.6-0.3-1.5-0.6-2.7-0.8L528.5,219.1z"/>
		<path class="st2" d="M609.2,244.9l-7.3,15.9l8.6,4.2c2.2,1.1,3.9,1.5,5,1.1c1.4-0.4,2.7-1.8,3.9-4l1.1,0.5l-6.4,14l-1.1-0.5
			c0.6-2.1,0.9-3.5,0.9-4.2c0-0.9-0.3-1.7-1-2.5c-0.6-0.8-1.7-1.6-3.4-2.4l-8.6-4.2l-6.1,13.3c-0.8,1.8-1.2,2.9-1.3,3.4
			c0,0.5,0.1,0.9,0.4,1.3c0.3,0.4,1,0.9,2,1.4l6.7,3.2c2.2,1.1,3.9,1.7,5.1,1.9c1.2,0.2,2.4,0,3.8-0.5c1.8-0.6,3.8-1.9,6.2-3.8
			l1.2,0.6l-8,8.5l-30.3-14.6l0.5-1.1l1.4,0.7c0.9,0.4,1.9,0.6,2.9,0.6c0.8,0,1.4-0.3,1.9-0.8c0.5-0.5,1.2-1.8,2.1-3.7l12-26.2
			c1.2-2.6,1.6-4.3,1.4-5.1c-0.3-1.1-1.3-2.1-2.9-2.9l-1.4-0.7l0.5-1.1l30.3,14.6l-3.6,9l-1.1-0.5c0.6-2.3,0.8-4,0.7-5
			c-0.1-1-0.6-2-1.4-2.9c-0.6-0.7-1.9-1.5-3.9-2.4L609.2,244.9z"/>
		<path class="st2" d="M659.8,307.2l-13.7-10.1l-6.4,4c-1.6,1-2.6,1.8-3.1,2.5c-0.4,0.6-0.5,1.2-0.3,2c0.2,0.8,1.1,1.9,2.7,3.3
			l-0.7,1l-11.1-8.2l0.7-1c1.7,0.8,2.9,1.2,3.6,1.1c1.5-0.2,3.7-1.2,6.6-3l33.2-20.6l0.9,0.7l-8.8,39.2c-0.7,3.2-0.9,5.4-0.6,6.7
			c0.3,1.3,1.1,2.5,2.5,3.7l-0.7,1L650.9,319l0.7-1c1.5,1,2.6,1.4,3.4,1.4c0.8,0,1.4-0.4,1.8-0.9c0.5-0.8,1.1-2.3,1.6-4.5
			L659.8,307.2z M660.4,304.7l4.3-19l-16.4,10.1L660.4,304.7z"/>
	</g>
	<g id="IdvKTg.tif_00000068662016738798802260000000366732150610573496_">
		<g>
			<path class="st3" d="M802.2,376.4c-6.3-46-21.8-88.5-47.5-126.6c-42.8-63.5-100.9-104.7-174.3-122.4c-14.3-3.5-29.1-4.4-43.7-6.5
				c-1.4-0.2-2.9-0.5-4.3-0.7h-34.6c-1.2,0.2-2.3,0.6-3.5,0.7c-37.6,2.1-73.1,12.1-106.9,29.1c-113.7,57.3-174,180.6-160.5,301.9
				c6.7,60.5,29.3,114.4,68.9,159.7c2.2,2.6,4.5,5.1,6.8,7.6c6.9-5.5,15.3-8.9,24-9.2c3.8-4,7.6-8.1,11.3-12.1c1-1.1,2-2.2,3.1-3.4
				c-8.4-10-16.6-19.9-25-30c-3.3,2.5-6.7,4.9-10,7.5c-4.3,3.3-4.3,4.1,0,8.7c3.3-2.3,6.6-4.7,10.3-7.4c4.9,6,9.6,12,14.4,17.9
				c1.5,1.9,1.2,3.5-0.4,5c-6.9,6-13.9,12-20.9,18.1c-1.8,1.6-3.4,1.1-4.8-0.6c-3-3.7-6.4-7.1-9.1-11c-8.4-11.8-16.5-23.7-24.8-35.6
				c-2-2.9-1.7-4.7,1.5-6.5c8.2-4.7,16.3-9.6,24.2-14.7c6.7-4.3,5.9-2.9,2.9-9.7c-3.8-8.5-7.6-17-11.6-25.4c-0.6-1.3-3-2.6-4.3-2.4
				c-3.8,0.8-7.5,2.1-11,3.8c-1.1,0.6-1.4,3-2.1,4.6c1.5,0.6,3.1,1.2,4.6,1.7c0.2,0.1,0.5-0.1,0.8-0.2c8.3-2.8,8.3-2.8,12,5.5
				c1.6,3.6,2.9,7.4,4.6,11c1.4,3.1,1.1,5.1-2.2,6.8c-6.9,3.6-13.6,7.6-20.5,11.4c-5.1,2.8-5.3,2.8-7.6-2.5
				c-5.2-12.4-10.3-24.8-15.2-37.2c-1.9-4.8-3.5-9.8-5-14.8c-1.6-5-1.4-5.5,3.5-7.1c9.2-2.9,18.5-5.5,27.8-8.3c1.5-0.5,3-1,4.8-1.7
				c-2.2-12.2-4.2-23.8-6.3-35.4c-0.4-2.1-1.1-3.4-3.8-2.8c-3.4,0.7-6.9,0.7-10.4,0.8c-3.7,0.1-3.4,2.6-3.4,5.1c0,3,1.9,2.8,3.9,2.6
				c2.8-0.4,5.6-0.8,9-1.2c1.2,8.1,2.5,16,3.6,24c0.1,0.8-1.3,2.5-2.2,2.7c-9,2.1-18.1,4-27.1,6.1c-2.7,0.6-3.6-0.7-3.9-3.1
				c-2.1-17.3-4.3-34.6-6.3-52c-0.4-3.5-0.4-7.1-0.6-11h39.1c1.4-13.4,2.7-26.5,4.1-40.2c-5.2-0.5-10.2-1.1-15.2-1.2
				c-1.1,0-2.7,1.7-3.1,2.9c-0.2,0.8,1.2,2.7,2.3,3.2c1.7,0.7,3.6,0.9,5.5,0.9c3,0,4.2,1.5,4,4.4c-0.5,7.4-1.1,14.8-1.8,22.6
				c-2.1,0-4,0.1-5.8,0c-8.2-0.3-16.3-0.7-24.5-1.1c-2.4-0.1-4.3-0.8-3.8-3.9c2.8-19.7,5.6-39.4,8.4-59.2c0.5-3.9,3.3-3.1,5.5-2.5
				c8.1,1.9,16.1,4,24.2,6c3.2,0.8,6.5,1.5,9.9,2.3c3.9-11.4,7.8-22.4,11.3-33.5c0.3-1-0.7-3.3-1.7-3.9c-3.3-2.1-6.8-3.8-10.3-5.6
				c-2.8-1.4-3.8,0.6-4.8,2.8c-1.1,2.6,0.7,3,2.4,3.7c2.6,1,5.3,2,8.4,3.2c-2,6-3.9,11.8-5.9,17.6c-2.7,7.9-2.7,8-10.5,5.6
				c-8.2-2.4-16.4-5-24.6-7.5c-0.2-0.1-0.4-0.3-0.7-0.6c6.6-19.9,14.5-39.3,24.3-57.8c1.7-3.2,3.6-3.3,6.5-1.6
				c8.4,5.1,17,9.9,25.5,14.9c2.8,1.7,4.7,1.6,6.6-1.4c5.6-8.7,11.5-17.3,17.3-25.9c1.3-2,1.2-3.6-0.5-5c-2.9-2.4-5.8-4.9-9-6.9
				c-1-0.6-3,0.3-4.5,0.5c0.3,1.4,0.1,3.2,0.9,4.2c2,2.4,4.4,4.4,7,6.9c-4.5,6.3-8.8,12.6-13.3,18.7c-0.6,0.8-2.8,1.3-3.6,0.8
				c-7.9-4.9-15.7-10-23.5-15.1c-2.3-1.5-1.6-3.2-0.5-4.9c5.8-8.4,11.3-17.1,17.5-25.2c6.6-8.5,13.8-16.4,21.1-24.8
				c10,9.9,19.3,19.2,28.6,28.4c9.9-8.8,19.3-17.1,29.1-25.7c-2.9-3.9-5.5-7.8-8.7-11.3c-1-1.1-3.7-1.7-5.1-1.1
				c-2.6,1.2-1.3,3.5-0.2,5.2c1.5,2.4,3.3,4.7,5.2,7.4c-6.4,5.8-12.6,11.4-19.2,17.4c-7.9-8.6-15.6-17-23.6-25.9
				c16.3-15.1,33.3-28.7,52.8-40c6.8,11.6,13.4,22.9,20.1,34.5c11.4-5.6,22.8-11.2,34.8-17.1c-1.9-4.9-3.7-9.7-5.7-14.4
				c-1.1-2.6-3.5-2.1-5.1-0.9c-0.9,0.7-1.4,2.7-1.1,3.9c0.8,3.2,2.1,6.2,3.4,9.9c-7,3.2-13.6,6.3-20.4,9.2c-0.8,0.3-2.6-0.5-3.1-1.3
				c-4.6-8.2-9-16.5-13.6-24.8c-1.5-2.7,0-4.1,2.1-5.1c9.6-4.5,19.2-9.1,28.9-13.3c6.8-2.9,13.8-5.3,20.8-7.7c6-2,8-0.8,9.7,5.4
				c2.3,8.5,4.3,17,6.6,25.5c1.5,5.4,2.1,5.7,7.4,4.8c10.6-1.9,21.1-3.8,32.4-5.8c-0.6-5.4-1.1-10.7-2-15.9
				c-0.1-0.9-2.1-2.4-2.7-2.1c-1.2,0.5-2.9,1.8-3,3c-0.4,3.5-0.1,7.1-0.1,10.7c-7.6,1.5-14.8,3-22,4.2c-0.8,0.1-2.6-1.1-2.8-1.9
				c-2.5-9.7-4.8-19.4-7-29.2c-0.7-3.3,2.1-3.5,4-3.9c7.8-1.4,15.6-3,23.4-3.9c10.3-1.2,20.6-1.7,30.8-2.6c3.8-0.3,6,0.9,6.1,5.4
				c0.2,8,0.9,15.9,1.2,23.9c0.2,3.5,0,7.1,0,11.1c6.2,0.5,11.8,0.8,17.3,1.3c5.6,0.5,11.2,1,16.8,1.7c2.4,0.3,3.6-0.6,4-2.8
				c0.7-3.9,1.6-7.8,2-11.8c0.1-1.3-0.7-3.7-1.7-4c-2.2-0.8-4.6-0.2-5.3,2.8c-0.6,2.9-1.1,5.9-1.7,9.4c-8.4-0.7-16.6-1.4-25.4-2.2
				c0.6-11.6,1.1-22.7,1.6-34.4c5.2,0.3,10.2,0.3,15,1c15.2,2.3,30.4,4.9,45.6,7.4c3.5,0.6,4.6,2,3.4,5.8
				c-2.9,9.9-5.2,19.9-7.7,29.9c-0.4,1.4-0.6,2.9-1,5c12.2,4.1,24.2,8.2,36.6,12.4c2.1-5,3.9-9.5,5.9-14c1.1-2.6-0.9-3.3-2.4-3.8
				c-1.1-0.4-2.5,0.3-3.7,0.7c-0.4,0.1-0.5,0.9-0.7,1.4c-3.9,8.5-4,8.5-12.7,5.4c-4-1.5-8-3.1-12.1-4.6c-2-0.7-2.9-1.8-2.2-4
				c2.9-9.3,5.8-18.6,8.6-27.9c0.9-3,2.7-2.5,4.7-1.7c13.7,5.9,27.5,11.7,41.1,17.7c5,2.2,9.8,5,15.1,7.8c-1.4,2.8-2.6,5.2-3.8,7.6
				c-4.3,8.1-8.6,16.2-13,24.2c-1.5,2.8-1.1,4.3,1.7,6.2c9.3,6.3,18.3,13,27.9,19.9c2.9-3.9,6.3-8,9.1-12.4c0.6-1-0.2-3.7-1.2-4.7
				c-0.7-0.7-3.3-0.2-4.2,0.7c-2.4,2.3-4.4,5.1-6.7,7.9c-6.9-5.2-13.5-10.3-20.5-15.6c5.9-9.7,11.8-19.2,17.8-29
				c1.6,1,2.9,1.6,4.1,2.4c15.8,10.5,30.3,22.6,44,35.9c2.6,2.5,2.9,4.3,0.3,7.1c-7.8,8.2-15.4,16.5-23.4,25.1
				c2.7,3.3,5.4,6.6,8.1,9.9c4.5,5.6,9,11.3,13.5,16.9c2,2.5,3.9,2.8,6.4,0.8c2.6-2.2,5.4-4.1,8-6.2c1.8-1.4,2.1-3,0.6-5
				c-1.5-2.2-3-1.6-4.8-0.4c-7.7,5.1-7.7,5.1-13.7-1.9c-2.6-3-5-6.2-7.8-8.8c-2-1.9-2-3.4-0.4-5.2c3.3-3.6,6.6-7.2,10-10.7
				c3.9-4,7.9-7.8,12.3-12c15.6,16.5,28.2,35.1,39.8,54.8c-11.4,6.6-22.7,13.1-34.4,19.8c0.9,2,1.7,3.8,2.5,5.6
				c4.1,8.8,8.2,17.6,12.2,26.5c1.1,2.5,2.5,3.6,4.9,2.8c3.8-1.3,7.5-2.9,11.2-4.5c2.3-1,2.8-3.3,1.4-5.1c-0.7-0.9-2.9-1.5-4.1-1.1
				c-8.6,2.7-8.6,2.8-12.7-5.3c-2.4-4.7-4.6-9.6-7-14.7c1.2-0.9,2.1-1.7,3.1-2.3c8.1-4.1,16.1-8,24.2-12.1c2.2-1.1,3.6-0.8,4.8,1.6
				c8,17.6,15.4,35.4,20.4,54.2c0.9,3.4,0,5.2-3.5,6.2c-9.4,2.7-18.7,5.8-28.1,8.6c-3.4,1-4.5,2.5-3.6,6.5
				c2.2,9.4,3.8,18.8,5.5,28.3c0.5,3.2,1.9,4.6,5.1,4.4c2.8-0.2,5.7,0.2,8.4-0.5c1.7-0.5,3.6-2.3,4.3-4c0.9-2.4-0.3-4.2-3.3-3.8
				c-3,0.4-6.1,0.6-9.6,0.9c-1.1-7.9-2.3-15.4-3.1-22.8c-0.1-1.1,1.3-3.1,2.3-3.4c8.8-2.2,17.8-4.1,26.6-6.2c3-0.7,3.4,1.4,3.7,3.5
				c1.8,12,3.7,23.9,5.2,35.9c1.1,8.8,1.4,17.8,2.1,27.1h-39.4c-1.2,13.3-2.4,26.2-3.6,39.9c5.3,0.6,10.4,1.3,15.6,1.5
				c0.9,0,2.3-2.5,2.8-4.1c0.2-0.6-1.3-1.9-2.1-2.7c-0.2-0.2-0.8-0.2-1.2-0.3c-8.5-1.7-8.5-1.7-8.1-10.7c0.2-5.1,0.7-10.1,1-15.1
				c0.4-0.3,0.6-0.6,0.8-0.6c9.6,0.1,19.3,0.3,28.9,0.3c3.6,0,4.7,1.7,4.2,5.1c-1.8,14.5-3.5,28.9-5.5,43.4
				c-0.6,4.5-1.9,8.9-2.7,13.3c-0.6,3.3-2.2,4.4-5.3,3.6c-9.2-2.3-18.5-4.6-27.7-6.8c-6.5-1.6-6.8-1.2-8.8,5.1
				c-2.5,7.8-5.3,15.6-7.9,23.4c-2.3,6.8-1.8,8,4.6,10.6c2.2,0.9,4.5,2.1,6.8,2.3c1.4,0.1,3.2-1.2,4.2-2.4c0.3-0.4-1.1-2.5-1.9-3.7
				c-0.4-0.6-1.4-0.7-2.1-1.1c-6.8-3.1-6.8-3.1-4.3-10c1.7-4.8,3.7-9.4,5.6-14.1c0.8-2,2.1-3,4.4-2.3c8.1,2.5,16.2,4.9,24.3,7.4
				c3.3,1,4.4,2.9,3.2,6.5c-6.3,18.4-13.9,36.3-23,53.5c-1.5,2.8-3,2.8-5.4,1.4c-7.4-4.4-14.9-8.7-22.4-13c-2.7-1.5-5.4-3-8.5-4.8
				c-1.4,2-2.7,3.8-4,5.7c-5.1,7.6-10.1,15.3-15.3,22.8c-1.8,2.6-1.6,4.5,0.6,6.4c2.1,1.9,4.2,3.9,6.5,5.6c3.9,3,5.5,2.6,8.3-2.5
				c-2-1.5-3.9-3.1-6-4.5c-2.8-1.9-3.3-4.1-1.4-6.9c3.4-4.9,6.7-9.9,10.3-14.8c0.6-0.8,2.5-1.7,3.2-1.4c9.3,5.3,18.5,10.8,27.6,16.2
				c-2.7,6.7-18.5,28.3-29.9,42.1c2.4,0,4.8,0,7.2,0c37.3-43.8,60.1-94.9,68.6-153.2c1-7.2,1.5-14.4,2.3-21.7v-39.7
				C803.6,390.6,803.1,383.5,802.2,376.4z"/>
			<path d="M687.5,595.9c-5,4.4-10,8.8-15.1,13.3c2.4,0.3,4.8,0.7,7.1,1.1c2.3-2.1,4.6-4.1,7-6.3c2.7,3.1,5.4,6.1,8,9.2
				c3.4-0.2,6.8-0.3,10.2-0.4C699.1,607.2,693.3,601.6,687.5,595.9z"/>
			<path d="M691.9,613.3c0.9,0,1.8-0.1,2.7-0.1c-2.7-3-5.3-6.1-8-9.2c-2.4,2.1-4.7,4.2-7,6.3c2.1,0.3,4.1,0.7,6.2,1.1
				C687.8,611.7,689.9,612.4,691.9,613.3z"/>
			<path class="st4" d="M794.7,426.3c-9.6,0-19.3-0.2-28.9-0.3c-0.2,0-0.4,0.3-0.8,0.6c-0.3,4.9-0.8,10-1,15.1
				c-0.4,9-0.4,9,8.1,10.7c0.4,0.1,0.9,0,1.2,0.3c0.8,0.9,2.3,2.1,2.1,2.7c-0.5,1.6-1.8,4.1-2.8,4.1c-5.1-0.1-10.3-0.9-15.6-1.5
				c1.2-13.7,2.4-26.6,3.6-39.9H800c-0.7-9.4-1.1-18.3-2.1-27.1c-1.4-12-3.4-23.9-5.2-35.9c-0.3-2.1-0.7-4.2-3.7-3.5
				c-8.9,2-17.8,4-26.6,6.2c-1,0.3-2.5,2.3-2.3,3.4c0.8,7.5,2,14.9,3.1,22.8c3.6-0.3,6.6-0.5,9.6-0.9c3.1-0.4,4.3,1.4,3.3,3.8
				c-0.6,1.7-2.6,3.5-4.3,4c-2.6,0.7-5.6,0.3-8.4,0.5c-3.1,0.2-4.5-1.2-5.1-4.4c-1.6-9.5-3.3-19-5.5-28.3c-0.9-4,0.2-5.5,3.6-6.5
				c9.4-2.8,18.7-5.9,28.1-8.6c3.6-1,4.4-2.9,3.5-6.2c-5-18.8-12.4-36.6-20.4-54.2c-1.1-2.5-2.6-2.7-4.8-1.6
				c-8.1,4-16.2,8-24.2,12.1c-1,0.5-1.9,1.4-3.1,2.3c2.4,5.1,4.6,10,7,14.7c4.1,8.1,4.2,8,12.7,5.3c1.2-0.4,3.4,0.2,4.1,1.1
				c1.4,1.8,0.9,4.1-1.4,5.1c-3.7,1.6-7.4,3.2-11.2,4.5c-2.4,0.9-3.9-0.3-4.9-2.8c-3.9-8.9-8.1-17.7-12.2-26.5
				c-0.8-1.8-1.6-3.6-2.5-5.6c11.6-6.7,22.9-13.2,34.4-19.8c-11.7-19.7-24.3-38.2-39.8-54.8c-4.3,4.2-8.4,8-12.3,12
				c-3.4,3.5-6.7,7.1-10,10.7c-1.6,1.8-1.6,3.3,0.4,5.2c2.9,2.7,5.3,5.8,7.8,8.8c6,7,6,7,13.7,1.9c1.8-1.2,3.2-1.8,4.8,0.4
				c1.4,2,1.1,3.6-0.6,5c-2.6,2.1-5.4,4.1-8,6.2c-2.5,2.1-4.5,1.8-6.4-0.8c-4.4-5.7-9-11.3-13.5-16.9c-2.7-3.4-5.4-6.7-8.1-9.9
				c8-8.6,15.6-17,23.4-25.1c2.6-2.7,2.3-4.6-0.3-7.1c-13.7-13.3-28.2-25.5-44-35.9c-1.2-0.8-2.5-1.5-4.1-2.4
				c-6.1,9.9-11.9,19.4-17.8,29c7,5.3,13.7,10.4,20.5,15.6c2.3-2.8,4.2-5.6,6.7-7.9c0.9-0.9,3.6-1.3,4.2-0.7c1,1,1.8,3.7,1.2,4.7
				c-2.8,4.4-6.2,8.5-9.1,12.4c-9.6-6.9-18.6-13.6-27.9-19.9c-2.8-1.9-3.2-3.4-1.7-6.2c4.4-8,8.7-16.1,13-24.2
				c1.3-2.4,2.4-4.8,3.8-7.6c-5.3-2.8-10.1-5.6-15.1-7.8c-13.6-6-27.4-11.8-41.1-17.7c-2-0.9-3.8-1.3-4.7,1.7
				c-2.8,9.3-5.7,18.6-8.6,27.9c-0.7,2.2,0.2,3.3,2.2,4c4.1,1.4,8,3.1,12.1,4.6c8.7,3.1,8.7,3.1,12.7-5.4c0.2-0.5,0.4-1.3,0.7-1.4
				c1.2-0.4,2.6-1.1,3.7-0.7c1.4,0.5,3.5,1.1,2.4,3.8c-2,4.5-3.8,9-5.9,14c-12.4-4.2-24.4-8.3-36.6-12.4c0.4-2.1,0.7-3.6,1-5
				c2.5-10,4.9-20,7.7-29.9c1.1-3.9,0-5.3-3.4-5.8c-15.2-2.5-30.4-5.1-45.6-7.4c-4.8-0.7-9.8-0.7-15-1c-0.6,11.7-1.1,22.8-1.6,34.4
				c8.8,0.8,17,1.5,25.4,2.2c0.6-3.4,1.1-6.4,1.7-9.4c0.7-3,3.1-3.6,5.3-2.8c0.9,0.3,1.8,2.7,1.7,4c-0.4,4-1.3,7.9-2,11.8
				c-0.4,2.2-1.5,3.1-4,2.8c-5.6-0.8-11.2-1.2-16.8-1.7c-5.6-0.5-11.1-0.8-17.3-1.3c0-4,0.1-7.6,0-11.1c-0.4-8-1-15.9-1.2-23.9
				c-0.1-4.5-2.3-5.7-6.1-5.4c-10.3,0.8-20.6,1.4-30.8,2.6c-7.8,0.9-15.6,2.4-23.4,3.9c-1.9,0.4-4.8,0.6-4,3.9
				c2.2,9.8,4.6,19.5,7,29.2c0.2,0.9,1.9,2.1,2.8,1.9c7.2-1.2,14.4-2.7,22-4.2c0-3.6-0.2-7.2,0.1-10.7c0.1-1.1,1.8-2.5,3-3
				c0.6-0.2,2.5,1.2,2.7,2.1c0.8,5.2,1.3,10.5,2,15.9c-11.3,2-21.9,4-32.4,5.8c-5.2,0.9-5.9,0.6-7.4-4.8c-2.3-8.5-4.4-17-6.6-25.5
				c-1.7-6.2-3.7-7.4-9.7-5.4c-7,2.3-14,4.8-20.8,7.7c-9.8,4.2-19.3,8.8-28.9,13.3c-2.1,1-3.6,2.4-2.1,5.1
				c4.5,8.3,8.9,16.6,13.6,24.8c0.5,0.8,2.3,1.7,3.1,1.3c6.8-2.9,13.4-6,20.4-9.2c-1.3-3.7-2.6-6.7-3.4-9.9
				c-0.3-1.2,0.2-3.3,1.1-3.9c1.6-1.2,4-1.7,5.1,0.9c2,4.7,3.8,9.5,5.7,14.4c-12,5.9-23.3,11.5-34.8,17.1
				c-6.8-11.6-13.4-22.9-20.1-34.5c-19.5,11.3-36.5,24.9-52.8,40c8.1,8.8,15.8,17.3,23.6,25.9c6.6-5.9,12.8-11.6,19.2-17.4
				c-1.9-2.7-3.6-5-5.2-7.4c-1.1-1.7-2.4-4.1,0.2-5.2c1.3-0.6,4.1,0,5.1,1.1c3.1,3.5,5.8,7.5,8.7,11.3c-9.7,8.6-19.2,16.9-29.1,25.7
				c-9.2-9.2-18.6-18.5-28.6-28.4c-7.2,8.5-14.5,16.3-21.1,24.8c-6.2,8.1-11.7,16.7-17.5,25.2c-1.2,1.7-1.8,3.4,0.5,4.9
				c7.8,5,15.6,10.2,23.5,15.1c0.8,0.5,3,0,3.6-0.8c4.5-6.1,8.9-12.3,13.3-18.7c-2.6-2.5-5-4.5-7-6.9c-0.8-1-0.6-2.8-0.9-4.2
				c1.5-0.2,3.5-1.1,4.5-0.5c3.2,2,6.1,4.5,9,6.9c1.8,1.4,1.9,3.1,0.5,5c-5.8,8.6-11.6,17.2-17.3,25.9c-1.9,3-3.8,3.1-6.6,1.4
				c-8.4-5.1-17-9.9-25.5-14.9c-2.9-1.8-4.9-1.6-6.5,1.6c-9.8,18.5-17.7,37.9-24.3,57.8c0.3,0.3,0.5,0.6,0.7,0.6
				c8.2,2.5,16.4,5.1,24.6,7.5c7.8,2.3,7.9,2.3,10.5-5.6c1.9-5.8,3.9-11.6,5.9-17.6c-3.2-1.2-5.8-2.2-8.4-3.2
				c-1.7-0.6-3.5-1.1-2.4-3.7c0.9-2.1,2-4.1,4.8-2.8c3.5,1.7,7,3.4,10.3,5.6c1,0.7,2,2.9,1.7,3.9c-3.6,11.1-7.4,22-11.3,33.5
				c-3.5-0.8-6.7-1.5-9.9-2.3c-8.1-2-16.1-4.1-24.2-6c-2.3-0.5-5-1.3-5.5,2.5c-2.8,19.7-5.6,39.4-8.4,59.2c-0.4,3.1,1.5,3.8,3.8,3.9
				c8.2,0.4,16.3,0.8,24.5,1.1c1.8,0.1,3.6,0,5.8,0c0.6-7.8,1.2-15.2,1.8-22.6c0.2-2.8-1-4.3-4-4.4c-1.9,0-3.8-0.2-5.5-0.9
				c-1.1-0.5-2.5-2.4-2.3-3.2c0.3-1.2,2-2.9,3.1-2.9c5,0.1,10,0.8,15.2,1.2c-1.4,13.7-2.7,26.8-4.1,40.2h-39.1
				c0.2,3.9,0.2,7.5,0.6,11c2.1,17.3,4.2,34.6,6.3,52c0.3,2.5,1.2,3.7,3.9,3.1c9-2,18.1-3.9,27.1-6.1c0.9-0.2,2.3-1.9,2.2-2.7
				c-1-8-2.3-15.9-3.6-24c-3.5,0.5-6.2,0.9-9,1.2c-2,0.2-3.9,0.4-3.9-2.6c0-2.6-0.3-5.1,3.4-5.1c3.5-0.1,7-0.1,10.4-0.8
				c2.7-0.5,3.4,0.8,3.8,2.8c2.1,11.6,4.2,23.2,6.3,35.4c-1.8,0.6-3.3,1.2-4.8,1.7c-9.3,2.8-18.6,5.3-27.8,8.3
				c-5,1.6-5.1,2.1-3.5,7.1c1.6,5,3.1,10,5,14.8c5,12.5,10,24.9,15.2,37.2c2.2,5.3,2.5,5.3,7.6,2.5c6.9-3.7,13.6-7.8,20.5-11.4
				c3.3-1.7,3.7-3.7,2.2-6.8c-1.7-3.6-3-7.4-4.6-11c-3.7-8.3-3.7-8.3-12-5.5c-0.3,0.1-0.6,0.3-0.8,0.2c-1.6-0.5-3.1-1.1-4.6-1.7
				c0.7-1.6,0.9-4,2.1-4.6c3.5-1.7,7.2-3,11-3.8c1.3-0.3,3.6,1.1,4.3,2.4c4.1,8.4,7.9,16.9,11.6,25.4c3,6.8,3.8,5.4-2.9,9.7
				c-7.9,5.1-16,10-24.2,14.7c-3.1,1.8-3.5,3.6-1.5,6.5c8.3,11.8,16.4,23.8,24.8,35.6c2.8,3.9,6.1,7.3,9.1,11c1.5,1.8,3,2.2,4.8,0.6
				c7-6,13.9-12,20.9-18.1c1.7-1.5,2-3.1,0.4-5c-4.8-5.9-9.5-11.8-14.4-17.9c-3.7,2.7-7.1,5.1-10.3,7.4c-4.2-4.6-4.2-5.4,0-8.7
				c3.3-2.6,6.7-5,10-7.5c8.4,10.1,16.7,20,25,30c-1.1,1.2-2.1,2.3-3.1,3.4c-3.8,4-7.6,8.1-11.3,12.1c0.4,0,0.8-0.1,1.2-0.1
				c2.1,0,4.2,0,6.3,0c1.7,0,3.5,0,5.2,0c2.7-3,5.4-5.9,8.1-8.9c5.1-5.8,5.3-4.3,0.2-10.5c-9.5-11.7-19-23.5-28.5-35.3
				c-0.6-0.7-1.2-1.5-2.1-2.5c-9,6.2-17.8,12.2-27.4,18.8c5.3,7.3,10.4,14.3,15.8,21.7c2.9-2,5.2-3.5,7.5-5.1
				c2.1-1.5,3.9-1.4,5.7,0.6c1.8,2,1.2,3.8-0.4,5.4c-3.7,3.6-7.5,7-11.9,11.2c-8.3-12.1-16.1-23.6-24-35c-1.8-2.6-0.1-3.7,1.6-4.9
				c8.3-5.4,16.6-10.7,24.8-16c1.4-0.9,2.7-1.8,4.2-2.8c-0.5-1.2-0.9-2.1-1.3-3.1c-6.7-14.1-13.5-28.1-20-42.3
				c-1.8-3.8-3.7-5.1-7.7-3.5c-7.2,2.9-14.6,5.5-21.9,8.1c-2.2,0.8-2.9,2-2,4.4c2.3,6,4.5,12.1,6.7,18.1c0.9,2.5,2.4,3,4.7,2.1
				c1.9-0.8,3.7-1.9,5.6-2.2c1.4-0.2,3.8,0.2,4.2,1.2c0.7,1.4,0.6,4.4-0.2,5c-4.1,2.8-8.6,5-13,7.2c-0.5,0.2-2.2-0.9-2.6-1.7
				c-4.5-11.3-8.8-22.7-13.2-34.1c-1.4-3.6,0-5.8,3.4-7c7.4-2.4,14.8-4.8,22.2-7.3c7.9-2.6,8.8-4.1,7.3-12.7
				c-2.6-15-5.3-30-8.1-45.8c-10.1,0.7-20.8,1.5-32.4,2.3c1,9.3,2,18,2.9,27.2c3.7-0.5,6.8-0.7,9.8-1.2c3.2-0.5,3.8,1.5,4.4,4
				c0.7,2.7-0.8,3.4-2.9,3.8c-3.9,0.8-7.9,1.6-11.8,2.3c-2.6,0.5-4.1-0.7-4.5-3.4c-1.7-13.2-3.5-26.4-5.3-40.1
				c5.2-0.4,9.9-0.7,14.5-1c7.2-0.5,14.4-1.2,21.7-1.5c3.4-0.1,4.3-1.8,4.4-4.8c0.5-11.4,1-22.8,1.7-34.2c0.3-4.4,1.1-8.8,1.2-13.1
				c0-1.3-1.1-3.7-2.1-3.9c-9.4-2.3-18.8-4.2-29.1-6.4c-1.2,8.5-2.4,16.3-3.2,24.2c-0.4,3.3,2.2,3.9,4.8,4.2
				c2.8,0.3,6.9-1.1,6.7,4.1c-0.3,5.3-4.5,3.1-7.1,3.4c-3.7,0.4-7.4,0.1-11.7,0.1c0.3-15.5,3.5-30.1,5.9-45.4
				c4.2,0.9,8.1,1.6,11.9,2.5c7.3,1.6,14.7,3.2,21.9,5.1c3.1,0.8,4.4-0.3,5.4-3c5.4-15.2,10.9-30.5,16.1-45.8
				c0.4-1.1-0.6-3.7-1.6-4.3c-8.6-4.7-17.4-9-26.8-13.8c-3.2,8.1-6.2,15.4-9,22.8c-0.3,0.7,0.8,2.5,1.7,3.1c1.9,1.3,4.2,1.9,6.1,3.2
				c1.2,0.8,2.8,2.7,2.6,3.7c-0.4,2.2-1.8,4.7-4.7,3.9c-4.4-1.2-8.7-2.8-12.8-4.7c-0.8-0.4-1.3-3.3-0.9-4.6c3-8.4,6.2-16.7,9.5-24.9
				c1.7-4.2,3.9-8.1,6.2-12.7c11.5,6,22.8,12,34.3,18c0.9-1.3,1.7-2.3,2.5-3.5c8.8-13,17.6-26,26.5-38.9c1.2-1.8,2-3.3,0.2-5
				c-7.3-6.8-14.7-13.5-22.7-20.9c-5.3,7.1-10.1,13.3-14.7,19.8c-0.5,0.7,0.2,2.8,1,3.7c1.6,1.7,3.9,2.6,5.3,4.4
				c0.8,1.1,1.1,3.6,0.5,4.6c-0.7,1.1-3.3,2.2-4.2,1.7c-4.3-2.2-8.3-4.9-12.2-7.8c-0.6-0.5-0.3-3.4,0.5-4.5
				c6-8.4,12.3-16.7,18.5-24.9c2-2.6,4.1-5,6.3-7.6c10.1,9.2,19.9,18.3,29.1,26.6c14.2-12.3,27.5-24,41.4-36.1
				c-5.5-8-11.2-16.5-17-24.8c-0.4-0.6-2.5-0.8-3.3-0.3c-6.3,4.4-12.5,9-18.9,13.6c2.1,2.9,3.8,5.5,5.7,7.9c2.3,3,0.3,4.8-1.5,6.6
				c-2.1,2.1-3.4,0.1-4.6-1.3c-3.3-3.8-6.4-7.7-10.1-12.1c11.2-10.2,22.9-19,35.7-26.7c5.5,8.9,10.8,17.3,16,25.8
				c4.3,6.9,4.3,7,11.7,3.5c12.5-5.9,25-12.1,37.5-17.9c3.5-1.6,4.4-3.5,3-7.3c-2.8-7.3-5.1-14.8-7.8-22.1c-0.5-1.2-2.6-2.9-3.5-2.6
				c-7.4,2.2-14.7,4.9-22.5,7.6c1.1,2.8,1.8,4.8,2.6,6.7c2.5,5.9,2.1,6.8-4.5,9.4c-2.8-5.5-5.6-11-8.5-16.7c1.3-0.8,2.1-1.6,3.1-2
				c11-4.6,22.1-9.1,33.1-13.8c3.8-1.6,5.8-0.4,6.9,3.4c2.8,9.6,5.7,19.2,8.6,28.8c0.4,1.3,0.8,2.6,1.1,3.7
				c17.6-3.3,35.1-6.7,53.2-10.1c0-2.1,0.2-4.7,0-7.4c-0.5-7.1-1.1-14.3-1.7-21.4c-0.2-2.4-1.2-3.8-3.9-3.5
				c-7.2,0.7-14.4,1.4-22,2.1c0.3,3.6,0.8,7,0.8,10.4c0,1.4-0.9,3.7-1.9,4c-2.3,0.7-5.1,0.7-5.9-2.6c-1.1-4.5-1.9-9.1-2.6-13.8
				c-0.1-0.8,1.3-2.4,2.1-2.5c13.9-2,27.8-3.8,42.5-5.8c0,3.6,0,6.1,0,8.7c0.1,8.3,0.1,16.5,0.4,24.8c0.2,6.2,0.4,6.5,6.3,7.1
				c12.7,1.2,25.4,2.1,38.1,3.3c3.2,0.3,6.3,0.9,10.2,1.5c1.9-10.2,3.9-20.1,5.6-30.1c0.2-0.9-1.3-2.9-2.2-3
				c-6.6-1.3-13.2-2.4-19.8-3.1c-1.1-0.1-3,1.8-3.6,3.2c-0.8,1.8-0.5,4.1-1.2,6c-0.5,1.3-2,3.2-2.8,3.1c-1.6-0.3-4.1-1.8-4.2-2.8
				c-0.2-5,0.1-10.1,0.8-15.1c0.1-0.9,3.1-2,4.5-1.8c10.4,1.3,20.7,3,31,4.6c2.5,0.4,4.9,1,8,1.7c-1.5,7.3-3,14.2-4.4,21.1
				c-1,4.8-2.2,9.7-2.9,14.5c-0.2,1.3,1,3,2,4.1c0.7,0.8,2.2,1,3.3,1.4c13.2,4.8,26.5,9.5,39.7,14.6c3.7,1.4,5.7,1,7.4-2.9
				c3.7-8.2,7.8-16.2,12.1-25.1c-8.2-3.8-15.9-7.3-23.8-10.9c-1,2.4-1.8,4.4-2.7,6.4c-2.5,6.1-3.5,6.5-10.3,3.1
				c1.8-5.2,3.4-10.5,5.5-15.6c0.4-0.9,2.8-1.9,3.8-1.5c12.8,5.3,25.4,10.8,38.7,16.4c-6.6,12.5-12.7,24.1-18.8,35.4
				c15,10.6,29.7,21,44.9,31.8c6.9-8,14-16.3,21.4-24.8c-7-5.9-13.7-11.5-20.6-17.3c-2.5,2.9-4.8,5.5-7.1,8.1
				c-1.5,1.7-3,2.1-4.9,0.6c-1.9-1.5-2.6-3.2-1.2-5.3c3-4.5,6.1-9,9.5-13.9c11.9,9.6,23.3,18.8,35.2,28.4
				c-9.3,10.3-18.3,20.2-27.3,30.2c6.1,6.6,12.1,12.9,17.7,19.5c5,5.9,9.7,12.1,14.2,18.5c2.3,3.3,4.3,4.3,7.7,1.6
				c6.5-4.9,13.2-9.5,19.8-14.2c2.4-1.7,2.8-3.6,0.8-6.1c-3.8-4.6-7.4-9.4-11.1-14.2c-1.5-2-3-2.3-5-0.6c-2.1,1.9-4.4,3.6-7,5.7
				c-2-2.1-4-4.1-6.3-6.5c4.4-3.7,8.4-7.1,12.5-10.4c2-1.7,4-1.5,5.6,0.7c8.1,11.1,16.2,22.2,24.5,33.6
				c-11.7,7.5-22.5,14.5-33.5,21.6c2,3.9,3.9,7.4,5.5,11c5.3,11.7,10.7,23.4,15.7,35.2c1.3,3,2.7,3.8,5.5,2.8
				c8-2.8,15.9-5.6,23.9-8.4c2.6-0.9,3.3-2.4,2.2-5c-2.4-5.7-4.7-11.4-6.9-17.1c-1.2-3-3.2-3.4-5.8-2.3c-2.3,1-4.7,2-6.9,3
				c-4.8-5.4-4.5-6.8,1.6-10.1c3.7-2,7.4-3.9,11.5-6c0.8,1.7,1.7,3.2,2.3,4.8c4.2,11,8.3,22.1,12.4,33.1c1.4,3.6,0.4,5.5-3.3,6.7
				c-8.7,2.7-17.4,5.6-26,8.6c-6,2.1-5.9,2.3-4.7,8.4c3,15.9,5.9,31.9,8.8,47.7c4.1,0,8.7,0.2,13.3,0c4.9-0.2,9.9-0.8,14.8-1.3
				c2.9-0.3,4.3-2.2,4-5.1c-0.6-5.7-1.3-11.5-1.9-17.2c-0.4-3.6-2.5-4.9-5.9-4.3c-1.3,0.2-2.7,0.2-4,0.4c-3.2,0.6-4.2-1.4-4.8-4.1
				c-0.7-3.1,1.4-3.4,3.4-3.8c3.9-0.9,7.8-1.7,11.8-2.5c2.3-0.4,3.5,0.6,3.8,3c1.7,13.8,3.5,27.5,5.3,42.1c-5.1,0-9.6-0.2-14.1,0
				c-7.8,0.4-15.5,1-23.3,1.4c-2.6,0.1-3.6,0.9-3.7,3.8c-0.8,15.8-1.9,31.6-2.7,47.4c-0.1,1.3,0.8,3.5,1.6,3.7
				c9.7,2.7,19.4,5.2,30,7.9c1.1-7.3,2.1-13.8,2.9-20.2c0.9-7.7,0.8-7.9-6.8-8.3c-3.5-0.2-4.6-1.5-4.5-5c0.1-3.6,2-4.1,4.7-3.8
				c4.6,0.5,9.3,1,14.7,1.6c-1.1,9.3-2.2,18.1-3.4,26.9c-0.6,4.1-1.4,8.1-2.2,12.2c-1,5.4-1.1,5.5-6.2,4.4c-9.5-1.9-19-3.7-28.4-5.8
				c-3.6-0.8-5.2,0.2-6.3,3.8c-5.1,15.8-10.5,31.4-15.9,47.8c5,2.5,10.3,5.2,15.7,7.8c3.3,1.6,6.6,3,9.9,4.6
				c2.2,1.1,3.5,0.5,4.4-1.6c2.6-6,5.2-12,7.9-18c1.2-2.7,0.2-4.2-2.3-5c-1.6-0.6-3.4-1-4.9-1.9c-1.3-0.8-2.2-2.2-3.3-3.3
				c1.7-1.5,3.7-4.5,5-4.2c4.5,0.9,8.9,2.8,13.2,4.6c0.7,0.3,1.4,2.2,1.2,2.9c-5.1,13.1-10.3,26.2-15.6,39.7
				c-3.1-1.5-5.3-2.5-7.4-3.6c-8.4-4.3-16.8-8.5-25.2-12.9c-2.3-1.2-3.8-0.9-5.3,1.4c-9.3,14.1-18.7,28.2-28.3,42.6
				c7.6,6.7,15.7,13.9,24.3,21.5c4.7-6.4,9.3-12.6,13.8-18.8c1.6-2.2,1-4.1-1.2-5.6c-1.4-0.9-2.9-1.6-3.9-2.8
				c-1-1.1-2.3-3.3-1.8-4.1c1.1-2,2.9-4.7,5.7-3c4,2.4,7.8,5.3,11.4,8.3c0.7,0.5,0.8,3,0.1,3.8c-7.1,9.8-14.5,19.5-21.7,29.2
				c-2.2,3-4.6,2.3-6.9,0.2c-7.2-6.6-14.3-13.3-21.4-20c-1.2-1.1-2.3-2.2-3.3-3.1c-9.1,7.9-18.1,15.7-27.1,23.6
				c3.5,0.4,7,0.8,10.5,1.2c5.1-4.5,10.1-8.9,15.1-13.3c5.8,5.6,11.6,11.2,17.3,16.8c7.2-0.2,14.3-0.4,21.5-0.4
				c11.4-13.8,27.1-35.4,29.9-42.1c-9.1-5.4-18.3-10.9-27.6-16.2c-0.6-0.4-2.5,0.5-3.2,1.4c-3.5,4.8-6.9,9.8-10.3,14.8
				c-1.9,2.8-1.4,5.1,1.4,6.9c2.1,1.4,4,3,6,4.5c-2.8,5-4.4,5.5-8.3,2.5c-2.2-1.7-4.3-3.7-6.5-5.6c-2.2-1.9-2.4-3.8-0.6-6.4
				c5.2-7.5,10.2-15.2,15.3-22.8c1.3-1.9,2.6-3.7,4-5.7c3.1,1.7,5.8,3.2,8.5,4.8c7.5,4.3,15,8.6,22.4,13c2.4,1.4,3.9,1.4,5.4-1.4
				c9.2-17.2,16.7-35.1,23-53.5c1.2-3.6,0.1-5.5-3.2-6.5c-8.1-2.5-16.2-4.8-24.3-7.4c-2.3-0.7-3.6,0.4-4.4,2.3
				c-1.9,4.7-3.9,9.4-5.6,14.1c-2.5,6.9-2.5,7,4.3,10c0.7,0.3,1.7,0.5,2.1,1.1c0.8,1.1,2.2,3.3,1.9,3.7c-1,1.2-2.8,2.5-4.2,2.4
				c-2.3-0.2-4.6-1.4-6.8-2.3c-6.4-2.6-6.9-3.8-4.6-10.6c2.6-7.8,5.4-15.5,7.9-23.4c2-6.3,2.3-6.7,8.8-5.1
				c9.3,2.2,18.5,4.5,27.7,6.8c3.2,0.8,4.7-0.2,5.3-3.6c0.8-4.5,2.1-8.8,2.7-13.3c1.9-14.4,3.6-28.9,5.5-43.4
				C799.4,428,798.3,426.3,794.7,426.3z"/>
			<path d="M350,609.9c7,0.1,14,0.2,20.9,0.5c-4.4-3.2-8.9-6.4-13.4-9.6C355.2,603.7,352.6,606.8,350,609.9z"/>
			<path class="st5" d="M771.9,438.6c-0.1,3.5,1,4.9,4.5,5c7.6,0.4,7.7,0.6,6.8,8.3c-0.8,6.5-1.8,12.9-2.9,20.2
				c-10.6-2.7-20.3-5.2-30-7.9c-0.8-0.2-1.7-2.5-1.6-3.7c0.8-15.8,1.9-31.6,2.7-47.4c0.1-3,1.1-3.7,3.7-3.8c7.8-0.4,15.5-1,23.3-1.4
				c4.5-0.2,9,0,14.1,0c-1.9-14.6-3.6-28.3-5.3-42.1c-0.3-2.4-1.6-3.4-3.8-3c-3.9,0.8-7.9,1.6-11.8,2.5c-1.9,0.4-4.1,0.7-3.4,3.8
				c0.6,2.7,1.5,4.7,4.8,4.1c1.3-0.2,2.7-0.2,4-0.4c3.4-0.6,5.5,0.7,5.9,4.3c0.7,5.7,1.3,11.5,1.9,17.2c0.3,3-1.1,4.8-4,5.1
				c-4.9,0.6-9.9,1.1-14.8,1.3c-4.6,0.2-9.3,0-13.3,0c-2.9-15.9-5.8-31.8-8.8-47.7c-1.2-6.2-1.3-6.3,4.7-8.4c8.6-3,17.3-5.9,26-8.6
				c3.7-1.1,4.7-3.1,3.3-6.7c-4.2-11-8.3-22-12.4-33.1c-0.6-1.6-1.5-3.1-2.3-4.8c-4.1,2.2-7.8,4.1-11.5,6c-6.1,3.3-6.3,4.7-1.6,10.1
				c2.3-1,4.6-2,6.9-3c2.6-1.1,4.6-0.8,5.8,2.3c2.2,5.7,4.5,11.5,6.9,17.1c1.1,2.6,0.4,4.1-2.2,5c-8,2.8-16,5.6-23.9,8.4
				c-2.8,1-4.2,0.2-5.5-2.8c-5-11.8-10.4-23.5-15.7-35.2c-1.6-3.6-3.5-7-5.5-11c11.1-7.1,21.9-14.1,33.5-21.6
				c-8.3-11.4-16.4-22.5-24.5-33.6c-1.6-2.2-3.5-2.4-5.6-0.7c-4.1,3.3-8.1,6.7-12.5,10.4c2.3,2.4,4.3,4.5,6.3,6.5
				c2.6-2.1,4.9-3.8,7-5.7c2-1.7,3.5-1.4,5,0.6c3.6,4.8,7.3,9.5,11.1,14.2c2,2.5,1.7,4.4-0.8,6.1c-6.6,4.7-13.3,9.3-19.8,14.2
				c-3.5,2.6-5.4,1.6-7.7-1.6c-4.5-6.3-9.2-12.6-14.2-18.5c-5.6-6.6-11.7-12.9-17.7-19.5c9-10,18-19.9,27.3-30.2
				c-11.9-9.6-23.3-18.8-35.2-28.4c-3.4,5-6.5,9.4-9.5,13.9c-1.4,2.1-0.7,3.8,1.2,5.3c1.9,1.5,3.4,1.1,4.9-0.6
				c2.3-2.6,4.6-5.3,7.1-8.1c6.9,5.8,13.6,11.4,20.6,17.3c-7.4,8.5-14.5,16.8-21.4,24.8c-15.2-10.8-29.9-21.2-44.9-31.8
				c6-11.4,12.1-22.9,18.8-35.4c-13.3-5.7-26-11.2-38.7-16.4c-1-0.4-3.4,0.6-3.8,1.5c-2.1,5.1-3.8,10.5-5.5,15.6
				c6.7,3.3,7.8,3,10.3-3.1c0.8-2,1.7-4,2.7-6.4c7.9,3.6,15.6,7.1,23.8,10.9c-4.3,8.9-8.4,16.9-12.1,25.1c-1.7,3.9-3.7,4.3-7.4,2.9
				c-13.2-5-26.5-9.7-39.7-14.6c-1.1-0.4-2.6-0.6-3.3-1.4c-1-1.1-2.2-2.8-2-4.1c0.7-4.9,1.9-9.7,2.9-14.5c1.4-6.9,2.9-13.9,4.4-21.1
				c-3-0.6-5.5-1.3-8-1.7c-10.3-1.6-20.7-3.2-31-4.6c-1.5-0.2-4.4,1-4.5,1.8c-0.7,5-1,10.1-0.8,15.1c0,1.1,2.6,2.5,4.2,2.8
				c0.7,0.2,2.3-1.8,2.8-3.1c0.7-1.9,0.4-4.2,1.2-6c0.6-1.4,2.5-3.4,3.6-3.2c6.6,0.7,13.2,1.8,19.8,3.1c0.9,0.2,2.4,2.1,2.2,3
				c-1.7,10-3.6,19.9-5.6,30.1c-3.9-0.6-7-1.2-10.2-1.5c-12.7-1.1-25.4-2.1-38.1-3.3c-5.9-0.5-6.2-0.8-6.3-7.1
				c-0.2-8.3-0.3-16.5-0.4-24.8c0-2.6,0-5.1,0-8.7c-14.6,2-28.6,3.8-42.5,5.8c-0.8,0.1-2.2,1.8-2.1,2.5c0.6,4.6,1.5,9.2,2.6,13.8
				c0.8,3.2,3.6,3.3,5.9,2.6c1-0.3,1.9-2.6,1.9-4c0-3.4-0.5-6.7-0.8-10.4c7.6-0.7,14.8-1.4,22-2.1c2.7-0.3,3.7,1.1,3.9,3.5
				c0.6,7.1,1.2,14.2,1.7,21.4c0.2,2.7,0,5.4,0,7.4c-18.1,3.4-35.5,6.7-53.2,10.1c-0.3-1.1-0.7-2.4-1.1-3.7
				c-2.9-9.6-5.8-19.2-8.6-28.8c-1.1-3.8-3.2-5-6.9-3.4c-11,4.7-22.1,9.2-33.1,13.8c-1,0.4-1.8,1.1-3.1,2c2.9,5.7,5.7,11.3,8.5,16.7
				c6.6-2.6,7-3.6,4.5-9.4c-0.8-2-1.6-4-2.6-6.7c7.8-2.7,15.1-5.3,22.5-7.6c0.9-0.3,3,1.4,3.5,2.6c2.8,7.3,5,14.8,7.8,22.1
				c1.4,3.8,0.5,5.6-3,7.3c-12.6,5.8-25,12-37.5,17.9c-7.4,3.5-7.4,3.4-11.7-3.5c-5.3-8.4-10.5-16.9-16-25.8
				c-12.8,7.8-24.5,16.5-35.7,26.7c3.7,4.4,6.8,8.3,10.1,12.1c1.2,1.3,2.5,3.4,4.6,1.3c1.8-1.8,3.8-3.7,1.5-6.6
				c-1.9-2.4-3.6-5-5.7-7.9c6.4-4.7,12.6-9.3,18.9-13.6c0.7-0.5,2.8-0.3,3.3,0.3c5.9,8.3,11.6,16.8,17,24.8
				c-13.9,12.1-27.3,23.7-41.4,36.1c-9.1-8.4-19-17.4-29.1-26.6c-2.2,2.6-4.3,5.1-6.3,7.6c-6.2,8.3-12.5,16.5-18.5,24.9
				c-0.8,1.1-1.1,4-0.5,4.5c3.9,2.9,7.9,5.6,12.2,7.8c1,0.5,3.5-0.6,4.2-1.7c0.7-1,0.3-3.5-0.5-4.6c-1.4-1.8-3.7-2.7-5.3-4.4
				c-0.8-0.8-1.4-3-1-3.7c4.5-6.4,9.3-12.7,14.7-19.8c8,7.4,15.4,14.1,22.7,20.9c1.8,1.7,1.1,3.2-0.2,5
				c-8.9,12.9-17.7,25.9-26.5,38.9c-0.8,1.1-1.6,2.2-2.5,3.5c-11.5-6-22.7-12-34.3-18c-2.3,4.6-4.5,8.5-6.2,12.7
				c-3.4,8.2-6.5,16.5-9.5,24.9c-0.5,1.3,0.1,4.2,0.9,4.6c4.1,1.9,8.5,3.4,12.8,4.7c2.8,0.8,4.3-1.7,4.7-3.9
				c0.2-1.1-1.4-2.9-2.6-3.7c-1.8-1.3-4.2-1.9-6.1-3.2c-0.9-0.6-1.9-2.4-1.7-3.1c2.7-7.4,5.7-14.7,9-22.8
				c9.4,4.8,18.2,9.1,26.8,13.8c1,0.6,2,3.1,1.6,4.3c-5.2,15.3-10.7,30.5-16.1,45.8c-1,2.7-2.3,3.8-5.4,3
				c-7.3-1.9-14.6-3.5-21.9-5.1c-3.9-0.9-7.7-1.6-11.9-2.5c-2.4,15.4-5.6,30-5.9,45.4c4.3,0,8,0.3,11.7-0.1c2.6-0.3,6.8,1.9,7.1-3.4
				c0.3-5.2-3.9-3.8-6.7-4.1c-2.6-0.3-5.2-0.9-4.8-4.2c0.9-7.9,2.1-15.7,3.2-24.2c10.3,2.2,19.8,4.1,29.1,6.4c1,0.2,2.2,2.6,2.1,3.9
				c-0.1,4.4-0.9,8.8-1.2,13.1c-0.7,11.4-1.2,22.8-1.7,34.2c-0.1,3.1-1,4.7-4.4,4.8c-7.2,0.3-14.4,1-21.7,1.5
				c-4.6,0.3-9.2,0.6-14.5,1c1.8,13.7,3.6,26.9,5.3,40.1c0.4,2.7,1.9,3.9,4.5,3.4c3.9-0.7,7.9-1.5,11.8-2.3c2.1-0.4,3.5-1.1,2.9-3.8
				c-0.6-2.5-1.3-4.5-4.4-4c-3,0.5-6.1,0.8-9.8,1.2c-1-9.2-1.9-17.9-2.9-27.2c11.6-0.8,22.3-1.6,32.4-2.3
				c2.8,15.8,5.5,30.8,8.1,45.8c1.5,8.5,0.6,10-7.3,12.7c-7.4,2.5-14.8,4.8-22.2,7.3c-3.4,1.1-4.8,3.3-3.4,7
				c4.4,11.4,8.7,22.8,13.2,34.1c0.3,0.8,2.1,2,2.6,1.7c4.4-2.2,8.9-4.4,13-7.2c0.9-0.6,0.9-3.6,0.2-5c-0.4-0.9-2.8-1.4-4.2-1.2
				c-1.9,0.3-3.8,1.4-5.6,2.2c-2.3,1-3.8,0.4-4.7-2.1c-2.2-6.1-4.4-12.1-6.7-18.1c-0.9-2.4-0.2-3.6,2-4.4c7.3-2.7,14.7-5.2,21.9-8.1
				c4-1.6,6-0.3,7.7,3.5c6.5,14.2,13.3,28.2,20,42.3c0.4,0.9,0.8,1.9,1.3,3.1c-1.6,1-2.9,1.9-4.2,2.8c-8.3,5.3-16.6,10.7-24.8,16
				c-1.8,1.1-3.4,2.3-1.6,4.9c7.9,11.4,15.7,22.9,24,35c4.5-4.2,8.3-7.6,11.9-11.2c1.6-1.6,2.2-3.3,0.4-5.4c-1.8-2-3.6-2-5.7-0.6
				c-2.3,1.6-4.6,3.2-7.5,5.1c-5.4-7.4-10.5-14.5-15.8-21.7c9.6-6.6,18.4-12.7,27.4-18.8c0.9,1.1,1.5,1.8,2.1,2.5
				c9.5,11.8,19,23.5,28.5,35.3c5,6.2,4.9,4.7-0.2,10.5c-2.6,3-5.3,6-8.1,8.9c3.6,0,7.1,0,10.7,0.1c2.6-3.1,5.1-6.2,7.6-9.1
				c4.5,3.2,8.9,6.4,13.4,9.6c3.4,0.1,6.8,0.3,10.2,0.5c-59.6-43.5-98.2-115.2-97.6-195c1-134.4,107-236.1,230.9-236.2
				c128.3,0,231.4,105.9,231.7,237.5c0.2,77.5-36.2,146.6-92.5,190.1c2.7,0.2,5.5,0.4,8.2,0.7c9.1-7.9,18-15.7,27.1-23.6
				c1,0.9,2.1,2,3.3,3.1c7.1,6.7,14.3,13.4,21.4,20c2.3,2.1,4.6,2.8,6.9-0.2c7.3-9.7,14.6-19.4,21.7-29.2c0.6-0.8,0.5-3.3-0.1-3.8
				c-3.6-3-7.4-5.9-11.4-8.3c-2.8-1.7-4.6,1-5.7,3c-0.4,0.8,0.9,3,1.8,4.1c1,1.2,2.6,1.9,3.9,2.8c2.3,1.4,2.8,3.4,1.2,5.6
				c-4.5,6.3-9.2,12.5-13.8,18.8c-8.6-7.6-16.7-14.8-24.3-21.5c9.6-14.5,19.1-28.5,28.3-42.6c1.5-2.3,3-2.6,5.3-1.4
				c8.4,4.4,16.8,8.6,25.2,12.9c2.1,1.1,4.3,2.1,7.4,3.6c5.3-13.5,10.6-26.5,15.6-39.7c0.3-0.7-0.5-2.6-1.2-2.9
				c-4.3-1.8-8.7-3.7-13.2-4.6c-1.4-0.3-3.3,2.7-5,4.2c1.1,1.1,2,2.5,3.3,3.3c1.5,0.9,3.2,1.3,4.9,1.9c2.5,0.9,3.5,2.3,2.3,5
				c-2.7,6-5.3,12-7.9,18c-0.9,2.2-2.3,2.7-4.4,1.6c-3.2-1.6-6.6-3-9.9-4.6c-5.4-2.6-10.8-5.4-15.7-7.8c5.5-16.3,10.9-32,15.9-47.8
				c1.2-3.6,2.7-4.6,6.3-3.8c9.4,2.1,18.9,3.9,28.4,5.8c5.1,1,5.2,1,6.2-4.4c0.8-4,1.6-8.1,2.2-12.2c1.2-8.8,2.2-17.6,3.4-26.9
				c-5.4-0.6-10-1.1-14.7-1.6C774,434.5,772,435,771.9,438.6z"/>
		</g>
	</g>
	<g>
		<path class="st6" d="M456.9,362.1c1.5-6.6,0.4-13.9,0.4-20.9c-5.3,0.2-9.8,4.6-10,10.2c-0.3,7.2-0.1,14.4-0.1,21.6
			c0.4,0.2,0.7,0.4,1.1,0.6C451.3,369.9,455.9,366.5,456.9,362.1z"/>
		<path class="st6" d="M436.4,389.6c6.9,0,13,0.2,19.2-0.1c6.2-0.3,10-3.9,11.3-10.4C454.4,375.1,443.7,378.5,436.4,389.6z"/>
		<path class="st6" d="M574.1,374.9c3.5,3.3,6.9,6.8,10.5,10c3.6,3.1,8.1,4.2,12.1,1.2c4.4-3.4,8.3-7.5,13.4-12.3h-35.3
			C574.5,374.2,574.3,374.6,574.1,374.9z"/>
		<path class="st6" d="M533.2,307.1c4.9-0.4,7.8-4.7,8-10.2c-4.4,0-8.9,0.6-13.1-0.1c-8.2-1.5-11.8,4.8-17.1,10.5
			C519,307.3,526.1,307.7,533.2,307.1z"/>
		<path class="st6" d="M481.9,361.7c5.5-0.3,9.1-4.4,9.4-10.2c-10.7,0.2-22.4-3.7-29.6,10.3C468.5,361.8,475.2,362.1,481.9,361.7z"
			/>
		<path class="st6" d="M424.6,433.8c3.1-2.4,3.5-5,2.4-8.7c-1.3-4.8-2.5-9.6-3-14.5c-4.3-47.5,20.6-89.6,63.6-107.9
			c7.4-3.1,8.8-6.7,5.7-15.3c-31.9,9.4-55.4,29.5-70.4,59.7c-14.9,29.8-15.5,60.7-4.9,93.5C421,437.5,422.6,435.4,424.6,433.8z"/>
		<path class="st6" d="M502.8,313.7c1.6-2,4-4.2,4.2-6.5c0.6-6.8,0.2-13.8,0.2-20.7c-5.5,0.8-10,4.4-10.2,8.8
			c-0.4,7.9-0.1,15.9-0.1,24.6C499.3,317.4,501.2,315.7,502.8,313.7z"/>
		<path class="st6" d="M506.8,334.7c5.7-0.3,8.6-3.7,9.6-9.7c-13-3.7-24.2-0.1-29.8,9.8C493.5,334.8,500.2,335.1,506.8,334.7z"/>
		<path class="st6" d="M481.2,336c1.4-7.2,0.4-14.9,0.4-22.4c-6.3,1.4-8.7,3.1-9.1,8.7c-0.6,7.9-0.1,15.8-0.1,25
			C475.8,343.1,480.5,339.9,481.2,336z"/>
		<path class="st6" d="M625.8,430.9c2.5-1.8,4.6-3.3,6.6-5c2.5-2,2.9-4.2,0.1-6.4c-2.2-1.6-4.5-3.2-6.5-4.6
			c10.2-14.7,10.7-16.9,5.5-21.6c-7,7.2-14.1,14.4-21.5,22c4.6,4.7,9.2,9.3,13.8,13.8c2.2,2.1,2.2,3.7,0,5.7
			c-3.5,3.4-6.7,7.2-10.4,10.4c-3.3,2.9-3.4,4.8-0.1,7.8c4.6,4.2,6.5,9.5,3.9,15.7c-2.5,6.1-7.2,9-13.7,8.9c-9.5-0.1-19-0.2-28.6,0
			c-10,0.3-18.3-3.3-25.1-10.7c-3-3.2-5.6-6.7-8.3-10.1c-2.6,2.2-3.9,3.2-5.2,4.1c-9.2,6.5-22.6,6.3-30.8-0.8
			c-9.2-8-7.8-6.2-0.8-13.9c2.5-2.7,4-3.3,6.9-0.2c4.6,5.1,10.5,6.1,15.4,3.6c2.6-1.3,3.6-2.8,1.1-5.2c-2.5-2.4-4.6-5.2-7.2-7.3
			c-3.4-2.7-2.7-4.7,0-7.5c14.7-14.9,21.3-33.2,21.1-54.2c-0.1-10.4,0.1-20.9,0-31.3c-0.1-10.2,3.4-18.7,10.4-25.8
			c4.9-4.9,9.6-9.8,14.3-14.8c1.1-1.2,1.7-2.9,2.5-4.4c-1.6-0.9-3.2-2.3-4.9-2.7c-6.8-1.7-11.3,2.6-15.6,7
			c-17.1,17.4-34.1,34.7-51.1,52.2c-30.4,31.1-60.8,62.2-91,93.4c-14.1,14.6-17.9,32-11.8,51.7c0.6,2.1,0.8,4.7,0.1,6.7
			c-4.3,12.9-3.6,25.4,1.8,37.7c0.6,1.4,1.1,3.2,0.8,4.7c-2,10.1-1.4,20.2,3.5,29c5,9.1,9.9,18.2,15.3,27.1c4-1.8,8.4-2.8,12.8-2.8
			c0.1,0,0.2,0,0.3,0c-2.8-3.9-4.1-8-4.9-12.2c-2.3-12.4,1-23.3,9.7-32.3c15.4-16,31-31.9,46.5-47.8c1.6-1.6,3.2-3.3,4.7-5
			c7.5-8.7,7.3-18-0.6-26.5c-1-1.1-2.1-2.1-3.2-3.1c-2.5-2.2-2.4-4.1,0.1-6.6c7.5-7.5,7.4-7.5,14.5,0.1c12.8,14,12.4,33.6-0.8,47.1
			c-15.2,15.5-30.3,31.2-45.6,46.6c-10.8,10.8-17.5,23.2-17.3,39.7c4.2,0.2,8.3,0.7,12.3,1.5c-0.2-10.5,3.5-21.5,11.8-29.5
			c16.5-16.2,32.4-33.2,48.6-49.8c7.8-8.1,12.4-17.8,12.8-29.2c0.2-5.7-0.6-11.4-1-17.7c1.2,0,2.6,0.2,3.9,0
			c4.7-0.8,9.6-1.1,14.1-2.7c3.2-1.1,4.8-0.6,7.1,1.6c6.7,6.8,14.8,11.1,24.2,12.5c1.4,0.2,2.7,0.6,5,1
			c-10.3,19.1-19.9,37.5-30.1,55.5c-9.4,16.6-16.1,33.6-14.3,53.5c0.6,6.9,2.4,13.7,5.1,20.1c4.6-2.4,9.6-3.8,14.7-3.9
			c1.2,0,2.4-0.1,3.7-0.2c0.1-1.4,0.3-2.9,0.6-4.3c1.5-5.8,5-11.2,8.1-16.5c1.7-2.9,4.7-5,7-7.5c6.6-7.6,6.7-17,0.1-24.6
			c-3.1-3.5-6.4-7-9.9-10.2c-2.1-2-2.2-3.7-0.7-6c1.9-3,3.6-6.2,6-10.6c7,7.9,14,14.4,19.4,22.1c8.4,12.1,5.9,29.2-5,40.4
			c-4.9,5-9.5,10.1-12.7,16.1c5.7-0.6,11.4-1.4,17-2.1c0.9-1,1.8-1.9,2.8-2.8c20-18.8,20.6-48.7,1.3-68.2
			c-4.8-4.9-9.5-9.9-14.4-14.7c-1.8-1.8-2.2-3.3-0.8-5.5c2-3.1,3.7-6.5,6.1-10.8c10.7,12.5,23.5,21.8,31,36.2
			c10.5,20.3,8.6,45.5-4.4,63.9c0.4,0,0.8,0,1.2-0.1c4.4-0.1,8.6,0.9,12.4,2.5c0.5-0.8,1-1.6,1.5-2.5c13.5-24.8,11.4-59.1-6.3-80.8
			c-7.9-9.7-17.2-18.4-25.7-27.7c-1.3-1.4-2.7-4.1-2.2-5.5c1-3.1,2.3-6.6,6.8-6.4c5,0.3,10,0.3,15,0c18.1-0.9,30.2-16.8,25.1-34.1
			c-1.7-5.8-1.2-9.3,3-12.7c2.3-1.8,1.9-3.4,0-5.3C630.9,436.5,629,434.3,625.8,430.9z M404.8,482.4c0.8-8.5,3.5-16.1,9.5-22.3
			c27.1-27.8,54.2-55.6,81.3-83.5c1.8-1.8,3.1-4,4.7-6c0.5,0.4,1,0.8,1.5,1.3c1.4,10.7-0.9,20.5-8.5,28.4
			c-17.5,18.1-35.1,36-52.7,54c-9.9,10.2-19.8,20.4-29.7,30.6c-1.4,1.5-3,2.9-5.4,5.3C405.1,486.7,404.6,484.5,404.8,482.4z
			 M474.6,498.7c-15,15.5-30,31-45.1,46.3c-7,7.1-13.3,14.4-16,24.4c-0.2,0.6-0.8,1-1.8,2.3c-4.4-13.5-2.8-25.4,6-35.1
			c11.2-12.6,23.3-24.3,35-36.4c4.7-4.8,9.5-9.5,14-14.5c2.6-2.9,4.4-2.6,6.6,0.2c0.6,0.8,1.4,1.4,2,2.1
			C479.3,492.5,479.2,493.9,474.6,498.7z M411.4,523.8c-1.8,1.8-3.4,3.8-5.8,6.5c-1.8-8.4-0.5-15.5,2.9-21.8
			c2.6-4.8,6.2-9.3,10-13.2c27.2-28,54.5-55.9,81.9-83.7c9.6-9.8,14.3-21.4,14.3-35.1c0-1.5,0-3,0-4.5c0.1-16.7,0.1-16.7,12.5-27.6
			c0.3-0.3,0.8-0.3,2.7-1c-0.6,15.7-0.4,30.6-1.8,45.3c-1.3,13.3-8.4,24.1-17.5,33.4C477.6,456,444.5,489.9,411.4,523.8z
			 M550.4,585.9c-3.7,4.2-6.7,9.1-10.4,14.2c-1.8-13.4,0.8-25.5,7.3-37.2c0.9,0.4,1.4,0.5,1.7,0.8
			C560.8,574.2,560.7,574.1,550.4,585.9z"/>
		<path class="st6" d="M418.1,440.5c-10.6-32.8-10-63.6,4.9-93.5c15-30.2,38.5-50.2,70.4-59.7c3.1,8.5,1.7,12.1-5.7,15.3
			c-43,18.3-67.9,60.4-63.6,107.9c0.4,4.9,1.6,9.8,3,14.5c1,3.6,0.6,6.3-2.4,8.7C422.6,435.4,421,437.5,418.1,440.5z"/>
		<path class="st6" d="M574.7,373.8c11.3,0,22.5,0,35.3,0c-5.1,4.8-9,9-13.4,12.3c-4,3-8.4,1.9-12.1-1.2c-3.7-3.1-7-6.6-10.5-10
			C574.3,374.6,574.5,374.2,574.7,373.8z"/>
	</g>
	<g id="BO8okW_00000137098952181217872330000010589706118513129128_">
		<g>
			<path class="st7" d="M559.3,706.9c2.7-1.7,5.8-3.1,8.2-5.2c15.8-14,34.4-19.1,54.9-19c43.3,0.1,86.6,0,129.9,0
				c12.2,0,19,11.2,12.6,22c-1.6,2.7-7.6,3.9-11.6,3.9c-44,0.3-88.1,0-132.1,0.3c-7,0-14.4,0.6-20.9,2.9
				c-18.7,6.9-30,21.4-33.1,41.2c-2,12.6-10.3,8-16.9,8.9c-7.8,1-9.3-4.1-9.6-10.6c-3.4-69.7-61.1-130.6-138.3-129.5
				c-31,0.4-62-0.4-92.9,0.3c-10.1,0.2-10.7-4.8-10.8-12.6c-0.1-8.1,1.4-12.8,11-12.7c36.2,0.5,72.4-0.7,108.6,0.5
				c31.4,1,59.7,12.6,84.5,32.5c6.3,5,10.3,5.8,17.2,0.4c27.8-21.6,59.1-33.6,94.4-33.2c32.8,0.3,65.7,0.4,98.5-0.1
				c9.9-0.2,11.9,4.2,11.9,13c0,8.6-2.5,12.4-11.6,12.3c-32.5-0.4-64.9-0.6-97.4-0.1c-27.5,0.4-52.9,8.2-75.5,24.9
				c-11.5,8.5-11.6,9.9-0.3,21.2c30.9-26.2,67.7-30.3,106.1-29.1c28.3,0.9,56.7,0.4,85.1,0.1c9.1-0.1,14.5,1.2,14.5,12.9
				c0,11.2-4.3,13.3-14,13.2c-38.4-0.4-76.9-0.2-115.3,0.1c-20.3,0.2-38.6,6.8-55.2,19.2C552.4,691.2,551.5,697.8,559.3,706.9z"/>
			<path class="st7" d="M500.4,760.7c-3.5-40-20.5-70.8-56.9-86.9c-11.6-5.1-25.1-7.7-37.9-8c-38-1-76-0.5-114-0.2
				c-9,0.1-13.6-1.6-13.5-12.5c0.1-10.3,2.8-14.2,13.3-14.1c38,0.5,76-0.2,114,0.3c59.3,0.8,105.1,40.3,117.1,99.9
				C526.9,761.3,523.8,764.5,500.4,760.7z"/>
			<path class="st7" d="M338.8,684.6c27.9,0,56-2.3,83.6,0.6c30.8,3.2,58.3,36.6,59,66.1c0.1,4.8,1.3,11.3-6.3,10.4
				c-6.3-0.8-15,5.4-18-7.1c-7.7-32.5-24.9-45.8-57.2-45.9c-42.8,0-85.7-0.2-128.5,0.2c-9.7,0.1-13.8-2.3-13.8-13.3
				c0-11.4,4.8-13.3,14.2-13.2c22.3,0.4,44.7,0.1,67.1,0.1C338.8,683.2,338.8,683.9,338.8,684.6z"/>
		</g>
	</g>
</g>
</svg>
