<?xml version="1.0" encoding="UTF-8" standalone="no"?>
<svg width="220px" height="53px" viewBox="0 0 220 53" version="1.1" xmlns="http://www.w3.org/2000/svg" xmlns:xlink="http://www.w3.org/1999/xlink">
    <!-- Generator: Sketch 49 (51002) - http://www.bohemiancoding.com/sketch -->
    <title>Page 1</title>
    <desc>Created with Sketch.</desc>
    <defs>
        <polygon id="path-1" points="0 53 219.686 53 219.686 0.374 0 0.374"></polygon>
    </defs>
    <g id="Symbols" stroke="none" stroke-width="1" fill="none" fill-rule="evenodd">
        <g id="Logo-/-Color" transform="translate(-3.000000, -4.000000)">
            <g id="Page-1" transform="translate(3.000000, 3.000000)">
                <polygon id="Fill-1" fill="#4B878D" points="43.3944 45.3795 43.3944 53.5795 44.3304 53.5795 44.3304 50.0415 48.1624 50.0415 48.1624 49.1855 44.3304 49.1855 44.3304 46.2465 48.6064 46.2465 48.6064 45.3795"></polygon>
                <g id="Group-39" transform="translate(0.000000, 0.626200)">
                    <path d="M55.2121,46.7912 L55.2121,52.9532 L54.2981,52.9532 L54.2981,51.5592 C53.8881,52.5202 53.0681,52.9772 51.9551,52.9882 C50.5141,52.9882 49.6471,52.0742 49.6471,50.5872 L49.6471,46.7912 L50.5611,46.7912 L50.5611,50.3532 C50.5611,51.4542 51.2061,52.1092 52.2721,52.1092 C53.5491,52.0862 54.2981,51.1482 54.2981,49.8132 L54.2981,46.7912 L55.2121,46.7912 Z" id="Fill-2" fill="#4B878D"></path>
                    <path d="M63.0817,49.1574 L63.0817,52.9534 L62.1677,52.9534 L62.1677,49.3914 C62.1677,48.2914 61.5127,47.6354 60.4227,47.6354 C59.2037,47.6454 58.4547,48.4554 58.3497,49.6494 L58.3497,52.9534 L57.4347,52.9534 L57.4347,46.7914 L58.3497,46.7914 L58.3497,48.1494 C58.7827,47.2134 59.6137,46.7674 60.7387,46.7564 C62.2157,46.7564 63.0817,47.6584 63.0817,49.1574" id="Fill-4" fill="#4B878D"></path>
                    <path d="M69.8737,49.884 C69.8737,48.526 68.9477,47.541 67.6477,47.541 C66.3357,47.541 65.4107,48.526 65.4107,49.884 C65.4107,51.242 66.3357,52.215 67.6477,52.215 C68.9477,52.215 69.8737,51.242 69.8737,49.884 Z M70.7877,44.261 L70.7877,52.953 L69.8737,52.953 L69.8737,51.63 C69.4167,52.496 68.5737,53 67.4727,53 C65.7147,53 64.4967,51.699 64.4967,49.861 C64.4967,48.022 65.7147,46.744 67.4607,46.744 C68.5617,46.744 69.4167,47.248 69.8737,48.127 L69.8737,44.261 L70.7877,44.261 Z" id="Fill-6" fill="#4B878D"></path>
                    <path d="M76.8883,50.8332 L76.8883,50.0832 L74.9673,50.0832 C73.9363,50.0832 73.3973,50.3992 73.3973,51.0912 C73.3973,51.7702 73.9483,52.2272 74.8153,52.2272 C75.8573,52.2272 76.6533,51.7122 76.8883,50.8332 Z M76.8993,52.9532 L76.8993,51.9922 C76.4083,52.6602 75.6233,52.9882 74.6393,52.9882 C73.3623,52.9882 72.5423,52.1802 72.5423,51.1262 C72.5423,50.0482 73.3973,49.3682 74.8493,49.3562 L76.8763,49.3562 L76.8763,48.9712 C76.8763,48.0672 76.3143,47.5182 75.2243,47.5182 C74.5453,47.5182 73.9133,47.7752 73.2683,48.2312 L72.8823,47.5882 C73.6783,47.0612 74.3463,46.7562 75.4003,46.7562 C76.9233,46.7562 77.7663,47.5642 77.7783,48.8772 L77.7903,52.9532 L76.8993,52.9532 Z" id="Fill-8" fill="#4B878D"></path>
                    <path d="M82.299,47.5764 C81.022,47.5764 80.108,48.5134 80.108,49.8724 C80.108,51.2424 81.022,52.1804 82.299,52.1804 C83.107,52.1804 83.775,51.8984 84.208,51.3844 L84.735,51.9224 C84.185,52.5904 83.329,52.9884 82.263,52.9884 C80.471,52.9884 79.205,51.7124 79.205,49.8724 C79.205,48.0454 80.483,46.7564 82.263,46.7564 C83.259,46.7564 84.079,47.0964 84.642,47.6704 L84.137,48.3034 C83.669,47.8464 83.048,47.5764 82.299,47.5764" id="Fill-10" fill="#4B878D"></path>
                    <mask id="mask-2" fill="white">
                        <use xlink:href="#path-1"></use>
                    </mask>
                    <g id="Clip-13"></g>
                    <path d="M86.396,52.953 L87.298,52.953 L87.298,46.791 L86.396,46.791 L86.396,52.953 Z M87.439,45.023 C87.439,45.374 87.181,45.643 86.842,45.643 C86.502,45.643 86.244,45.374 86.244,45.023 C86.244,44.659 86.502,44.402 86.842,44.402 C87.181,44.402 87.439,44.659 87.439,45.023 Z" id="Fill-12" fill="#4B878D" mask="url(#mask-2)"></path>
                    <path d="M93.7409,44.6008 L92.2879,45.7598 L91.4089,45.7598 L92.8149,44.1788 L93.7409,44.6008 Z M89.8159,49.8718 C89.8159,51.2538 90.7419,52.1918 92.0299,52.1918 C93.3189,52.1918 94.2439,51.2538 94.2439,49.8718 C94.2439,48.5128 93.3189,47.5648 92.0299,47.5648 C90.7419,47.5648 89.8159,48.5128 89.8159,49.8718 Z M95.1579,49.8608 C95.1579,51.7118 93.8579,52.9888 92.0299,52.9888 C90.2019,52.9888 88.9029,51.7118 88.9029,49.8608 C88.9029,48.0338 90.2019,46.7558 92.0299,46.7558 C93.8579,46.7558 95.1579,48.0338 95.1579,49.8608 Z" id="Fill-14" fill="#4B878D" mask="url(#mask-2)"></path>
                    <path d="M102.4074,49.1574 L102.4074,52.9534 L101.4944,52.9534 L101.4944,49.3914 C101.4944,48.2914 100.8374,47.6354 99.7484,47.6354 C98.5304,47.6454 97.7804,48.4554 97.6744,49.6494 L97.6744,52.9534 L96.7614,52.9534 L96.7614,46.7914 L97.6744,46.7914 L97.6744,48.1494 C98.1084,47.2134 98.9404,46.7674 100.0644,46.7564 C101.5404,46.7564 102.4074,47.6584 102.4074,49.1574" id="Fill-15" fill="#4B878D" mask="url(#mask-2)"></path>
                    <path d="M111.0495,52.133 C112.6075,52.133 113.5445,51.196 113.5445,49.579 L113.5445,44.753 L114.4815,44.753 L114.4815,49.579 C114.4815,51.724 113.1935,52.988 111.0495,52.988 C108.8935,52.988 107.5935,51.724 107.5935,49.579 L107.5935,44.753 L108.5305,44.753 L108.5305,49.579 C108.5305,51.196 109.4905,52.133 111.0495,52.133" id="Fill-16" fill="#4B878D" mask="url(#mask-2)"></path>
                    <path d="M122.2936,49.1574 L122.2936,52.9534 L121.3786,52.9534 L121.3786,49.3914 C121.3786,48.2914 120.7236,47.6354 119.6336,47.6354 C118.4156,47.6454 117.6656,48.4554 117.5606,49.6494 L117.5606,52.9534 L116.6466,52.9534 L116.6466,46.7914 L117.5606,46.7914 L117.5606,48.1494 C117.9936,47.2134 118.8246,46.7674 119.9496,46.7564 C121.4266,46.7564 122.2936,47.6584 122.2936,49.1574" id="Fill-17" fill="#4B878D" mask="url(#mask-2)"></path>
                    <path d="M124.328,52.953 L125.231,52.953 L125.231,46.791 L124.328,46.791 L124.328,52.953 Z M125.371,45.023 C125.371,45.374 125.113,45.643 124.774,45.643 C124.434,45.643 124.176,45.374 124.176,45.023 C124.176,44.659 124.434,44.402 124.774,44.402 C125.113,44.402 125.371,44.659 125.371,45.023 Z" id="Fill-18" fill="#4B878D" mask="url(#mask-2)"></path>
                    <polygon id="Fill-19" fill="#4B878D" mask="url(#mask-2)" points="127.362 46.7912 129.33 52.0272 131.287 46.7912 132.212 46.7912 129.787 52.9532 128.838 52.9532 126.389 46.7912"></polygon>
                    <path d="M137.5866,49.4855 C137.5276,48.2915 136.7326,47.5175 135.5246,47.5175 C134.3426,47.5175 133.4986,48.2915 133.3686,49.4855 L137.5866,49.4855 Z M138.4066,50.2125 L133.3686,50.2125 C133.5216,51.4295 134.3996,52.2265 135.6076,52.2265 C136.3676,52.2265 137.0356,51.9455 137.5166,51.4425 L138.0206,51.9695 C137.4346,52.6135 136.5676,52.9885 135.5366,52.9885 C133.7206,52.9885 132.4676,51.7125 132.4676,49.8725 C132.4676,48.0335 133.7326,46.7675 135.5246,46.7565 C137.5166,46.7565 138.5006,48.1275 138.4066,50.2125 Z" id="Fill-20" fill="#4B878D" mask="url(#mask-2)"></path>
                    <path d="M143.1022,46.7561 L143.1022,47.6461 C141.8022,47.6231 140.9942,48.4311 140.8882,49.6731 L140.8882,52.9531 L139.9742,52.9531 L139.9742,46.7911 L140.8882,46.7911 L140.8882,48.1611 C141.2982,47.2601 142.0602,46.7681 143.1022,46.7561" id="Fill-21" fill="#4B878D" mask="url(#mask-2)"></path>
                    <path d="M145.9127,47.5178 C145.2217,47.5178 144.6937,47.7638 144.6937,48.3498 C144.6937,49.7438 148.1387,49.0288 148.1387,51.2428 C148.1387,52.4498 147.0607,52.9888 145.8777,52.9888 C144.9997,52.9888 144.0967,52.6838 143.5117,52.1218 L143.8627,51.4548 C144.3907,51.9458 145.1857,52.2388 145.9127,52.2388 C146.6397,52.2388 147.2247,51.9568 147.2367,51.3358 C147.2707,49.8368 143.8157,50.5988 143.8277,48.4188 C143.8277,47.2478 144.8467,46.7448 145.9717,46.7448 C146.7097,46.7448 147.4247,46.9668 147.9387,47.3068 L147.5887,48.0098 C147.1067,47.7048 146.4867,47.5178 145.9127,47.5178" id="Fill-22" fill="#4B878D" mask="url(#mask-2)"></path>
                    <path d="M149.637,52.953 L150.539,52.953 L150.539,46.791 L149.637,46.791 L149.637,52.953 Z M150.678,45.023 C150.678,45.374 150.421,45.643 150.081,45.643 C149.741,45.643 149.483,45.374 149.483,45.023 C149.483,44.659 149.741,44.402 150.081,44.402 C150.421,44.402 150.678,44.659 150.678,45.023 Z" id="Fill-23" fill="#4B878D" mask="url(#mask-2)"></path>
                    <path d="M155.9489,52.5314 C155.5159,52.8244 155.0479,52.9884 154.5549,52.9884 C153.6529,53.0004 152.9859,52.4614 152.9859,51.2424 L152.9859,47.6934 L152.0949,47.6934 L152.0949,46.9784 L152.9859,46.9784 L152.9859,45.3624 L153.8869,45.3624 L153.8869,46.9784 L155.8449,46.9784 L155.8449,47.6934 L153.8869,47.6934 L153.8869,51.0914 C153.8869,51.8404 154.1799,52.1444 154.7079,52.1444 C155.0239,52.1334 155.3519,52.0274 155.6909,51.8284 L155.9489,52.5314 Z" id="Fill-24" fill="#4B878D" mask="url(#mask-2)"></path>
                    <path d="M161.15,50.8332 L161.15,50.0832 L159.228,50.0832 C158.197,50.0832 157.659,50.3992 157.659,51.0912 C157.659,51.7702 158.209,52.2272 159.076,52.2272 C160.119,52.2272 160.916,51.7122 161.15,50.8332 Z M161.162,52.9532 L161.162,51.9922 C160.67,52.6602 159.884,52.9882 158.9,52.9882 C157.624,52.9882 156.803,52.1802 156.803,51.1262 C156.803,50.0482 157.659,49.3682 159.111,49.3562 L161.137,49.3562 L161.137,48.9712 C161.137,48.0672 160.576,47.5182 159.486,47.5182 C158.806,47.5182 158.174,47.7752 157.53,48.2312 L157.143,47.5882 C157.939,47.0612 158.607,46.7562 159.662,46.7562 C161.184,46.7562 162.028,47.5642 162.04,48.8772 L162.051,52.9532 L161.162,52.9532 Z" id="Fill-25" fill="#4B878D" mask="url(#mask-2)"></path>
                    <path d="M167.2155,46.7561 L167.2155,47.6461 C165.9155,47.6231 165.1065,48.4311 165.0015,49.6731 L165.0015,52.9531 L164.0875,52.9531 L164.0875,46.7911 L165.0015,46.7911 L165.0015,48.1611 C165.4115,47.2601 166.1725,46.7681 167.2155,46.7561" id="Fill-26" fill="#4B878D" mask="url(#mask-2)"></path>
                    <path d="M168.445,52.953 L169.346,52.953 L169.346,46.791 L168.445,46.791 L168.445,52.953 Z M169.487,45.023 C169.487,45.374 169.229,45.643 168.889,45.643 C168.549,45.643 168.292,45.374 168.292,45.023 C168.292,44.659 168.549,44.402 168.889,44.402 C169.229,44.402 169.487,44.659 169.487,45.023 Z" id="Fill-27" fill="#4B878D" mask="url(#mask-2)"></path>
                    <path d="M175.3903,50.8332 L175.3903,50.0832 L173.4693,50.0832 C172.4383,50.0832 171.8993,50.3992 171.8993,51.0912 C171.8993,51.7702 172.4503,52.2272 173.3173,52.2272 C174.3593,52.2272 175.1563,51.7122 175.3903,50.8332 Z M175.4023,52.9532 L175.4023,51.9922 C174.9113,52.6602 174.1253,52.9882 173.1413,52.9882 C171.8643,52.9882 171.0443,52.1802 171.0443,51.1262 C171.0443,50.0482 171.8993,49.3682 173.3523,49.3562 L175.3783,49.3562 L175.3783,48.9712 C175.3783,48.0672 174.8163,47.5182 173.7273,47.5182 C173.0473,47.5182 172.4143,47.7752 171.7703,48.2312 L171.3843,47.5882 C172.1803,47.0612 172.8483,46.7562 173.9033,46.7562 C175.4253,46.7562 176.2693,47.5642 176.2813,48.8772 L176.2923,52.9532 L175.4023,52.9532 Z" id="Fill-28" fill="#4B878D" mask="url(#mask-2)"></path>
                    <path d="M124.1481,24.9841 L119.6201,14.0711 L115.0161,24.9841 L124.1481,24.9841 Z M125.9301,29.2531 L113.2341,29.2531 L110.9331,34.7461 L105.7731,34.7461 L117.1691,8.7631 L122.3291,8.7631 L133.5761,34.7461 L128.2311,34.7461 L125.9301,29.2531 Z" id="Fill-29" fill="#4B878D" mask="url(#mask-2)"></path>
                    <path d="M141.7028,22.7194 L147.5678,22.7194 C151.2798,22.7194 153.3578,21.1234 153.3578,17.8574 C153.3578,14.6644 151.2798,13.1054 147.5678,13.1054 L141.7028,13.1054 L141.7028,22.7194 Z M152.9868,34.7464 L148.4958,27.0634 C148.1988,27.0994 147.9018,27.0994 147.5678,27.0994 L141.7028,27.0994 L141.7028,34.7464 L136.7288,34.7464 L136.7288,8.7634 L147.5678,8.7634 C154.2868,8.7634 158.1098,11.9924 158.1098,17.7084 C158.1098,21.7914 156.2908,24.7234 152.9508,26.1344 L158.6668,34.7464 L152.9868,34.7464 Z" id="Fill-30" fill="#4B878D" mask="url(#mask-2)"></path>
                    <polygon id="Fill-31" fill="#4B878D" mask="url(#mask-2)" points="181.8639 8.7634 181.8639 13.1804 173.7719 13.1804 173.7719 34.7464 168.7599 34.7464 168.7599 13.1804 160.6689 13.1804 160.6689 8.7634"></polygon>
                    <path d="M185.389,34.746 L190.363,34.746 L190.363,8.763 L185.389,8.763 L185.389,34.746 Z M193.852,2.304 L189.25,6.128 L185.167,6.128 L189.101,0.374 L193.852,2.304 Z" id="Fill-32" fill="#4B878D" mask="url(#mask-2)"></path>
                    <polygon id="Fill-33" fill="#4B878D" mask="url(#mask-2)" points="201.4606 8.7634 214.8606 26.5434 214.8606 8.7634 219.6866 8.7634 219.6866 34.7464 214.9726 34.7464 201.6086 17.0034 201.6086 34.7464 196.7466 34.7464 196.7466 8.7634"></polygon>
                    <path d="M10.8756,13.0686 C8.5376,13.0686 7.0156,13.9226 7.0156,15.5186 C7.0156,20.7896 20.9726,17.9316 20.9356,27.2486 C20.9356,32.1106 16.7036,34.9316 10.9876,34.9316 C6.8296,34.9316 2.7836,33.2606 0.0006,30.7746 L2.0786,26.5806 C4.7506,28.9566 8.2776,30.4036 11.0616,30.4036 C13.8456,30.4036 15.5156,29.3646 15.5156,27.5456 C15.5156,22.1256 1.5586,25.2066 1.5586,15.9646 C1.5586,11.4356 5.4566,8.5406 11.2846,8.5406 C14.7366,8.5406 18.1876,9.6536 20.6756,11.2876 L18.6706,15.5926 C15.8866,13.9226 12.8806,13.0686 10.8756,13.0686" id="Fill-34" fill="#4B878D" mask="url(#mask-2)"></path>
                    <path d="M40.6066,24.9841 L36.0786,14.0711 L31.4756,24.9841 L40.6066,24.9841 Z M42.3886,29.2531 L29.6936,29.2531 L27.3926,34.7461 L22.2326,34.7461 L33.6286,8.7631 L38.7886,8.7631 L50.0346,34.7461 L44.6896,34.7461 L42.3886,29.2531 Z" id="Fill-35" fill="#4B878D" mask="url(#mask-2)"></path>
                    <polygon id="Fill-36" fill="#FFCE01" mask="url(#mask-2)" points="72.6085 8.7634 72.6085 24.6634 77.4735 31.1044 77.4735 17.0094 83.2835 24.7254 86.3365 20.6854 77.3285 8.7634"></polygon>
                    <polygon id="Fill-37" fill="#FFCE01" mask="url(#mask-2)" points="59.1666 8.7634 77.3986 32.8944 77.3986 34.7614 72.6796 34.7614 59.3116 17.0094 59.3116 34.7614 54.4466 34.7614 54.4466 8.7634"></polygon>
                    <polygon id="Fill-38" fill="#FFCE01" mask="url(#mask-2)" points="101.4909 8.7634 101.4909 34.7614 96.6259 34.7614 96.6259 17.0094 83.2589 34.7614 78.5389 34.7614 78.5389 32.8944 96.7709 8.7634"></polygon>
                </g>
            </g>
        </g>
    </g>
</svg>