<?xml version="1.0" encoding="utf-8"?>
<!-- Generator: Adobe Illustrator 27.9.1, SVG Export Plug-In . SVG Version: 6.00 Build 0)  -->
<svg version="1.1" id="Capa_1" xmlns="http://www.w3.org/2000/svg" xmlns:xlink="http://www.w3.org/1999/xlink" x="0px" y="0px"
	 viewBox="0 0 1146.6 1080" style="enable-background:new 0 0 1146.6 1080;" xml:space="preserve">
<g>
	<path d="M756.1,43.7c5.9,1.4,11.9,2.7,17.7,4.3c47.5,13.3,82.2,55.6,85.1,104.9c1.2,21.5,0.6,43.2,0.6,64.8
		c0.1,74.8,0,149.6,0,224.5c0,18.5-10.2,30.6-26.1,30.8c-16,0.3-26.9-12.3-26.9-31.1c0-91.3,0-182.5,0-273.8
		c0-44.8-25.5-70.4-69.9-70.4c-179.3,0-358.6,0-537.9,0c-32.7,0-57.8,19.5-64.6,50.2c-1.4,6.2-1.4,12.8-1.4,19.2
		c-0.1,248,0.3,496-0.5,744c-0.1,37.3,25,70.9,70.7,70.5c93.5-0.8,187-0.3,280.6-0.2c4.2,0,8.4-0.1,12.6,0.4
		c13.7,1.5,23.7,12.5,23.8,25.9c0.1,13.3-10,24.8-23.5,26.5c-3.5,0.4-7.1,0.3-10.6,0.3c-93.8,0-187.7-1.3-281.5,0.4
		c-69.3,1.3-125.8-52.1-125.5-125.2c1-247,0.9-494.1,0-741.1C78.6,99.9,126.2,52.5,179,45.1c0.9-0.1,1.6-0.9,2.4-1.4
		C373,43.7,564.6,43.7,756.1,43.7z"/>
	<path d="M1069.6,589.3c-5.8,27.4-11.6,54.7-17.3,82.1c-3.2,15.1-6.1,30.3-9.3,45.4c-4.2,20.1-14.5,27-34.7,23.1
		c-26.5-5.2-53-10.7-79.5-16.1c-17-3.5-34.2-6.5-51-10.7c-12.6-3.1-19.4-15.8-16.4-27.8c3.1-12.2,14.5-19.8,27.1-17.7
		c6.7,1.1,13.3,2.5,19.9,3.9c20.5,4,41,8.1,63.3,12.5c-2.2-3.7-3.4-6.1-4.9-8.2c-45.2-63.1-126.9-92.2-203.1-72.5
		c-75.1,19.4-132.1,84.2-141.1,160.8c-1.2,10.5-1.3,21.2-1.7,31.8c-0.5,14.8-10,24.4-24.3,24.4c-13.8,0-23.3-9.3-24.1-23.6
		c-6.9-122.6,84.3-233.3,205.4-248c92.5-11.2,167.4,21.1,224.9,94.3c1,1.3,1.9,2.6,3,3.8c0.4,0.5,1,0.7,2.6,1.8
		c3.1-15.2,6.1-29.8,9-44.5c1.5-7.6,2.8-15.2,4.3-22.8c2.6-12.5,9.4-19.7,20.4-21.6c10.6-1.8,19.1,2.9,25.8,14.3
		c0.4,0.7,1.3,1.3,1.9,1.9C1069.6,580.3,1069.6,584.8,1069.6,589.3z"/>
	<path d="M629.6,933.7c-1.6,12.7-3.3,25.3-4.9,38c-1.4,10.9-2.5,21.8-4,32.6c-1.9,13.9-13,22.9-26.2,21.5c-12.8-1.3-22-12-20.6-25.7
		c3.8-35.9,8.5-71.7,12.8-107.5c1.1-9,2-17.9,3.2-26.9c2.1-15.5,11.8-24.4,26.9-22.7c45.5,5.2,90.9,10.9,136.2,16.9
		c12.7,1.7,20.4,11.5,20.3,23.2c0,10.9-7.7,20.9-18.6,22.9c-4.6,0.9-9.6,0.3-14.4-0.2c-24.9-3-49.8-6.1-76.7-9.5
		c2.4,3.4,3.5,5.5,5.1,7.2c56.5,59,124.8,79.8,202.6,54.6c76.6-24.8,119.6-80.7,130.5-160.7c2.1-15.3,12.8-25.4,26.2-23.9
		c14,1.6,22.8,13.1,20.8,28.5c-13,99-65.9,168.5-160.1,200.4c-94.1,31.8-178.4,8.9-249.5-61c-2.7-2.6-4.6-6.1-6.9-9.2
		C631.4,932.7,630.5,933.2,629.6,933.7z"/>
	<path d="M466.4,275.2c73.5,0,147,0,220.5,0c18.5,0,30.6,11.7,29.5,28c-1,13.2-11,23.5-24.2,24.7c-2.6,0.2-5.2,0.1-7.7,0.1
		c-146,0-292.1,0-438.1,0c-18.1,0-30.1-10.8-30-26.8c0.1-15.7,12-26.1,29.6-26.1C319.4,275.2,392.9,275.2,466.4,275.2
		C466.4,275.2,466.4,275.2,466.4,275.2z"/>
	<path d="M368.7,534.8c-39.6,0-79.3,0.1-118.9,0c-17.6,0-29.2-9.8-30-24.8c-0.8-13.9,7.7-25.1,21.4-27.9c2.8-0.6,5.8-0.8,8.6-0.8
		c79.6,0,159.2-0.1,238.8,0c17.7,0,29.5,10.7,29.7,26.2c0.2,16.1-11.6,27.1-29.7,27.2C448.7,534.9,408.7,534.8,368.7,534.8z"/>
</g>
</svg>
