<?xml version="1.0" encoding="utf-8"?>
<!-- Generator: Adobe Illustrator 24.3.0, SVG Export Plug-In . SVG Version: 6.00 Build 0)  -->
<svg version="1.1" id="Capa_1" xmlns="http://www.w3.org/2000/svg" xmlns:xlink="http://www.w3.org/1999/xlink" x="0px" y="0px"
	 viewBox="0 0 55.8 56.3" style="enable-background:new 0 0 55.8 56.3;" xml:space="preserve">
<g>
	<path d="M37.9,1.3c0.3,0.1,0.6,0.1,0.9,0.2c2.5,0.7,4.4,3,4.5,5.6c0.1,1.1,0,2.3,0,3.5c0,4,0,8,0,12c0,1-0.5,1.6-1.4,1.6
		c-0.9,0-1.4-0.7-1.4-1.7c0-4.9,0-9.7,0-14.6c0-2.4-1.4-3.8-3.7-3.8c-9.6,0-19.1,0-28.7,0c-1.7,0-3.1,1-3.4,2.7
		c-0.1,0.3-0.1,0.7-0.1,1c0,13.2,0,26.5,0,39.7c0,2,1.3,3.8,3.8,3.8c5,0,10,0,15,0c0.2,0,0.4,0,0.7,0c0.7,0.1,1.3,0.7,1.3,1.4
		c0,0.7-0.5,1.3-1.3,1.4c-0.2,0-0.4,0-0.6,0c-5,0-10-0.1-15,0c-3.7,0.1-6.7-2.8-6.7-6.7c0.1-13.2,0-26.4,0-39.5
		c0-3.7,2.5-6.2,5.3-6.6c0,0,0.1,0,0.1-0.1C17.5,1.3,27.7,1.3,37.9,1.3z"/>
	<path d="M54.7,30.5c-0.3,1.5-0.6,2.9-0.9,4.4c-0.2,0.8-0.3,1.6-0.5,2.4c-0.2,1.1-0.8,1.4-1.9,1.2c-1.4-0.3-2.8-0.6-4.2-0.9
		c-0.9-0.2-1.8-0.3-2.7-0.6c-0.7-0.2-1-0.8-0.9-1.5c0.2-0.7,0.8-1.1,1.4-0.9c0.4,0.1,0.7,0.1,1.1,0.2c1.1,0.2,2.2,0.4,3.4,0.7
		c-0.1-0.2-0.2-0.3-0.3-0.4c-2.4-3.4-6.8-4.9-10.8-3.9c-4,1-7,4.5-7.5,8.6c-0.1,0.6-0.1,1.1-0.1,1.7c0,0.8-0.5,1.3-1.3,1.3
		c-0.7,0-1.2-0.5-1.3-1.3c-0.4-6.5,4.5-12.5,11-13.2c4.9-0.6,8.9,1.1,12,5c0.1,0.1,0.1,0.1,0.2,0.2c0,0,0.1,0,0.1,0.1
		c0.2-0.8,0.3-1.6,0.5-2.4c0.1-0.4,0.1-0.8,0.2-1.2c0.1-0.7,0.5-1.1,1.1-1.2c0.6-0.1,1,0.2,1.4,0.8c0,0,0.1,0.1,0.1,0.1
		C54.7,30,54.7,30.2,54.7,30.5z"/>
	<path d="M31.2,48.8c-0.1,0.7-0.2,1.4-0.3,2c-0.1,0.6-0.1,1.2-0.2,1.7c-0.1,0.7-0.7,1.2-1.4,1.1c-0.7-0.1-1.2-0.6-1.1-1.4
		c0.2-1.9,0.5-3.8,0.7-5.7c0.1-0.5,0.1-1,0.2-1.4c0.1-0.8,0.6-1.3,1.4-1.2c2.4,0.3,4.9,0.6,7.3,0.9c0.7,0.1,1.1,0.6,1.1,1.2
		c0,0.6-0.4,1.1-1,1.2c-0.2,0-0.5,0-0.8,0c-1.3-0.2-2.7-0.3-4.1-0.5c0.1,0.2,0.2,0.3,0.3,0.4c3,3.1,6.7,4.3,10.8,2.9
		c4.1-1.3,6.4-4.3,7-8.6c0.1-0.8,0.7-1.4,1.4-1.3c0.7,0.1,1.2,0.7,1.1,1.5c-0.7,5.3-3.5,9-8.5,10.7c-5,1.7-9.5,0.5-13.3-3.3
		c-0.1-0.1-0.2-0.3-0.4-0.5C31.3,48.8,31.2,48.8,31.2,48.8z"/>
	<path d="M22.5,13.7c3.9,0,7.8,0,11.8,0c1,0,1.6,0.6,1.6,1.5c-0.1,0.7-0.6,1.3-1.3,1.3c-0.1,0-0.3,0-0.4,0c-7.8,0-15.6,0-23.4,0
		c-1,0-1.6-0.6-1.6-1.4c0-0.8,0.6-1.4,1.6-1.4C14.6,13.7,18.6,13.7,22.5,13.7L22.5,13.7z"/>
	<path d="M17.3,27.6c-2.1,0-4.2,0-6.3,0c-0.9,0-1.6-0.5-1.6-1.3c0-0.7,0.4-1.3,1.1-1.5c0.1,0,0.3,0,0.5,0c4.2,0,8.5,0,12.7,0
		c0.9,0,1.6,0.6,1.6,1.4c0,0.9-0.6,1.4-1.6,1.5C21.5,27.6,19.4,27.6,17.3,27.6z"/>
</g>
</svg>
