<?xml version="1.0" encoding="utf-8"?>
<!-- Generator: Adobe Illustrator 27.9.1, SVG Export Plug-In . SVG Version: 6.00 Build 0)  -->
<svg version="1.1" id="Capa_1" xmlns="http://www.w3.org/2000/svg" xmlns:xlink="http://www.w3.org/1999/xlink" x="0px" y="0px"
	 viewBox="0 0 1000 1000" style="enable-background:new 0 0 1000 1000;" xml:space="preserve">
<g>
	<path d="M513.7,87.1c11.8,3.2,24.1,5.3,35.4,9.7c56.9,21.9,93.5,81.8,86.3,140.3c-8.1,65.6-55.3,114.2-118.6,122.4
		C443.1,369,373.5,316.9,364,245c-10.3-77.6,40.2-145.6,116.2-156.5c1.5-0.2,3-0.9,4.5-1.4C494.4,87.1,504,87.1,513.7,87.1z"/>
	<path d="M474.7,911c-20.8-7.8-41.1-15.3-61.3-22.9c-58.2-21.8-116.3-43.6-174.5-65.5c-17.1-6.4-21.4-12.5-21.4-30.5
		c0-14.7,0-29.4,0-44.7c6-0.4,11.6-0.3,17.1-1.1c33.6-5,58.9-28.3,62.2-62.1c2.7-27.6,2.9-55.9,0-83.5c-3.9-37.8-34.2-62.4-72.4-63
		c-1.9,0-3.7,0-6.9,0c0-8.1,0-16.1,0-24c0-9.1-0.1-18.2,0-27.4c0.2-20.4,15.8-31.3,35-24.1c43.4,16.1,86.8,32.5,130.2,48.7
		c28.6,10.7,57.1,21.6,85.8,32.1c4.6,1.7,6.7,3.6,6.7,9c-0.2,117.5-0.1,235-0.2,352.5C475,906.6,474.8,908.4,474.7,911z"/>
	<path d="M780.7,747.1c0,18.5,0.7,36.2-0.2,53.8c-0.6,11.9-9.4,17.8-19.9,21.7c-40.4,15-80.8,30.2-121.1,45.3
		c-35.1,13.1-70.2,26.3-105.3,39.5c-3.2,1.2-6.5,2.3-10.4,3.7c-0.2-2.9-0.4-5.2-0.4-7.5c0-116.7,0-233.4-0.2-350.1
		c0-5.8,1.7-8.3,7.2-10.3c71.3-26.5,142.5-53.3,213.7-79.9c21.8-8.2,36.8,2.2,36.8,25.6c0,16.1,0,32.1,0,48.3
		c-8.4,1-16.4,1.1-24.1,2.9c-30.3,6.7-53.6,31.9-55.7,63.1c-1.7,26.2-1.8,52.7,0,78.8c2.5,36.8,33.7,64.5,70.5,65.3
		C774.3,747.1,776.9,747.1,780.7,747.1z"/>
	<path d="M311.6,432.5c25.5-22.8,53.2-39.8,83.9-51.7c2.2-0.8,5.7,0.2,8,1.5c63.7,36.1,127.3,36.1,191.1,0.2
		c2.6-1.5,6.8-2.3,9.5-1.2c29.7,11.6,56.5,28.1,80.5,49.2c0.6,0.5,0.9,1.3,1.8,2.6c-15,5.6-29.7,11.1-44.4,16.7
		c-45.1,16.9-90.1,34-135.3,50.6c-4.1,1.5-9.6,1.8-13.6,0.3c-58.2-21.5-116.3-43.4-174.4-65.2C316.5,434.7,314.6,433.8,311.6,432.5z
		"/>
	<path d="M249.7,642.9c0,10.2,0.1,20.4,0,30.6c-0.2,15.1-10.2,25.1-25.4,25.3c-13.7,0.2-27.3,0.6-40.1-6
		c-23.2-11.9-35.2-37-29.6-62.7c5.4-24.8,27.4-43.1,52.9-43.9c6.2-0.2,12.3-0.3,18.5,0c13.3,0.5,23.2,10.4,23.6,23.7
		C249.9,620.9,249.7,631.9,249.7,642.9z"/>
	<path d="M748.7,642c0-10.4-0.2-20.9,0-31.3c0.3-14.2,10.3-24.4,24.3-24.5c9.1-0.1,18.3-0.3,27.2,1.4c28.2,5.3,47.3,31.2,44.9,59.7
		c-2.4,28.3-25.9,50.6-54.4,51.5c-6.2,0.2-12.3,0.3-18.5,0c-13.2-0.6-22.9-10.5-23.5-23.8c0-0.5,0-1.1,0-1.6
		C748.7,662.9,748.7,652.5,748.7,642z"/>
</g>
</svg>
