<?xml version="1.0" encoding="utf-8"?>
<!-- Generator: Adobe Illustrator 27.9.1, SVG Export Plug-In . SVG Version: 6.00 Build 0)  -->
<svg version="1.1" id="Capa_1" xmlns="http://www.w3.org/2000/svg" xmlns:xlink="http://www.w3.org/1999/xlink" x="0px" y="0px"
	 viewBox="0 0 1000 1000" style="enable-background:new 0 0 1000 1000;" xml:space="preserve">
<g>
	<path d="M199.8,885.9c-4.7-1.1-9.4-2.1-14-3.3c-49.3-12.6-83.6-62-77.5-111.5c6.7-53.7,49.5-93.4,102.2-93.5
		c220.4-0.2,440.7-0.1,661.1-0.2c10.4,0,16.6,5.1,20.7,13.9c0,3.1,0,6.1,0,9.2c-4.6,10.4-12.5,13.9-23.8,13.9
		c-216.2-0.2-432.5-0.1-648.7-0.1c-3.3,0-6.6,0-10,0.1c-43.4,1.3-74.3,43.2-62.8,85.1c8.4,30.5,34.6,49.7,68.1,49.7
		c217.8,0,435.5,0.1,653.3-0.1c11.3,0,19.2,3.6,23.8,13.9c0,3.1,0,6.1,0,9.2c-4.6,4.6-9.2,9.2-13.8,13.8
		C652.3,885.9,426.1,885.9,199.8,885.9z"/>
	<path d="M161.3,248.4c35.2-14.1,68.5-27.5,101.9-40.8c76.4-30.6,152.9-61.1,229.2-91.8c5.3-2.1,9.8-2.4,15.3-0.2
		c107.1,43,214.3,85.9,321.5,128.8c2.8,1.1,5.5,2.4,10,4.4c-34.3,13.8-67,26.9-101,40.5c9.5,3.7,17.7,7.1,26.1,9.9
		c4.4,1.5,5.8,3.8,5.6,8.3c-0.3,11.2-0.1,22.4-0.1,33.6c-8.3,0-16,0-24.5,0c0-5.2-0.3-10.8,0.1-16.3c0.4-4.9-1.3-7.2-6-8.8
		c-11.2-3.9-22.3-8.4-34.8-13.1c11.3-4.6,21.4-8.7,33.2-13.5c-78.4-29.9-155.3-59.2-233.2-88.9c-2.9,7.6-5.7,14.8-8.8,22.9
		c69.3,26.4,137.9,52.6,208,79.3c-3.4,1.6-5.5,2.7-7.7,3.5c-62.9,25.2-125.8,50.5-188.9,75.4c-4,1.6-9.7,1.7-13.6,0.1
		c-108-42.9-215.8-86.1-323.7-129.3C167.6,251.3,165.4,250.2,161.3,248.4z"/>
	<path d="M696.2,332.5c0,38.4,0.1,75.6-0.2,112.9c0,3.5-2.9,7.5-5.5,10.3c-20.1,21.3-45.2,34.6-72.4,44.2
		c-46.7,16.5-95,20.3-144.1,17.6c-35.9-2-70.9-8.3-104.2-22.3c-22-9.2-42.4-21.2-59.3-38.4c-4.5-4.6-6.7-9.4-6.6-16.2
		c0.4-32.9,0.2-65.9,0.2-98.8c0-2.8,0-5.5,0-9.3c11.6,4.6,22.5,8.8,33.3,13.1c52.3,20.9,104.5,41.9,156.9,62.5c3.5,1.4,8.5,1.4,12,0
		c60.7-23.9,121.2-48.2,181.8-72.4C690.4,334.7,692.7,333.8,696.2,332.5z"/>
	<path d="M355.6,518.2c-0.6,0-3,0-5.4,0c-35,0-70,0-104.9,0c-29.6,0-51.6,21-51.6,49.1c0,28,22,49,51.7,49c174.4,0,348.8,0,523.1,0
		c3.1,0,6.2-0.2,9.2,0.2c9.4,1,16.4,8.8,16.5,18.1c0.1,9.2-6.9,17.1-16.2,18.3c-2,0.3-4.1,0.2-6.1,0.2c-175.7,0-351.3,0.1-527,0
		c-50.9,0-89.3-39.1-87.9-88.9c1.3-44.1,37.8-81.1,81.9-82.4c19.1-0.6,38.3-0.2,57.4-0.1c1.9,0,4.2,0.2,5.8,1.3
		C320.3,494.7,338.4,506.8,355.6,518.2z"/>
	<path d="M699.9,542.7c-2.8,16.7-5.4,32.4-8.1,49c-3,0-5.8,0-8.5,0c-145.2,0-290.5,0-435.7-0.1c-4,0-8.2-0.1-12.1-1.3
		c-11.4-3.4-18.5-14.3-17.2-25.8c1.3-11.8,11-21,23-21.8c2.3-0.2,4.6-0.1,6.9-0.1c147.3,0,294.6,0,441.8,0
		C693.1,542.7,696.1,542.7,699.9,542.7z"/>
	<path d="M794.2,566.9c-24.7,0-48.8,0-73.4,0c6.6-39.8,13.2-79.1,19.6-117.2c11.8,0,22.6,0,34.3,0
		C781,487.9,787.6,527.2,794.2,566.9z"/>
	<path d="M788.1,395.8c-0.1,16.8-13.9,30.6-30.7,30.5c-16.8-0.1-30.6-13.9-30.5-30.8c0.1-16.9,13.9-30.6,30.7-30.5
		C774.5,365.1,788.2,378.9,788.1,395.8z"/>
	<path d="M710,482.7c-1.9,11.5-3.9,23.1-5.9,35c-20.6,0-40.8,0-62.6,0c3.4-1.7,5.8-2.7,8-4.1c14.9-9.2,29.7-18.7,44.7-27.6
		c4.4-2.6,9.5-4,14.3-6C709,480.9,709.5,481.8,710,482.7z"/>
	<path d="M873.6,738.9c0,28.7,0,56.7,0,85.5c-2.4,0.1-4.9,0.3-7.3,0.3c-217.2,0-434.4,0-651.7,0c-34.4,0-56-33.1-40.6-62.5
		c7.6-14.5,20-22.1,36.3-23.2c2.3-0.2,4.6-0.1,6.9-0.1c215.7,0,431.4,0,647.1,0C867.3,738.9,870.2,738.9,873.6,738.9z"/>
</g>
</svg>
