<?xml version="1.0" encoding="utf-8"?>
<!-- Generator: Adobe Illustrator 27.9.1, SVG Export Plug-In . SVG Version: 6.00 Build 0)  -->
<svg version="1.1" id="Capa_1" xmlns="http://www.w3.org/2000/svg" xmlns:xlink="http://www.w3.org/1999/xlink" x="0px" y="0px"
	 viewBox="0 0 1000 1000" style="enable-background:new 0 0 1000 1000;" xml:space="preserve">
<g>
	<path d="M930.9,182.8c0,139.8,0,279.6,0,419.4c-0.4,0.7-1.1,1.3-1.3,2c-10.6,48.1-44.3,75.4-93.2,75.4c-176.8,0-353.7,0-530.5,0
		c-54.6,0-93.6-38.6-93.7-93.1c-0.2-129.4-0.2-258.8,0.2-388.2c0-11,1.7-22.6,5.2-33c12.5-37.8,46.3-60.4,88.8-60.4
		c173.2-0.1,346.4,0,519.6,0c6.2,0,12.4,0,18.5,0.2c37.5,1.3,69.5,25.2,81.7,60.9C927.9,171.5,929.3,177.2,930.9,182.8z
		 M515.4,478.3c2.7-3.1,4.7-5.4,6.7-7.8c41.5-49.8,83-99.6,124.5-149.4c29.1-34.8,72.4-34.9,102.1-0.3
		c34,39.6,67.9,79.3,101.9,118.9c2.2,2.6,4.5,5,7.8,8.7c0.2-3.5,0.4-4.9,0.4-6.3c0-81.7,0.1-163.3,0-245c0-14.5-6.8-20.7-22.4-20.7
		c-176.5,0-353,0-529.5,0c-16.4,0-22.7,6.5-22.7,23.1c0,108.3,0,216.6,0,325c0,2.4,0,4.7,0,8.7c3.4-3.1,5.4-4.9,7.3-6.8
		c29.6-29.6,59.1-59.1,88.7-88.7c29.1-29,66.2-29.1,95.3-0.1C488.8,450.9,501.8,464.5,515.4,478.3z"/>
	<path d="M814.9,733.5c-12.2,38.3-22.7,75.8-36.1,112.3c-13.7,37.4-55.3,57-95.3,46.4C577,864,470.7,835.4,364.4,807
		c-76.9-20.6-153.7-41.2-230.6-61.7c-50.6-13.5-75.3-57.4-60.3-107.6c27-90.2,54-180.4,81-270.5c0.7-2.3,1.4-4.6,3.8-6.7
		c0,2.9,0,5.8,0,8.7c0,75.5-0.6,151,0.2,226.5c0.6,53.9,24.3,95.3,71.8,122c20.5,11.5,42.9,16,66.3,15.9c93.5-0.1,186.9,0,280.4,0
		c75.8,0,151.6,0,227.3,0C807.4,733.5,810.5,733.5,814.9,733.5z"/>
	<path d="M391.6,212.7c39.6-0.2,71.7,31.4,72.3,71.1c0.5,39.4-32.3,72.4-72,72.4c-39.3,0-71.7-32.4-71.9-71.7
		C319.9,245.2,352.1,212.9,391.6,212.7z"/>
</g>
</svg>
