<?xml version="1.0" encoding="utf-8"?>
<!-- Generator: Adobe Illustrator 27.9.1, SVG Export Plug-In . SVG Version: 6.00 Build 0)  -->
<svg version="1.1" id="Capa_1" xmlns="http://www.w3.org/2000/svg" xmlns:xlink="http://www.w3.org/1999/xlink" x="0px" y="0px"
	 viewBox="0 0 1000 1000" style="enable-background:new 0 0 1000 1000;" xml:space="preserve">
<g>
	<path d="M454.2,269.5c36.2,0,70.9,0,106.6,0c0,23.2,0,46,0,68.7c0,18,4.3,22.1,22.6,22.2c11.7,0,23.5,0.1,35.2,0
		c11.8-0.1,16.8-4.4,18.5-15.9c3.9-26.7,7.6-53.3,11.5-80c0.5-3.4,1.3-6.7,2.2-11.5c7.7,1.1,15.4,1.2,22.5,3.4
		c60.6,18.4,121,37.3,181.5,55.9c17.9,5.5,25.7-0.3,25.7-19.2c0-7.6,0-15.2,0-23.7c11.5,0,22.6-1.3,33.3,0.6
		c4.7,0.8,8.5,7.9,12.1,12.7c1.2,1.7,0.3,4.9,0.3,7.5c0,142.1,0,284.2,0,426.3c0,2.8,0,5.6,0,8.9c-284.4,0-568.1,0-852.6,0
		c0-3.8,0-7.2,0-10.6c0-141.1,0-282.3,0-423.4c0-18,4.2-22.2,22.5-22.2c7.3,0,14.5,0,23.2,0c0,3.5,0,6.5,0,9.5
		c0,21.6-0.1,43.1,0.1,64.7c0.1,11.2,5.8,17.1,17.1,17.1c100.2,0.1,200.4,0.1,300.7,0c11.5,0,17.1-6,17.1-18
		C454.3,318.2,454.2,294.2,454.2,269.5z M317.2,421.2c-64.1,0-128.1,0-192.2,0c-16.3,0-21,4.7-21,20.8c0,77.4,0,154.8,0,232.2
		c0,16.3,4.7,21,20.8,21c128.1,0,256.3,0,384.4,0c16.2,0,21-4.7,21-20.9c0-77.4,0-154.8,0-232.2c0-16.3-4.7-21-20.9-21
		C445.4,421.2,381.3,421.2,317.2,421.2z M865.3,451.1c0-14.5,0.1-28.4,0-42.3c-0.1-12.4-5.7-17.9-18.1-17.9
		c-89.4-0.1-178.8-0.1-268.2,0c-12.5,0-18.1,5.5-18.1,17.9c-0.1,59-0.1,117.9,0,176.9c0,12.9,5.6,18.2,18.8,18.3
		c8.8,0.1,17.5,0,26.9,0c0,14.2,0,27.1,0,40c0,16.1,4.8,20.8,21,20.8c82.4,0,164.8,0,247.3,0c16.2,0,21-4.8,21-20.8
		c0-55.2-0.4-110.3,0.2-165.5c0.2-21.7-4.5-28.8-26.6-26.9C868.4,451.7,867.4,451.4,865.3,451.1z"/>
	<path d="M423,329.5c-91.3,0-181.8,0-272.9,0c0-70.7,0-141,0-212c90.6,0,181.4,0,272.9,0C423,187.7,423,258.2,423,329.5z
		 M258.3,162.5c-10.9-0.3-17.2,6.6-17.2,17.6c-0.1,28.8-0.2,57.6,0,86.4c0.1,15.1,10.8,21.6,24.4,14.9
		c28.6-14.1,57.1-28.5,85.7-42.7c6.7-3.3,13-8.1,11.1-15.7c-1.4-5.6-6.2-11.9-11.3-14.6c-27.9-14.8-56.3-28.6-84.6-42.6
		C263.3,164.2,260,163.2,258.3,162.5z"/>
	<path d="M849.9,77c0,23.3,0,46.1,0,66c9.5,6.5,18.4,10.9,24.6,17.6c4,4.3,5.5,12.1,5.6,18.4c0.2,15.3-10.6,25.5-30.1,29.7
		c0,22.9,0,46,0,70.1c-27.5-8.5-54.1-16.7-80.6-24.9c-26.3-8.1-52.6-16.5-79-24.2c-5.9-1.7-8.1-3.9-8-10.2
		c0.4-27.9,0.2-55.8,0.1-83.7c0-4.8,0.2-8,6.1-9.8c52.1-15.7,104.1-31.9,156.2-47.9C846.2,77.7,847.7,77.5,849.9,77z"/>
	<path d="M926.1,756.8c0,5.2,0.3,10-0.1,14.7c-0.6,9-6.2,14.4-15.2,15.1c-3.2,0.2-6.3,0.1-9.5,0.1c-267,0-533.9,0-800.9,0
		c-25,0-28.4-3.7-26.3-29.8C357.6,756.8,641.2,756.8,926.1,756.8z"/>
	<path d="M576.1,222.9c0-4.9,0-9.2,0-14.6c-10.2,0-19.9,0-30,0c0-20.5,0-40,0-60.6c9.3,0,19,0,29.4,0c0.3-5.5,0.6-10.1,0.9-15.2
		c25.1,0,49.9,0,75.2,0c0,30.1,0,60,0,90.3C626.6,222.9,602,222.9,576.1,222.9z"/>
	<path d="M363.3,923c0-10.1,0-19.4,0-29.3c91,0,181.5,0,272.8,0c0,9.4,0,19,0,29.3C545.6,923,454.8,923,363.3,923z"/>
	<path d="M529.8,817.8c0,15.2,0,29.6,0,44.6c-20,0-39.5,0-59.7,0c0-14.6,0-29.2,0-44.6C489.7,817.8,509.4,817.8,529.8,817.8z"/>
	<path d="M619.3,254.4c-3.7,25.7-7.2,50.1-10.8,75c-5.6,0-10.8,0-16.6,0c0-24.8,0-49.6,0-75C600.9,254.4,609.8,254.4,619.3,254.4z"
		/>
	<path d="M499.3,664.5c-121.8,0-242.7,0-364.3,0c0-66.4,0-132.5,0-200.1c3.6,2.1,6.8,3.9,9.8,5.7c53.1,32.7,106.4,65.2,159.3,98.2
		c9.4,5.9,16.9,5.7,26.2-0.1c52.7-32.8,105.6-65.2,158.5-97.7c3.1-1.9,6.4-3.7,10.5-6.1C499.3,531.6,499.3,597.6,499.3,664.5z"/>
	<path d="M175.3,452.2c95.3,0,188.9,0,284.6,0c-4.8,3.1-7.8,5.2-10.9,7.1c-41.5,25.6-83,51.1-124.5,76.7c-4.2,2.6-7.6,4.4-12.8,1.2
		c-44.1-27.4-88.3-54.6-132.5-81.8C178.1,454.8,177.3,453.9,175.3,452.2z"/>
	<path d="M637.3,633.7c0-50.7,0-100.6,0-151.1c75.8,0,151.1,0,227.2,0c0,50,0,100.2,0,151.1C789.2,633.7,713.6,633.7,637.3,633.7z
		 M834.4,513.3c-35.8,0-70.8,0-105.7,0c0,10.1,0,19.5,0,29.2c35.4,0,70.4,0,105.7,0C834.4,532.6,834.4,523.2,834.4,513.3z
		 M834.4,574.2c-25.6,0-50.4,0-74.9,0c0,10.3,0,19.9,0,29.3c25.3,0,49.9,0,74.9,0C834.4,593.6,834.4,584.2,834.4,574.2z
		 M667.8,603.3c20.5,0,40.2,0,59.7,0c0-10.3,0-19.9,0-29.3c-20.3,0-39.8,0-59.7,0C667.8,583.9,667.8,593.2,667.8,603.3z
		 M667.8,542.4c10.3,0,19.8,0,29.3,0c0-10.2,0-19.8,0-29.3c-10.1,0-19.5,0-29.3,0C667.8,522.9,667.8,532.3,667.8,542.4z"/>
	<path d="M606.4,573.1c-5.5,0-9.9,0-14.7,0c0-50.6,0-100.8,0-151.4c80.8,0,161.2,0,242.3,0c0,9.4,0,19.1,0,30c-3.1,0-6.5,0-9.8,0
		c-65.6,0-131.2,0-196.8,0c-16.2,0-21,4.7-21,20.8C606.4,505.8,606.4,539,606.4,573.1z"/>
	<path d="M271.9,202.5c14,7,26.8,13.4,41.7,20.8c-14.8,7.4-27.8,13.9-41.7,20.9C271.9,229.9,271.9,217.1,271.9,202.5z"/>
</g>
</svg>
