<?xml version="1.0" encoding="utf-8"?>
<!-- Generator: Adobe Illustrator 27.9.1, SVG Export Plug-In . SVG Version: 6.00 Build 0)  -->
<svg version="1.1" id="Capa_1" xmlns="http://www.w3.org/2000/svg" xmlns:xlink="http://www.w3.org/1999/xlink" x="0px" y="0px"
	 viewBox="0 0 1000 1000" style="enable-background:new 0 0 1000 1000;" xml:space="preserve">
<g>
	<path d="M24.3,280.3c12.3-24.6,23.2-29.5,58.7-25.4c0,3.7,0,7.6,0,11.5c0,135.7,0.1,271.4-0.1,407.1c0,22.3,4.8,42.8,19.2,60.4
		c16.8,20.6,38.5,30.7,64.9,32.7c31.4,2.4,63,4,93.9,9.3c53.6,9.2,103.4,28.7,146.5,62.9c5.3,4.2,10.2,8.7,16.9,14.4
		c-20.2-3.5-38.1-7.1-56.2-9.6c-53.5-7.4-107.3-9.3-160.9-3.3c-46.2,5.2-92.2,13.2-138.2,20.5c-22.1,3.5-34-2.8-44.9-25.7
		C24.3,650.1,24.3,465.2,24.3,280.3z"/>
	<path d="M472.5,825.7c-7.4-6.9-13.5-12.8-20-18.3c-55.4-47.9-120.5-74.3-192.1-85.1c-28.9-4.4-58.3-5.9-87.5-7.8
		c-24.2-1.6-37.3-14.5-37.3-39c0-166.9,0-333.8,0-500.8c0-25.5,14.8-38.9,40.4-38.1c47.8,1.4,94.7,7.4,140.2,23
		c61.4,21.2,112.5,56.1,148.1,111.4c4.8,7.4,8.2,17.1,8.3,25.8c0.5,174,0.4,348.1,0.3,522.1C472.9,820.5,472.7,822.2,472.5,825.7z"
		/>
	<path d="M525.4,825.9c0-5.9,0-9.6,0-13.3c0-166.6,0.5-333.2-0.5-499.8c-0.2-24.9,8.3-43.9,23.2-62.2
		c46.9-57.6,108.8-89.4,180.2-103.4c32-6.3,64.9-8.1,97.4-10.6c22.5-1.7,37,13.9,37,37.7c0.1,93,0,186.1,0,279.1
		c0,73.3,0,146.5,0,219.8c0,27.8-12.7,40.6-40.7,41.1c-59.4,1.1-117.4,9.9-173.1,31.5c-43.4,16.8-82.4,40.6-115.8,73.3
		C531.2,821,529.1,822.6,525.4,825.9z"/>
	<path d="M572.7,852c18-12.6,33.6-25.2,50.7-35.2c56.2-32.9,118-45.9,182.4-49.3c14.8-0.8,30-0.4,44.2-4
		c41.8-10.7,65.3-44,65.4-89.6c0.1-135.7,0-271.5,0-407.2c0-3.9,0-7.9,0-12.2c11,0,20.9-0.9,30.6,0.2c14.5,1.6,26,14.6,27.8,29.5
		c0.3,2.4,0.3,4.9,0.3,7.4c0,177.5,0,354.9,0,532.4c0,22.2-13.5,37.8-33.3,37.8c-7.3,0-14.7-1.8-21.9-3.4
		c-81.4-17.5-163.7-25.2-246.8-19.2C639.8,841.5,607.9,847.4,572.7,852z"/>
</g>
</svg>
