<?xml version="1.0" encoding="utf-8"?>
<!-- Generator: Adobe Illustrator 27.9.1, SVG Export Plug-In . SVG Version: 6.00 Build 0)  -->
<svg version="1.1" id="Capa_1" xmlns="http://www.w3.org/2000/svg" xmlns:xlink="http://www.w3.org/1999/xlink" x="0px" y="0px"
	 viewBox="0 0 1000 1000" style="enable-background:new 0 0 1000 1000;" xml:space="preserve">
<g>
	<path d="M659.2,933.6c-175,0-350,0-524.9,0c-0.7-0.4-1.5-0.9-2.2-1.1c-40.9-7.7-65.4-37.1-65.5-79c-0.1-235.7-0.1-471.3,0.1-707
		c0-7.5,0.7-15.3,2.7-22.6c9.8-35.8,38.4-57.4,76.2-57.4c123.6-0.2,247.2-0.1,370.8,0c2.4,0,4.8,0.3,7.5,0.5c0,58.1,0,115.4,0,172.7
		c0,20.8,9.1,30,29.8,30c54.5,0,108.9,0,163.4,0c3.2,0,6.5,0,9.9,0c0,34.7-0.2,68,0.1,101.3c0.1,6.2-1.8,10.4-6.1,14.7
		c-54.3,53.8-108.7,107.6-162.4,162.1c-9.5,9.7-18.8,21.1-23.8,33.5c-11.5,28.7-21.3,58.2-29.7,88c-6.5,23.2,0.6,44.4,18.5,60.7
		c17.8,16.1,38.8,21.3,62.1,13.9c23.6-7.6,47-15.8,70.6-23.4c17-5.5,31.7-14.5,44.3-27c6.8-6.8,13.7-13.5,20.6-20.1
		c1.4-1.4,3.2-2.4,5.6-4.2c0,64.2,0.4,127.1-0.2,190c-0.2,23.1-10.4,42.2-28.4,57.2C686.6,925.8,673,929.9,659.2,933.6z
		 M371.3,371.3c42.6,0,85.2,0,127.8,0c16.4,0,32.7,0.3,49.1-0.1c17-0.4,28.1-14.9,24.6-31.2c-2.6-12.1-13.1-19.5-28-19.5
		c-116,0-232,0-347.9,0c-2,0-4-0.1-5.9,0.2c-10.3,1.5-17.7,7-21.3,16.9c-6.2,17.3,6.5,33.6,26.4,33.6
		C254.5,371.4,312.9,371.3,371.3,371.3z M320.3,422.1c-41.5,0-83,0-124.4,0c-11.5,0-20.4,4.4-25.3,15c-8,17,4.4,35.6,24,35.8
		c33,0.3,66,0.1,99,0.1c49.9,0,99.9-0.1,149.8,0c9.3,0,17.3-2.4,23.1-9.9c6.2-8.1,7.1-17.2,2.8-26.3c-4.8-10.2-13.5-14.6-24.7-14.6
		C403.3,422.1,361.8,422.1,320.3,422.1z M320.2,574.5c41.5,0,83,0.1,124.4,0c16.7,0,27.9-11.3,27.2-26.7c-0.7-14.2-11.6-24-27.4-24
		c-50.2-0.1-100.5,0-150.7,0c-32.7,0-65.5,0-98.2,0c-11.5,0-20.3,4.7-25.2,15.3c-7.8,17,4.8,35.4,24.5,35.5
		C236.7,574.7,278.4,574.5,320.2,574.5z M320,676.2c41.5,0,83,0.1,124.4,0c18.1-0.1,29.7-13.1,27-30c-2-12.4-12.5-20.7-26.9-20.8
		c-42-0.1-84.1,0-126.1,0c-40.9,0-81.8,0-122.7,0c-11.5,0-20.3,4.6-25.2,15.1c-7.9,17,4.6,35.5,24.3,35.6
		C236.5,676.3,278.3,676.1,320,676.2z M472.9,777.8c-24.5,0-49.1-0.1-73.6,0c-17.2,0-28.6,10.2-28.6,25.4
		c0,15.2,11.4,25.3,28.6,25.4c48.5,0.1,97,0.1,145.6,0c17.3,0,28.6-10.2,28.6-25.4c0-15.2-11.3-25.3-28.6-25.4
		C520.9,777.7,496.9,777.8,472.9,777.8z"/>
	<path d="M933.5,376.4c-8.3,28.4-33.6,42.7-50.6,63c-24.3-24.3-48-48-72.6-72.6c14.1-13.4,27.7-29.2,44.1-41.1
		c27.4-19.9,66.1-5.4,76.8,26.9c0.6,1.8,1.6,3.5,2.3,5.2C933.5,364,933.5,370.2,933.5,376.4z"/>
	<path d="M774.4,406.7c22.4,22.4,46,46.2,69.1,69.2c-54.6,54.7-110,110.1-164.8,164.9c-22.7-22.8-46.2-46.5-69-69.4
		C663.8,517.3,719.3,461.8,774.4,406.7z"/>
	<path d="M573.7,66.6C597.2,66.3,616.8,74,633,90c23.3,23,46.4,46.1,69.4,69.4c16,16.1,24.2,35.5,23.2,59c-50.7,0-101,0-152,0
		C573.7,168.1,573.7,117.8,573.7,66.6z"/>
	<path d="M575.7,615c19.7,19.7,39.2,39.2,59,59c-21.5,7.1-43.5,14.8-65.7,21.6c-9,2.8-17.4-5.6-14.6-15
		C561,658.3,568.7,636.3,575.7,615z"/>
</g>
</svg>
