<?xml version="1.0" encoding="utf-8"?>
<!-- Generator: Adobe Illustrator 27.9.1, SVG Export Plug-In . SVG Version: 6.00 Build 0)  -->
<svg version="1.1" id="Capa_1" xmlns="http://www.w3.org/2000/svg" xmlns:xlink="http://www.w3.org/1999/xlink" x="0px" y="0px"
	 viewBox="0 0 1000 1000" style="enable-background:new 0 0 1000 1000;" xml:space="preserve">
<g>
	<path d="M959.3,393.5c-5.6,6.3-10.6,13.2-16.9,18.5c-4.7,3.9-10.5,2.4-13.6-3.5c-4.7-8.9-12.5-12-21.9-13.2
		C819.9,384.2,733,372.9,646,361.7c-46.7-6-93.4-12.1-140.2-18c-17-2.2-31.5,8.8-33.5,24.9c-2,16,9.6,29.8,26.7,32
		c100.5,13,201,26,301.6,39c20.1,2.6,40.2,5.1,60.3,7.6c10,1.3,12.3,3.6,12.3,13.7c0,103.2,0,206.5,0,309.7
		c0,18.2-12.1,31.1-28.7,31c-16.3,0-28.5-13.3-28.5-31.4c-0.1-97.3,0-194.6,0-291.8c0-3.2,0-6.5,0-10.9c-3.9,1.5-6.8,2.7-9.8,3.9
		c-95.4,41.3-190.9,82.5-286.1,124.3c-13.7,6-25.7,5.6-39.3-0.4C342.2,534.9,203.3,474.8,64.4,414.7c-20.6-8.9-28.4-28.5-16.7-44.3
		c3.5-4.8,9.1-8.7,14.6-11.1c141.5-61.6,283.1-122.8,424.6-184.4c11.2-4.9,21.1-3,31.7,1.6c109.5,47.6,219.2,95,328.8,142.5
		c28.4,12.3,56.7,25,85.3,36.8c11.8,4.9,21.4,11.3,26.5,23.3C959.3,383.9,959.3,388.7,959.3,393.5z"/>
	<path d="M786.7,612c0,19.4,1.6,38.9-0.3,58.1c-4.1,40.7-27.5,70.3-58.7,94.4c-38.5,29.8-83,46.6-130.2,56
		c-82,16.4-163.1,13.4-242.6-13.7c-42.6-14.5-81.3-35.8-110.7-71.1c-19.8-23.7-30.3-50.8-29.9-82.2c0.4-30.4,0.1-60.8,0.1-91.3
		c0-15.5,4.4-18.5,18.3-12.5c76,32.9,152.1,65.5,227.8,98.9c27.4,12.1,53.7,12,81.1-0.1c75.5-33.2,151.3-65.8,227-98.6
		c14.5-6.3,18.8-3.4,18.8,12.6c0,16.4,0,32.8,0,49.2C787.2,612,786.9,612,786.7,612z"/>
</g>
</svg>
