<?xml version="1.0" encoding="utf-8"?>
<!-- Generator: Adobe Illustrator 27.9.1, SVG Export Plug-In . SVG Version: 6.00 Build 0)  -->
<svg version="1.1" id="Capa_1" xmlns="http://www.w3.org/2000/svg" xmlns:xlink="http://www.w3.org/1999/xlink" x="0px" y="0px"
	 viewBox="0 0 1000 1000" style="enable-background:new 0 0 1000 1000;" xml:space="preserve">
<g>
	<path d="M500,901.2c-111,0-221.9,0-332.9,0c-59.1,0-98.2-39.3-98.2-98.4c0-201.8,0-403.7,0-605.5c0-59.2,39.1-98.4,98.2-98.4
		c221.9,0,443.9,0,665.8,0c59.2,0,98.2,39.1,98.2,98.4c0,201.8,0,403.7,0,605.5c0,59.3-39.1,98.5-98.2,98.5
		C721.9,901.2,611,901.2,500,901.2z M315.2,497.7c0,42.4-0.1,84.8,0,127.3c0.1,51.4,48.1,80.9,93.3,57
		c78.8-41.6,157.3-83.7,235.9-125.5c22.9-12.2,36.2-30.7,36.2-56.9c0-25.8-13-44.2-35.4-56.4c-78.5-42.8-156.8-85.9-235.4-128.5
		c-46.1-25-94.5,4.2-94.6,56.7C315.2,413.5,315.2,455.6,315.2,497.7z M191.6,284.5c-20.8,0-40.6,0-60.6,0c0,20.5,0,40.5,0,60.5
		c20.6,0,40.5,0,60.6,0C191.6,324.6,191.6,304.8,191.6,284.5z M808.4,345.2c20.9,0,40.6,0,60.5,0c0-20.5,0-40.5,0-60.5
		c-20.6,0-40.6,0-60.5,0C808.4,305.2,808.4,325,808.4,345.2z M191.2,468.9c0-20.3,0-40.5,0-60.9c-20.3,0-40.2,0-60.1,0
		c0,20.7,0,40.7,0,60.9C151.4,468.9,170.9,468.9,191.2,468.9z M869.1,408c-20.4,0-40.4,0-60.5,0c0,20.6,0,40.6,0,60.4
		c20.6,0,40.6,0,60.5,0C869.1,447.9,869.1,428.1,869.1,408z M191.3,592.2c0-20.9,0-40.9,0-60.9c-20.5,0-40.2,0-60.3,0
		c0,20.5,0,40.5,0,60.9C151.3,592.2,171,592.2,191.3,592.2z M869.1,531.4c-20.4,0-40.4,0-60.5,0c0,20.6,0,40.6,0,60.4
		c20.6,0,40.6,0,60.5,0C869.1,571.3,869.1,551.6,869.1,531.4z M130.9,715.3c20.7,0,40.7,0,60.4,0c0-20.7,0-40.7,0-60.5
		c-20.5,0-40.2,0-60.4,0C130.9,675.1,130.9,694.9,130.9,715.3z M808.4,715.3c20.7,0,40.7,0,60.4,0c0-20.7,0-40.7,0-60.5
		c-20.5,0-40.2,0-60.4,0C808.4,675.1,808.4,694.9,808.4,715.3z M191.6,160.7c-11.6,0-22.4-0.5-33.2,0.1
		c-14.2,0.9-26.3,12.1-27.6,26.3c-1,11.3-0.2,22.9-0.2,34.7c20.6,0,40.6,0,60.9,0C191.6,201.4,191.6,181.7,191.6,160.7z
		 M808.6,778.1c0,20.9,0,40.9,0,61.3c11.2,0,21.7,0.4,32.2-0.1c14.2-0.7,26.7-11.6,28.1-25.7c1.2-11.6,0.2-23.4,0.2-35.5
		C848.7,778.1,828.9,778.1,808.6,778.1z M869.4,221.9c0-11.8,0.5-22.7-0.1-33.5c-0.9-13.7-11.9-25.9-25.5-27.3
		c-11.6-1.2-23.4-0.2-35.2-0.2c0,20.7,0,40.7,0,61C828.9,221.9,848.6,221.9,869.4,221.9z M191.4,839.4c0-21.2,0-41.1,0-60.9
		c-20.6,0-40.6,0-60.9,0c0,10.9-0.3,21.2,0.1,31.4c0.6,15.8,13,28.6,28.7,29.4C169.7,839.8,180.3,839.4,191.4,839.4z"/>
</g>
</svg>
