<?xml version="1.0" encoding="utf-8"?>
<!-- Generator: Adobe Illustrator 27.9.1, SVG Export Plug-In . SVG Version: 6.00 Build 0)  -->
<svg version="1.1" id="Capa_1" xmlns="http://www.w3.org/2000/svg" xmlns:xlink="http://www.w3.org/1999/xlink" x="0px" y="0px"
	 viewBox="0 0 1000 1000" style="enable-background:new 0 0 1000 1000;" xml:space="preserve">
<g>
	<path d="M674.6,65.1c137.6,0.3,244.3,119.2,230,256.3c-5.5,52.3-26,97.9-62.7,135.4C745.3,555.3,648.1,653.3,551,751.4
		c-44.4,44.9-88,90.5-133.3,134.4c-94.8,92-253.8,48.3-288.1-79.2c-16.8-62.4-3.3-119.6,42.2-165.7
		c101-102.3,203.2-203.3,305.6-304.2c50.1-49.4,130-43.9,169.8,10.2c30.6,41.7,26.9,102-8.8,142.2c-2.4,2.7-4.9,5.4-7.4,7.9
		C537,591,443,684.9,349.1,778.9c-8.8,8.8-18.6,13.3-31,9.7c-20.1-5.8-27.5-29.7-14.4-45.9c2.1-2.6,4.6-4.8,6.9-7.2
		c92.7-92.7,185.3-185.4,278.1-277.9c13.7-13.7,22.4-29.4,21.2-49c-2.2-34.2-33.5-55.6-66.5-44.8c-9.9,3.2-20,9.3-27.4,16.6
		c-100.6,99.3-200.8,198.9-300.8,298.7c-34.2,34.1-43.3,85-23.9,128.9c19.4,43.7,63.5,71,111.7,68.6c30.9-1.6,56.9-14,78.7-36.1
		c87.8-89,175.7-177.9,263.6-266.8c51.6-52.2,103.6-103.9,154.6-156.7c60.6-62.7,64.7-159.4,10.8-227.7
		c-63.7-80.8-183.8-89.4-257.1-17.1C417.7,305.9,282.9,440.4,147.4,574.4c-5.5,5.4-13.1,9.9-20.5,11.9c-11.6,3-23.6-4.2-29.3-15
		c-6-11.5-4.2-24.3,5.5-34.1c21.9-22.1,44.1-43.9,66.1-65.8C282,359.5,394.7,247.6,507.4,135.7C554.8,88.7,611.3,65,674.6,65.1z"/>
</g>
</svg>
